<svg width="420" height="273" viewBox="0 0 420 273" fill="none" xmlns="http://www.w3.org/2000/svg">
<g clip-path="url(#clip0_118_1433)">
<rect width="420" height="273" fill="#000EA1"/>
<rect y="150" width="110" height="123" fill="#F7313F"/>
<rect x="127" y="150" width="173" height="123" fill="#FDD106"/>
<rect x="285" y="150" width="15" height="123" fill="white"/>
<rect x="270" y="150" width="15" height="123" fill="#FDD106"/>
<rect x="255" y="150" width="15" height="123" fill="#F7313F"/>
<rect x="315" y="150" width="105" height="123" fill="#FDD106"/>
<g clip-path="url(#clip1_118_1433)">
<path d="M285.8 26C286.46 26.528 287.12 27.056 287.8 27.6C288.064 27.468 288.328 27.336 288.6 27.2C290.36 28.7287 290.923 29.7895 291.4 32C291.829 32.0247 292.258 32.0495 292.7 32.075C294.519 32.4691 294.79 32.885 295.8 34.4C297.503 36.9289 299.334 37.517 302.2 38.4C304.302 39.0565 305.893 39.5698 307 41.6C306.975 42.0537 306.951 42.5075 306.925 42.975C306.851 44.3663 306.851 44.3663 307.575 45.0562C308.076 45.4697 308.588 45.8704 309.109 46.2578C309.8 46.8 309.8 46.8 310.375 47.75C311.032 48.5823 311.032 48.5823 312.575 48.475C312.855 48.46 313.135 48.4451 313.423 48.4297C314.28 48.397 314.988 48.5294 315.8 48.8C315.759 48.4535 315.718 48.107 315.675 47.75C315.809 46.3001 316.163 45.5912 317.158 44.5297C319.116 42.9149 321.46 42.5775 323.938 42.6578C326.64 43.0195 329.502 43.9866 331.4 46C331.996 46.9133 332.496 47.8296 333 48.8C333.693 48.7629 333.693 48.7629 334.4 48.725C335.741 48.7107 336.675 48.9362 337.9 49.475C338.395 49.6482 338.89 49.8215 339.4 50C340.408 49.5457 340.408 49.5457 341 48.8C340.827 48.4674 340.827 48.4674 340.65 48.1281C340.501 47.8383 340.353 47.5486 340.2 47.25C340.051 46.9623 339.903 46.6746 339.75 46.3781C339.4 45.6 339.4 45.6 339.4 44.8C339.029 44.767 338.657 44.734 338.275 44.7C337 44.4 337 44.4 336.225 43.75C335.604 42.3612 335.842 41.4591 336.2 40C336.925 38.167 338.018 37.4715 339.755 36.6906C341.606 36.0543 343.015 36.2805 344.85 36.85C347.029 38.0605 348.204 39.8593 349.4 42C349.994 41.802 349.994 41.802 350.6 41.6C352.943 41.4438 354.496 41.6267 356.6 42.8C358.448 44.745 358.65 46.1665 358.6 48.8C358.996 48.8 359.392 48.8 359.8 48.8C359.759 48.305 359.717 47.81 359.675 47.3C359.67 45.89 359.698 45.7071 360.725 44.625C362.433 43.632 363.562 43.5916 365.5 43.675C367.693 43.7277 367.693 43.7277 369.6 42.8C371.548 41.4414 373.936 41.7655 376.2 42C377.252 42.2586 378.259 42.5776 379.284 42.925C380.767 43.3703 381.86 43.4161 383.4 43.2C384.211 42.272 384.211 42.272 384.6 41.2C385 40.8 385 40.8 386.3 40.675C388.062 40.8218 388.597 41.1305 389.8 42.4C390.574 43.6722 390.984 44.5331 391.075 46.025C391.466 47.4401 391.782 47.5623 393 48.3C393.289 48.4547 393.577 48.6094 393.875 48.7687C394.6 49.2 394.6 49.2 395 50C395.05 51.425 395.05 51.425 395 52.8C394.868 52.932 394.736 53.064 394.6 53.2C394.554 53.9158 394.512 54.6319 394.484 55.3486C394.233 61.7779 394.233 61.7779 391.675 64.15C389.742 65.7634 387.623 66.0999 385.161 66.1029C384.634 66.1055 384.107 66.1081 383.563 66.1107C382.98 66.1095 382.398 66.1083 381.815 66.107C381.194 66.1085 380.573 66.1103 379.952 66.1125C378.247 66.1174 376.541 66.1172 374.835 66.1163C372.996 66.1161 371.156 66.1206 369.316 66.1243C365.713 66.131 362.11 66.1332 358.506 66.1336C355.578 66.134 352.65 66.1357 349.722 66.1382C341.424 66.1452 333.125 66.1489 324.827 66.1483C324.379 66.1483 323.932 66.1483 323.471 66.1482C322.799 66.1482 322.799 66.1482 322.114 66.1481C314.849 66.1478 307.585 66.1555 300.321 66.1667C292.865 66.1782 285.409 66.1838 277.953 66.1831C273.766 66.1828 269.579 66.185 265.392 66.1936C261.828 66.2009 258.264 66.2027 254.7 66.1972C252.881 66.1946 251.062 66.1946 249.243 66.2015C247.579 66.2078 245.915 66.2067 244.251 66.1997C243.648 66.1984 243.045 66.1999 242.442 66.2043C241.624 66.21 240.806 66.2048 239.988 66.1991C239.533 66.1993 239.079 66.1995 238.61 66.1996C237.131 65.9555 236.466 65.4339 235.4 64.4C234.922 63.4448 234.942 62.8385 234.929 61.7721C234.924 61.3929 234.919 61.0137 234.914 60.6231C234.911 60.2122 234.908 59.8014 234.905 59.3781C234.901 58.9569 234.898 58.5356 234.895 58.1016C234.889 57.2092 234.885 56.3168 234.882 55.4244C234.875 54.0583 234.857 52.6926 234.84 51.3266C234.836 50.4604 234.832 49.5943 234.83 48.7281C234.823 48.3189 234.816 47.9097 234.808 47.4881C234.817 44.6628 234.817 44.6628 235.738 43.3395C236.919 42.6006 237.627 42.6212 239 42.8C240.098 43.2234 240.098 43.2234 241.175 43.775C243.578 44.9268 243.578 44.9268 246.2 45.2C247.689 44.4651 248.799 43.4061 249.95 42.225C252.583 39.6551 255.524 38.3046 259 37.2C258.736 36.408 258.472 35.616 258.2 34.8C259.52 34.8 260.84 34.8 262.2 34.8C261.944 34.4122 261.689 34.0245 261.425 33.625C260.447 31.9379 260.287 30.3219 260.2 28.4C260.671 28.6026 260.671 28.6026 261.152 28.8094C266.094 31.0115 266.094 31.0115 271.4 31.2C272.043 30.894 272.676 30.5668 273.3 30.225C276.435 28.6327 279.967 28.8712 283.408 28.8504C284.23 28.8497 284.23 28.8497 285 28.4C285.291 27.6084 285.559 26.8082 285.8 26Z" fill="#FBCF09"/>
<path d="M287 32.4C287.198 32.994 287.198 32.994 287.4 33.6C287.268 33.864 287.136 34.128 287 34.4C286.736 34.4 286.472 34.4 286.2 34.4C286.2 35.06 286.2 35.72 286.2 36.4C286.357 36.2103 286.514 36.0205 286.675 35.825C287.592 35.0347 288.196 34.8602 289.4 34.8C289.8 35.2 290.2 35.6 290.6 36C290.98 36 291.359 36 291.75 36C293.209 36 293.853 36.3231 295 37.2C295 37.464 295 37.728 295 38C295.232 38.1142 295.464 38.2283 295.703 38.3459C296.534 38.7664 297.345 39.2079 298.156 39.6656C298.582 39.9054 298.582 39.9054 299.016 40.15C299.307 40.315 299.599 40.48 299.9 40.65C300.198 40.8181 300.496 40.9862 300.803 41.1594C301.536 41.5726 302.268 41.9863 303 42.4C303.1 44.65 303.1 44.65 302.2 46C301.936 46 301.672 46 301.4 46C301.136 45.604 300.872 45.208 300.6 44.8C299.828 44.6265 299.828 44.6265 298.95 44.625C296.919 44.4736 295.564 43.7944 293.8 42.8C294.249 43.1927 294.699 43.5841 295.15 43.975C295.401 44.1931 295.651 44.4112 295.909 44.636C297.31 45.7802 298.428 45.6328 300.2 45.6C300.332 46.128 300.464 46.656 300.6 47.2C299.709 47.2326 298.817 47.2558 297.925 47.275C297.18 47.2959 297.18 47.2959 296.42 47.3172C294.913 47.1929 294.189 46.9109 293 46C292.868 45.736 292.736 45.472 292.6 45.2C291.672 45.0884 291.672 45.0884 290.575 45.075C288.286 44.9054 286.724 44.3257 285 42.8C284.2 41.675 284.2 41.675 283.8 40.8C283.792 41.196 283.784 41.592 283.775 42C283.53 43.7944 282.518 44.7034 281.314 45.9844C279.498 48.0589 278.931 50.0936 278.6 52.8C279.222 52.7791 279.222 52.7791 279.856 52.7578C280.404 52.7466 280.952 52.7357 281.5 52.725C281.773 52.715 282.046 52.7049 282.327 52.6946C283.557 52.6766 284.459 52.7283 285.564 53.2891C286.33 54.1453 286.49 54.7235 286.675 55.85C286.804 57.0404 286.804 57.0404 287.4 58C289.886 58.1348 292.06 57.7496 294.475 57.2C302.258 55.5557 302.258 55.5557 305.7 57.125C307 58 307 58 307.4 59.2C306.2 59.2 306.2 59.2 305 58.4C301.663 58.0273 298.426 58.6233 295.175 59.325C294.757 59.4104 294.338 59.4957 293.907 59.5836C291.493 60.0856 289.137 60.6789 286.783 61.4144C285.65 61.6285 284.899 61.5344 283.8 61.2C283.063 60.4297 283.063 60.4297 282.4 59.475C281.091 57.6845 279.956 56.3186 277.8 55.6C275.274 55.3275 272.872 55.7308 270.4 56.2C263.227 57.5371 263.227 57.5371 259.8 55.2C258.8 54.3 258.8 54.3 258.2 53.6C258.168 54.2414 258.144 54.8832 258.125 55.525C258.111 55.8824 258.097 56.2397 258.083 56.6078C258.115 57.6176 258.115 57.6176 258.755 58.3047C260.731 59.8218 263.483 59.3927 265.84 59.0934C268.424 58.6988 270.985 58.2283 273.506 57.5344C274.899 57.2227 275.321 57.2001 276.6 57.6C276.336 57.9465 276.072 58.293 275.8 58.65C274.949 60.0857 274.845 60.7708 275 62.4C273.608 61.8434 273.208 61.347 272.6 60C272.161 60.1398 271.722 60.2795 271.27 60.4235C270.689 60.6074 270.107 60.7912 269.525 60.975C269.237 61.0671 268.948 61.1591 268.651 61.2539C265.144 62.3588 261.661 63.136 258.141 61.6422C256.271 60.5258 255.12 58.8428 254.325 56.85C254.152 56.4375 253.979 56.025 253.8 55.6C252.602 55.2008 251.573 55.131 250.32 55.0839C246.048 54.9222 241.773 54.5635 238.2 52C237.728 51.1485 237.728 51.1485 237.4 50.4C237.768 50.5444 238.136 50.6888 238.516 50.8375C242.689 52.3986 246.763 53.3232 251.125 51.775C252.875 50.9703 254.305 49.8626 255.789 48.6469C257.593 47.2078 259.087 46.5486 261.4 46.8C262.35 47.2 262.35 47.2 263 47.6C262.294 46.397 261.717 45.4146 260.55 44.625C257.634 44.0544 255.118 44.7601 252.525 46.1031C252.286 46.2011 252.047 46.2991 251.8 46.4C251.404 46.202 251.404 46.202 251 46C251.572 45.6281 252.148 45.2628 252.725 44.9C253.045 44.6958 253.365 44.4916 253.695 44.2813C257.189 42.4569 260.251 41.787 264.175 41.775C271.342 41.5967 275.781 39.6567 281.586 35.4844C283.314 34.3185 285.152 33.3592 287 32.4Z" fill="#FCFBFB"/>
<path d="M287 29.2001C287.173 29.4641 287.347 29.7281 287.525 30.0001C287.748 30.2641 287.971 30.5281 288.2 30.8001C288.596 30.8001 288.992 30.8001 289.4 30.8001C290.193 31.9669 290.195 32.4496 290.05 33.9001C289.968 34.3291 289.885 34.7581 289.8 35.2001C289.437 35.2331 289.074 35.2661 288.7 35.3001C287.24 35.6371 286.746 36.0716 285.8 37.2001C285.932 36.2761 286.064 35.3521 286.2 34.4001C286.464 34.4001 286.728 34.4001 287 34.4001C287 33.8721 287 33.3441 287 32.8001C283.276 33.9173 279.897 35.5517 276.625 37.6501C272.471 40.1453 268.269 40.6166 263.524 40.927C260.382 41.1365 257.345 41.3586 254.625 43.0751C253.739 43.6298 253.739 43.6298 253 44.0001C252.736 43.8681 252.472 43.7361 252.2 43.6001C255.561 40.3885 259.221 38.9935 263.8 38.4001C263.404 38.1361 263.008 37.8721 262.6 37.6001C262.193 37.2077 261.791 36.8093 261.4 36.4001C261.903 36.3898 262.407 36.3794 262.925 36.3688C267.421 36.2343 271.492 35.6936 275.8 34.4001C275.478 34.4635 275.155 34.5269 274.823 34.5923C273.147 34.837 271.517 34.904 269.825 34.9251C269.516 34.9367 269.207 34.9483 268.888 34.9602C266.259 34.9891 264.605 34.2888 262.625 32.5001C262.485 32.3351 262.345 32.1701 262.2 32.0001C262.332 31.7361 262.464 31.4721 262.6 31.2001C262.795 31.3156 262.99 31.4311 263.191 31.5501C265.998 33.0201 268.675 33.2181 271.8 32.8001C272.899 32.3771 272.899 32.3771 273.95 31.8251C276.826 30.4225 279.822 30.5554 282.96 30.5463C283.569 30.5404 283.569 30.5404 284.191 30.5344C284.558 30.5367 284.926 30.539 285.304 30.5413C285.6 30.4947 285.895 30.4481 286.2 30.4001C286.464 30.0041 286.728 29.6081 287 29.2001Z" fill="#32398D"/>
<path d="M343.43 39.3656C344.746 39.7661 345.126 40.4206 345.8 41.6C347.4 45.1333 347.4 45.1333 347.4 46.4C347.632 46.2556 347.864 46.1113 348.103 45.9625C351.358 44.0288 351.358 44.0288 353.4 44.4C354.525 44.825 354.525 44.825 355.4 45.6C355.85 46.875 355.85 46.875 355.8 48.4C355.364 49.0776 355.364 49.0776 354.808 49.7906C353.411 51.9301 353.548 53.9908 353.625 56.475C353.627 56.9017 353.63 57.3284 353.632 57.768C353.665 59.8917 353.791 61.1771 354.6 63.2C352.356 63.2 350.112 63.2 347.8 63.2C347.932 62.672 348.064 62.144 348.2 61.6C348.222 60.866 348.225 60.1312 348.214 59.3969C348.219 51.4077 348.219 51.4077 350.225 48.975C351.114 48.1235 351.114 48.1235 351.8 47.6C350.78 48.2045 349.789 48.8079 348.825 49.5C347.8 50 347.8 50 346.6 50.025C343.862 49.0553 342.846 46.2509 341.65 43.7953C340.906 42.6562 340.202 42.2073 339 41.6C339.951 39.4055 341.054 38.9748 343.43 39.3656Z" fill="#30388D"/>
<path d="M386.2 43.6C387.4 44 387.4 44 388.2 45.2C388.375 46.55 388.375 46.55 388.2 48C387.109 49.3207 386.226 50.2592 384.511 50.5515C380.397 50.8175 377.334 49.0758 373.8 47.2C373.97 47.3648 374.139 47.5297 374.314 47.6996C376.623 50.279 376.544 52.7582 376.525 56.1C376.535 57.1021 376.546 58.1042 376.558 59.1062C376.557 59.5467 376.557 59.9872 376.556 60.441C376.564 61.6871 376.564 61.6871 377 63.2C374.756 63.2 372.512 63.2 370.2 63.2C370.464 62.672 370.728 62.144 371 61.6C371.172 59.8127 371.13 58.0197 371.125 56.225C371.131 55.7338 371.138 55.2427 371.145 54.7367C371.145 54.2631 371.145 53.7895 371.145 53.3015C371.147 52.8697 371.148 52.4379 371.149 51.993C370.981 50.6468 370.536 49.9228 369.8 48.8C369.6 47.575 369.6 47.575 369.8 46.4C370.635 45.3768 371.277 44.8916 372.594 44.6609C374.293 44.5916 375.695 44.8546 377.3 45.4C379.689 46.1912 382.105 46.2694 384.6 46C385.85 45.3461 385.85 45.3461 386.075 44.35C386.116 44.1025 386.158 43.855 386.2 43.6Z" fill="#2E388D"/>
<path d="M367 46.4C368.025 47 368.025 47 368.6 48C368.857 49.993 368.817 50.8023 367.85 52.575C367 53.6 367 53.6 366.2 54C366.53 54.2475 366.86 54.495 367.2 54.75C368.232 55.7766 368.366 56.5598 368.4 58C368.308 59.6336 368.133 60.7542 367 62C364.395 63.555 361.959 63.5093 359 63.2C357.44 62.7266 356.487 62.0546 355.6 60.65C355.157 58.3254 356.048 56.4693 357 54.4C356.472 54.4 355.944 54.4 355.4 54.4C356.1 52.45 356.1 52.45 357 52C359.799 51.8195 359.799 51.8195 361.2 52.45C361.8 53.2 361.8 53.2 361.95 54.4C361.8 55.6 361.8 55.6 361 56.8C360.968 57.7328 360.965 58.6674 361 59.6C361.66 59.6 362.32 59.6 363 59.6C363.132 58.28 363.264 56.96 363.4 55.6C363.136 55.6 362.872 55.6 362.6 55.6C362.525 54.25 362.525 54.25 362.6 52.8C362.996 52.536 363.392 52.272 363.8 52C363.991 51.147 363.991 51.147 363.95 50.2C363.953 49.8824 363.956 49.5648 363.959 49.2375C363.881 48.823 363.881 48.823 363.8 48.4C363.404 48.136 363.008 47.872 362.6 47.6C362.6 47.336 362.6 47.072 362.6 46.8C363.986 46.107 365.484 46.2143 367 46.4Z" fill="#2F388D"/>
<path d="M390.6 50C390.996 50.264 391.392 50.528 391.8 50.8C391.735 51.0244 391.67 51.2487 391.603 51.4798C391.387 52.4577 391.356 53.323 391.358 54.3235C391.352 54.6883 391.346 55.0531 391.34 55.4289C391.33 56.1914 391.328 56.954 391.334 57.7164C391.27 60.4339 391.27 60.4339 390.487 61.4955C388.588 63.1288 386.894 63.2796 384.475 63.325C383.957 63.34 383.439 63.3549 382.905 63.3703C381.073 63.163 379.905 62.5049 378.6 61.2C378.456 58.2166 378.456 58.2166 379.4 56.8C379.136 56.536 378.872 56.272 378.6 56C378.332 53.5458 378.332 53.5458 379.2 52.425C380.619 51.8219 381.882 51.7108 383.4 52C384.4 52.75 384.4 52.75 385 53.6C385 53.864 385 54.128 385 54.4C384.472 54.532 383.944 54.664 383.4 54.8C383.4 55.064 383.4 55.328 383.4 55.6C383.928 55.732 384.456 55.864 385 56C385 56.66 385 57.32 385 58C384.208 58.396 384.208 58.396 383.4 58.8C383.4 59.064 383.4 59.328 383.4 59.6C384.192 59.6 384.984 59.6 385.8 59.6C385.806 59.0746 385.811 58.5492 385.817 58.0078C385.836 57.3136 385.855 56.6193 385.875 55.925C385.877 55.5793 385.88 55.2336 385.882 54.8774C385.944 53.0771 386.02 52.2358 387.142 50.7657C388.424 49.8381 389.051 49.7642 390.6 50Z" fill="#2E378D"/>
<path d="M334.95 51.875C335.481 51.8526 335.481 51.8526 336.022 51.8297C337 52 337 52 337.723 52.6391C338.356 53.9147 338.318 54.8833 338.275 56.3C338.264 56.7682 338.253 57.2364 338.242 57.7188C338.228 58.0756 338.214 58.4324 338.2 58.8C338.728 58.8 339.256 58.8 339.8 58.8C339.815 58.4432 339.83 58.0864 339.845 57.7188C339.872 57.2506 339.898 56.7824 339.925 56.3C339.948 55.836 339.971 55.3719 339.995 54.8938C340.21 53.5349 340.394 52.9289 341.4 52C342.263 51.8016 342.263 51.8016 343.2 51.825C343.509 51.8255 343.819 51.8261 344.138 51.8266C345.173 52.0348 345.537 52.3986 346.2 53.2C345.936 53.464 345.672 53.728 345.4 54C345.32 55.1904 345.289 56.3353 345.3 57.525C345.297 57.8481 345.294 58.1711 345.291 58.5039C345.292 58.9761 345.292 58.9761 345.294 59.4578C345.295 59.7439 345.296 60.03 345.296 60.3247C345.388 61.4202 345.388 61.4202 346.2 63.2C344.352 63.2 342.504 63.2 340.6 63.2C340.468 62.672 340.336 62.144 340.2 61.6C340.038 61.7903 339.876 61.9806 339.709 62.1766C338.476 63.2608 336.997 63.3009 335.4 63.2C334.231 62.494 333.608 62.0166 333 60.8C332.971 59.713 332.963 58.6366 332.975 57.55C332.977 57.2484 332.979 56.9467 332.98 56.636C332.985 55.8906 332.992 55.1453 333 54.4C332.736 54.268 332.472 54.136 332.2 54C332.644 52.0336 332.928 51.9307 334.95 51.875Z" fill="#2F388D"/>
<path d="M321.8 51.6C322.804 52.429 323.228 53.1811 323.642 54.4047C323.799 54.8591 323.799 54.8591 323.959 55.3227C324.063 55.6369 324.167 55.9512 324.275 56.275C324.384 56.5939 324.493 56.9128 324.605 57.2414C324.873 58.0266 325.137 58.8131 325.4 59.6C326.124 58.8755 325.953 57.7549 326.025 56.775C326.059 56.3331 326.092 55.8912 326.127 55.4359C326.163 54.9232 326.163 54.9232 326.2 54.4C325.672 54.4 325.144 54.4 324.6 54.4C324.829 53.2531 324.945 52.8554 325.8 52C326.623 51.8797 326.623 51.8797 327.575 51.875C328.044 51.865 328.044 51.865 328.523 51.8547C329.4 52 329.4 52 330.105 52.4109C330.883 53.6509 330.773 54.9331 330.75 56.35C330.755 56.6331 330.759 56.9162 330.764 57.2078C330.754 59.011 330.508 60.1699 329.4 61.6C327.525 62.946 325.975 63.2549 323.7 63.225C323.343 63.2214 322.986 63.2178 322.619 63.2141C322.349 63.2094 322.078 63.2048 321.8 63.2C321.695 62.9155 321.59 62.631 321.482 62.3378C321.006 61.0496 320.528 59.7623 320.05 58.475C319.885 58.0272 319.72 57.5794 319.55 57.118C319.39 56.6887 319.23 56.2595 319.066 55.8172C318.919 55.4213 318.772 55.0254 318.621 54.6175C318.21 53.5306 318.21 53.5306 317.4 52.4C318.999 51.2243 319.889 51.0184 321.8 51.6Z" fill="#2F388D"/>
<path d="M257.8 53.2001C258.112 53.446 258.112 53.446 258.43 53.6969C261.34 55.9454 263.306 56.7171 267 56.4001C268.138 56.2239 269.269 56.0135 270.4 55.8001C277.373 54.492 277.373 54.492 280.2 56.4001C280.464 56.7961 280.728 57.1921 281 57.6001C280.763 57.7212 280.527 57.8424 280.283 57.9673C278.342 58.9964 276.882 59.9838 275.4 61.6001C275.004 61.7981 275.004 61.7981 274.6 62.0001C274.78 60.1308 275.008 59.045 276.2 57.6001C275.961 57.6439 275.723 57.6877 275.477 57.7329C274.722 57.8708 273.967 58.007 273.213 58.1423C272.194 58.3282 271.178 58.5211 270.163 58.7204C261.686 60.3512 261.686 60.3512 259.094 59.0407C258.2 58.4001 258.2 58.4001 257.8 57.6001C257.772 56.8506 257.766 56.1001 257.775 55.3501C257.779 54.9489 257.782 54.5478 257.786 54.1344C257.791 53.8261 257.795 53.5178 257.8 53.2001Z" fill="#2C368F"/>
<path d="M285.525 51.1999C285.82 51.2082 286.116 51.2164 286.42 51.2249C287.583 51.67 287.687 52.0045 288.348 53.0187C289.229 54.1136 289.643 54.3736 291.051 54.6101C292.606 54.6324 294.148 54.5866 295.7 54.4999C303.763 54.1313 303.763 54.1313 306.875 56.3749C307.4 57.1999 307.4 57.1999 307.3 58.0999C307.152 58.4464 307.152 58.4464 307 58.7999C306.765 58.5277 306.765 58.5277 306.525 58.2499C304.679 56.5948 302.564 56.6386 300.206 56.6655C297.922 56.8023 295.689 57.3234 293.462 57.8306C291.39 58.2932 289.527 58.551 287.4 58.3999C286.313 57.3131 286.312 56.3182 286.064 54.8374C285.85 53.8519 285.85 53.8519 284.6 53.1999C283.78 53.0194 283.78 53.0194 282.925 52.9499C282.422 52.9004 281.919 52.8509 281.4 52.7999C282.645 51.4359 283.695 51.0988 285.525 51.1999Z" fill="#30398F"/>
<path d="M315 51.6C315.862 52.3348 316.169 52.9173 316.294 54.0431C316.318 55.0647 316.304 56.0785 316.275 57.1C316.27 57.4553 316.264 57.8106 316.259 58.1766C316.244 59.0513 316.225 59.9255 316.2 60.8C316.728 60.8 317.256 60.8 317.8 60.8C317.675 61.55 317.675 61.55 317.4 62.4C316.114 63.2572 315.33 63.3201 313.814 63.3844C312.534 63.0944 312.146 62.6886 311.4 61.6C311.166 60.2604 311.158 58.9325 311.15 57.575C311.14 56.8536 311.126 56.1322 311.109 55.411C311.107 55.0923 311.105 54.7736 311.102 54.4452C311.05 53.4794 311.05 53.4794 310.2 52.4C311.896 51.1152 312.956 51.0323 315 51.6Z" fill="#2D378D"/>
<path d="M261.775 45.4999C262.6 45.9999 262.6 45.9999 262.925 46.8499C262.95 47.0974 262.975 47.3449 263 47.5999C262.472 47.4679 261.944 47.3359 261.4 47.1999C261.4 46.9359 261.4 46.6719 261.4 46.3999C258.272 46.633 255.918 47.9081 253.284 49.4897C250.014 51.4454 247.214 51.9638 243.4 51.5999C241.236 51.055 239.045 50.3654 237.4 48.7999C237.189 47.6954 237.326 46.7345 237.4 45.5999C239.015 46.3736 240.507 47.3177 242.025 48.264C242.923 48.7577 243.6 49.02 244.6 49.1999C244.866 49.2499 245.132 49.3 245.406 49.3515C248.553 49.61 250.829 48.2368 253.506 46.778C256.261 45.2953 258.692 44.7127 261.775 45.4999Z" fill="#373A8B"/>
<path d="M285.8 33.6001C285.461 33.7893 285.121 33.9785 284.772 34.1735C282.214 35.6125 279.719 37.099 277.275 38.7251C275.269 40.0469 273.357 41.0752 271 41.6001C270.546 41.7027 270.546 41.7027 270.083 41.8075C268.995 42.001 267.992 42.0503 266.888 42.0563C260.262 42.1603 255.812 43.1139 250.2 46.8001C251.067 44.1903 252.777 43.5175 255.127 42.3329C257.865 41.0495 260.423 40.7697 263.418 40.5624C269.293 40.1374 273.883 38.9987 278.928 35.961C283.921 32.9738 283.921 32.9738 285.8 33.6001Z" fill="#E83748"/>
<path d="M283.8 40C284.6 41.2 284.6 41.2 285.1 42.2C286.016 43.5087 286.697 43.8534 288.2 44.4C289.531 44.6049 290.856 44.723 292.2 44.8C291.091 45.9089 290.124 46.0558 288.6 46.4C288.088 46.367 287.577 46.334 287.05 46.3C284.871 46.2494 283.402 47.4299 281.8 48.8C281 49.6346 280.252 50.4857 279.525 51.3844C279.352 51.5875 279.178 51.7907 279 52C278.868 52 278.736 52 278.6 52C278.657 48.9421 279.898 47.1386 281.8 44.8C282.018 44.602 282.236 44.404 282.461 44.2C283.168 43.4133 283.281 42.7565 283.475 41.725C283.538 41.4017 283.602 41.0784 283.667 40.7453C283.711 40.4994 283.755 40.2534 283.8 40Z" fill="#353A8D"/>
<path d="M327.378 46.6859C328.643 47.4773 329.356 48.3747 330.2 49.6C330.2 49.732 330.2 49.864 330.2 50C328.612 50.0098 327.025 50.0171 325.437 50.0219C324.896 50.024 324.356 50.0267 323.815 50.0301C323.04 50.035 322.264 50.037 321.489 50.039C320.788 50.0422 320.788 50.0422 320.074 50.0454C319 50 319 50 318.6 49.6C318.475 48.45 318.475 48.45 318.6 47.2C321.091 44.7091 324.493 45.2935 327.378 46.6859Z" fill="#2F388D"/>
<path d="M295.8 38C296.085 38.1155 296.37 38.231 296.664 38.35C298.966 39.262 301.297 40.1041 303.65 40.875C304.6 41.2 304.6 41.2 305 41.6C304.832 43.701 304.423 45.3741 303.4 47.2C302.425 47.675 302.425 47.675 301.4 47.6C300.867 47.0667 300.333 46.5333 299.8 46C299.421 46 299.041 46 298.65 46C296.974 46 296.291 45.4385 295 44.4C294.05 43.3 294.05 43.3 293.4 42.4C294.54 42.8492 295.645 43.3178 296.75 43.85C298.278 44.4296 299.381 44.4991 301 44.4C301.132 44.928 301.264 45.456 301.4 46C302.05 45.5516 302.05 45.5516 302.6 44.8C302.624 44.0004 302.626 43.1996 302.6 42.4C302.176 42.1829 301.752 41.9658 301.316 41.7422C300.76 41.4533 300.205 41.1642 299.65 40.875C299.371 40.7324 299.091 40.5899 298.803 40.443C298.535 40.3025 298.267 40.162 297.991 40.0172C297.62 39.8255 297.62 39.8255 297.242 39.63C296.6 39.2 296.6 39.2 295.8 38Z" fill="#373F91"/>
<path d="M261.4 46.4C261.4 46.532 261.4 46.664 261.4 46.8C260.707 46.9361 260.707 46.9361 260 47.075C257.713 47.6499 255.999 48.9077 254.083 50.2359C253.775 50.4468 253.467 50.6577 253.15 50.875C252.873 51.0704 252.595 51.2658 252.309 51.4672C249.185 53.298 245.466 53.2926 242.011 52.4688C240.325 51.9196 238.88 51.3864 237.4 50.4C237.4 49.872 237.4 49.344 237.4 48.8C237.623 48.9145 237.847 49.0289 238.077 49.1469C241.907 51.0267 245.635 52.0667 249.856 50.8328C252.236 49.89 254.42 48.6675 256.577 47.2938C258.193 46.3244 259.554 46.3652 261.4 46.4Z" fill="#E73B4C"/>
<path d="M283.8 43.6C283.932 43.996 284.064 44.392 284.2 44.8C283.928 44.9815 283.655 45.163 283.375 45.35C281.984 46.5927 281.053 47.9595 280.02 49.5031C279.4 50.4 279.4 50.4 278.6 51.2C278.8 49.3448 279.248 48.2248 280.35 46.725C280.592 46.3893 280.835 46.0536 281.084 45.7078C282.746 43.6 282.746 43.6 283.8 43.6Z" fill="#E53A4D"/>
<path d="M254.2 42.7999C254.464 42.9319 254.728 43.0639 255 43.1999C253.612 44.7614 251.979 45.7463 250.2 46.7999C250.571 45.1748 251.247 44.525 252.6 43.6499C253.45 43.1281 253.45 43.1281 254.2 42.7999Z" fill="#DC4051"/>
<path d="M255.8 43.2001C256.6 43.6001 256.6 43.6001 257 44.4001C256.3 44.6594 255.6 44.9175 254.9 45.1751C254.315 45.3909 254.315 45.3909 253.719 45.611C252.814 45.9256 251.933 46.1891 251 46.4001C252.315 44.866 253.901 43.8702 255.8 43.2001Z" fill="#FDEDDC"/>
<path d="M291 34.7999C291.924 34.9319 292.848 35.0639 293.8 35.1999C293.8 35.5959 293.8 35.9919 293.8 36.3999C292.48 36.3999 291.16 36.3999 289.8 36.3999C290.196 35.8719 290.592 35.3439 291 34.7999Z" fill="#373F90"/>
<path d="M290.6 37.2001C291.26 37.2001 291.92 37.2001 292.6 37.2001C292.6 37.7281 292.6 38.2561 292.6 38.8001C292.072 38.8001 291.544 38.8001 291 38.8001C290.868 38.2721 290.736 37.7441 290.6 37.2001Z" fill="#313A91"/>
</g>
</g>
<defs>
<clipPath id="clip0_118_1433">
<rect width="420" height="273" rx="24" fill="white"/>
</clipPath>
<clipPath id="clip1_118_1433">
<rect width="160" height="40" fill="white" transform="translate(235 26)"/>
</clipPath>
</defs>
</svg>
