<svg width="175" height="44" viewBox="0 0 175 44" fill="none" xmlns="http://www.w3.org/2000/svg">
<g clip-path="url(#clip0_0_3)">
<path d="M55.5625 0C56.2844 0.5808 57.0063 1.1616 57.75 1.76C58.0388 1.6148 58.3275 1.4696 58.625 1.32C60.5504 3.0016 61.166 4.16843 61.6875 6.6C62.1567 6.62722 62.626 6.65445 63.1094 6.6825C65.0991 7.11606 65.3953 7.57348 66.5 9.24C68.3628 12.0218 70.3655 12.6686 73.5 13.64C75.7993 14.3621 77.5388 14.9267 78.75 17.16C78.7229 17.6591 78.6959 18.1582 78.668 18.6725C78.587 20.203 78.587 20.203 79.3789 20.9619C79.927 21.4166 80.4868 21.8574 81.0571 22.2836C81.8125 22.88 81.8125 22.88 82.4414 23.925C83.16 24.8405 83.16 24.8405 84.8477 24.7225C85.1539 24.706 85.4601 24.6896 85.7757 24.6727C86.7121 24.6366 87.4871 24.7823 88.375 25.08C88.3299 24.6988 88.2848 24.3177 88.2383 23.925C88.3851 22.3301 88.7722 21.5503 89.8601 20.3827C92.0014 18.6064 94.5659 18.2353 97.2754 18.3236C100.231 18.7214 103.361 19.7852 105.438 22C106.089 23.0046 106.636 24.0126 107.188 25.08C107.945 25.0392 107.945 25.0392 108.719 24.9975C110.186 24.9818 111.207 25.2298 112.547 25.8225C113.088 26.0131 113.63 26.2036 114.188 26.4C115.29 25.9003 115.29 25.9003 115.938 25.08C115.748 24.7142 115.748 24.7142 115.555 24.3409C115.392 24.0222 115.23 23.7034 115.063 23.375C114.9 23.0585 114.738 22.742 114.57 22.4159C114.188 21.56 114.188 21.56 114.188 20.68C113.781 20.6437 113.375 20.6074 112.957 20.57C111.563 20.24 111.563 20.24 110.715 19.525C110.035 17.9973 110.296 17.005 110.688 15.4C111.48 13.3838 112.676 12.6186 114.575 11.7597C116.6 11.0597 118.141 11.3085 120.148 11.935C122.532 13.2666 123.817 15.2453 125.125 17.6C125.775 17.3822 125.775 17.3822 126.438 17.16C129 16.9882 130.699 17.1894 133 18.48C135.021 20.6195 135.242 22.1831 135.188 25.08C135.621 25.08 136.054 25.08 136.5 25.08C136.455 24.5355 136.41 23.991 136.363 23.43C136.358 21.879 136.389 21.6778 137.512 20.4875C139.38 19.3953 140.615 19.3508 142.734 19.4425C145.133 19.5005 145.133 19.5005 147.219 18.48C149.35 16.9856 151.961 17.3421 154.438 17.6C155.588 17.8844 156.689 18.2353 157.811 18.6175C159.433 19.1073 160.628 19.1577 162.313 18.92C163.199 17.8992 163.199 17.8992 163.625 16.72C164.063 16.28 164.063 16.28 165.484 16.1425C167.411 16.304 167.997 16.6436 169.313 18.04C170.16 19.4394 170.607 20.3864 170.707 22.0275C171.135 23.5842 171.48 23.7186 172.813 24.53C173.128 24.7002 173.444 24.8703 173.77 25.0456C174.563 25.52 174.563 25.52 175 26.4C175.055 27.9675 175.055 27.9675 175 29.48C174.856 29.6252 174.711 29.7704 174.563 29.92C174.513 30.7074 174.466 31.4951 174.436 32.2835C174.162 39.3557 174.162 39.3557 171.363 41.965C169.249 43.7397 166.932 44.1098 164.239 44.1132C163.662 44.116 163.085 44.1189 162.491 44.1218C161.854 44.1205 161.216 44.1191 160.579 44.1177C159.9 44.1193 159.221 44.1213 158.541 44.1237C156.676 44.1291 154.811 44.129 152.945 44.1279C150.933 44.1278 148.921 44.1326 146.909 44.1368C142.967 44.1441 139.026 44.1465 135.085 44.147C131.882 44.1474 128.68 44.1492 125.477 44.152C116.401 44.1598 107.324 44.1638 98.2479 44.1632C97.7586 44.1631 97.2693 44.1631 96.7652 44.1631C96.0303 44.163 96.0303 44.163 95.2806 44.163C87.3353 44.1626 79.39 44.171 71.4447 44.1834C63.2898 44.1961 55.1349 44.2021 46.98 44.2014C42.4002 44.2011 37.8205 44.2035 33.2408 44.213C29.3429 44.221 25.4451 44.2229 21.5471 44.2169C19.5576 44.2141 17.5682 44.214 15.5787 44.2216C13.7585 44.2285 11.9384 44.2273 10.1182 44.2196C9.45875 44.2183 8.79929 44.2199 8.13986 44.2248C7.24523 44.231 6.35054 44.2253 5.45591 44.219C4.95845 44.2192 4.46099 44.2194 3.94846 44.2196C2.33034 43.9511 1.60304 43.3773 0.437518 42.24C-0.084829 41.1893 -0.0636891 40.5223 -0.0774202 39.3493C-0.0830356 38.9322 -0.0886511 38.5151 -0.0944366 38.0854C-0.0976684 37.6334 -0.1009 37.1815 -0.10423 36.7159C-0.107761 36.2526 -0.111293 35.7892 -0.114931 35.3118C-0.120989 34.3302 -0.125679 33.3485 -0.129117 32.3669C-0.136655 30.8641 -0.155854 29.3618 -0.175153 27.8592C-0.179583 26.9065 -0.183309 25.9537 -0.186261 25.0009C-0.193921 24.5508 -0.201581 24.1007 -0.209473 23.6369C-0.199999 20.5291 -0.199999 20.5291 0.807086 19.0735C2.09844 18.2607 2.87341 18.2833 4.37502 18.48C5.57643 18.9458 5.57643 18.9458 6.75392 19.5525C9.38181 20.8194 9.38181 20.8194 12.25 21.12C13.8787 20.3116 15.0929 19.1467 16.3516 17.8475C19.2309 15.0206 22.4478 13.5351 26.25 12.32C25.9613 11.4488 25.6725 10.5776 25.375 9.68C26.8188 9.68 28.2625 9.68 29.75 9.68C29.4703 9.25347 29.1906 8.82695 28.9024 8.3875C27.8322 6.53164 27.6579 4.75412 27.5625 2.64C28.0777 2.8629 28.0777 2.8629 28.6033 3.09031C34.0087 5.51268 34.0087 5.51268 39.8125 5.72C40.5155 5.38344 41.2077 5.02353 41.8906 4.6475C45.3199 2.89594 49.1826 3.15832 52.9462 3.13543C53.8458 3.13466 53.8458 3.13466 54.6875 2.64C55.0056 1.76929 55.2992 0.889 55.5625 0Z" fill="#FBCF09"/>
<path d="M56.875 7.03998C57.0916 7.69338 57.0916 7.69338 57.3125 8.35998C57.1681 8.65038 57.0238 8.94078 56.875 9.23998C56.5863 9.23998 56.2975 9.23998 56 9.23998C56 9.96598 56 10.692 56 11.44C56.1714 11.2313 56.3429 11.0225 56.5195 10.8075C57.5222 9.93817 58.1828 9.74621 59.5 9.67998C59.9375 10.12 60.375 10.56 60.8125 11C61.2276 11 61.6427 11 62.0703 11C63.6657 11 64.3707 11.3554 65.625 12.32C65.625 12.6104 65.625 12.9008 65.625 13.2C65.8786 13.3255 66.1323 13.4511 66.3936 13.5805C67.3024 14.043 68.1903 14.5287 69.0771 15.0322C69.5424 15.2959 69.5424 15.2959 70.0171 15.565C70.3363 15.7465 70.6555 15.928 70.9844 16.115C71.3103 16.2999 71.6363 16.4848 71.9722 16.6753C72.7733 17.1298 73.5742 17.5848 74.375 18.04C74.4844 20.515 74.4844 20.515 73.5 22C73.2113 22 72.9225 22 72.625 22C72.3363 21.5644 72.0475 21.1288 71.75 20.68C70.9057 20.4891 70.9057 20.4891 69.9453 20.4875C67.7241 20.3209 66.2422 19.5738 64.3125 18.48C64.8037 18.9119 65.2961 19.3425 65.7891 19.7725C66.0631 20.0124 66.3372 20.2523 66.6196 20.4995C68.1519 21.7581 69.3747 21.5961 71.3125 21.56C71.4569 22.1408 71.6012 22.7216 71.75 23.32C70.775 23.3558 69.7996 23.3813 68.8242 23.4025C68.0096 23.4254 68.0096 23.4254 67.1785 23.4489C65.5302 23.3121 64.7378 23.002 63.4375 22C63.2931 21.7096 63.1488 21.4192 63 21.12C61.9846 20.9972 61.9846 20.9972 60.7852 20.9825C58.2815 20.7958 56.5735 20.1582 54.6875 18.48C53.8125 17.2425 53.8125 17.2425 53.375 16.28C53.366 16.7156 53.357 17.1512 53.3477 17.6C53.0791 19.5738 51.9732 20.5737 50.656 21.9828C48.6695 24.2648 48.05 26.5029 47.6875 29.48C48.3676 29.457 48.3676 29.457 49.0615 29.4336C49.6608 29.4212 50.2601 29.4092 50.8594 29.3975C51.1577 29.3864 51.4561 29.3754 51.7634 29.364C53.1087 29.3443 54.0954 29.4011 55.3044 30.0179C56.1421 30.9598 56.3169 31.5959 56.5195 32.835C56.661 34.1444 56.661 34.1444 57.3125 35.2C60.0311 35.3483 62.4091 34.9245 65.0508 34.32C73.5638 32.5112 73.5638 32.5112 77.3281 34.2375C78.75 35.2 78.75 35.2 79.1875 36.52C77.875 36.52 77.875 36.52 76.5625 35.64C72.9125 35.2299 69.3722 35.8856 65.8164 36.6575C65.3587 36.7513 64.9011 36.8452 64.4296 36.9419C61.7891 37.4941 59.2123 38.1467 56.6376 38.9558C55.3979 39.1912 54.5775 39.0878 53.375 38.72C52.5684 37.8726 52.5684 37.8726 51.8438 36.8225C50.4115 34.8529 49.1705 33.3505 46.8125 32.56C44.05 32.2603 41.4223 32.7038 38.7188 33.22C30.8729 34.6907 30.8729 34.6907 27.125 32.12C26.0312 31.13 26.0312 31.13 25.375 30.36C25.3395 31.0654 25.3141 31.7714 25.293 32.4775C25.2777 32.8705 25.2625 33.2636 25.2468 33.6686C25.2815 34.7793 25.2815 34.7793 25.9817 35.5351C28.1435 37.2039 31.1536 36.7319 33.7309 36.4027C36.5578 35.9686 39.3584 35.4511 42.1162 34.6878C43.6392 34.3449 44.1009 34.3201 45.5 34.76C45.2113 35.1411 44.9225 35.5223 44.625 35.915C43.6945 37.4942 43.5803 38.2478 43.75 40.04C42.2279 39.4277 41.7898 38.8817 41.125 37.4C40.6451 37.5537 40.1651 37.7074 39.6707 37.8658C39.0344 38.0681 38.398 38.2703 37.7617 38.4725C37.4462 38.5737 37.1306 38.675 36.8055 38.7793C32.9699 39.9947 29.1607 40.8496 25.3101 39.2064C23.2648 37.9783 22.0067 36.127 21.1367 33.935C20.9472 33.4812 20.7577 33.0275 20.5625 32.56C19.2525 32.1208 18.127 32.0441 16.7564 31.9923C12.0835 31.8143 7.40829 31.4198 3.5 28.6C2.98389 27.6633 2.98389 27.6633 2.625 26.84C3.02767 26.9988 3.43034 27.1576 3.84521 27.3212C8.40951 29.0384 12.8661 30.0554 17.6367 28.3525C19.5511 27.4673 21.1145 26.2488 22.738 24.9115C24.7113 23.3285 26.3448 22.6034 28.875 22.88C29.9141 23.32 29.9141 23.32 30.625 23.76C29.8527 22.4366 29.2219 21.356 27.9453 20.4875C24.7556 19.8598 22.0045 20.6361 19.168 22.1134C18.9063 22.2212 18.6446 22.3289 18.375 22.44C17.9419 22.2222 17.9419 22.2222 17.5 22C18.1252 21.5908 18.7551 21.1891 19.3867 20.79C19.7369 20.5654 20.0872 20.3408 20.448 20.1094C24.2695 18.1025 27.6182 17.3656 31.9102 17.3525C39.7493 17.1563 44.6038 15.0223 50.9534 10.4328C52.8429 9.15031 54.8536 8.09511 56.875 7.03998Z" fill="#FCFBFB"/>
<path d="M56.875 3.52003C57.0645 3.81043 57.254 4.10083 57.4492 4.40003C57.6929 4.69043 57.9365 4.98083 58.1875 5.28003C58.6206 5.28003 59.0537 5.28003 59.5 5.28003C60.3678 6.56355 60.3696 7.09451 60.2109 8.69004C60.1207 9.16194 60.0305 9.63384 59.9375 10.12C59.5405 10.1563 59.1434 10.1926 58.7344 10.23C57.1372 10.6007 56.5977 11.0787 55.5625 12.32C55.7069 11.3036 55.8512 10.2872 56 9.24004C56.2887 9.24004 56.5775 9.24004 56.875 9.24004C56.875 8.65924 56.875 8.07843 56.875 7.48004C52.8018 8.70896 49.1065 10.5068 45.5273 12.815C40.9835 15.5598 36.3878 16.0782 31.198 16.4197C27.7614 16.6501 24.4396 16.8944 21.4648 18.7825C20.4958 19.3927 20.4958 19.3927 19.6875 19.8C19.3988 19.6548 19.11 19.5096 18.8125 19.36C22.4885 15.8273 26.4916 14.2928 31.5 13.64C31.0669 13.3496 30.6337 13.0592 30.1875 12.76C29.7418 12.3284 29.3022 11.8901 28.875 11.44C29.4254 11.4287 29.9759 11.4173 30.543 11.4057C35.46 11.2577 39.9132 10.663 44.625 9.24004C44.2725 9.3098 43.92 9.37956 43.5569 9.45144C41.7235 9.72063 39.9401 9.79437 38.0898 9.81754C37.7517 9.8303 37.4137 9.84306 37.0653 9.85621C34.1898 9.88799 32.3809 9.11763 30.2148 7.15003C30.0614 6.96853 29.908 6.78703 29.75 6.60003C29.8944 6.30963 30.0387 6.01923 30.1875 5.72003C30.4007 5.84708 30.6139 5.97413 30.8335 6.10504C33.9041 7.72212 36.8321 7.9399 40.25 7.48004C41.4515 7.01475 41.4515 7.01475 42.6016 6.40754C45.747 4.86473 49.0244 5.01088 52.4562 5.00085C53.1225 4.99441 53.1225 4.99441 53.8022 4.98785C54.2041 4.99033 54.606 4.99281 55.0201 4.99537C55.3435 4.94411 55.6668 4.89285 56 4.84003C56.2887 4.40443 56.5775 3.96883 56.875 3.52003Z" fill="#32398D"/>
<path d="M118.595 14.7022C120.034 15.1427 120.45 15.8627 121.187 17.16C122.937 21.0467 122.937 21.0467 122.937 22.44C123.191 22.2812 123.445 22.1224 123.707 21.9588C127.267 19.8317 127.267 19.8317 129.5 20.24C130.73 20.7075 130.73 20.7075 131.687 21.56C132.18 22.9625 132.18 22.9625 132.125 24.64C131.648 25.3853 131.648 25.3853 131.04 26.1697C129.512 28.5231 129.661 30.7899 129.746 33.5225C129.749 33.9919 129.751 34.4612 129.754 34.9448C129.79 37.2809 129.927 38.6948 130.812 40.92C128.358 40.92 125.904 40.92 123.375 40.92C123.519 40.3392 123.664 39.7584 123.812 39.16C123.837 38.3526 123.84 37.5443 123.828 36.7366C123.834 27.9485 123.834 27.9485 126.027 25.2725C127 24.3358 127 24.3358 127.75 23.76C126.634 24.4249 125.55 25.0887 124.496 25.85C123.375 26.4 123.375 26.4 122.062 26.4275C119.068 25.3608 117.956 22.276 116.648 19.5749C115.835 18.3218 115.065 17.8281 113.75 17.16C114.79 14.7461 115.997 14.2723 118.595 14.7022Z" fill="#30388D"/>
<path d="M165.375 19.36C166.688 19.8 166.688 19.8 167.562 21.12C167.754 22.605 167.754 22.605 167.562 24.2C166.369 25.6528 165.403 26.6852 163.528 27.0067C159.028 27.2993 155.678 25.3834 151.812 23.32C151.998 23.5014 152.183 23.6827 152.374 23.8696C154.9 26.7069 154.814 29.4341 154.793 33.11C154.804 34.2123 154.815 35.3146 154.829 36.4169C154.828 36.9014 154.828 37.3859 154.827 37.8851C154.835 39.2559 154.835 39.2559 155.312 40.92C152.858 40.92 150.404 40.92 147.875 40.92C148.164 40.3392 148.452 39.7584 148.75 39.16C148.938 37.194 148.892 35.2217 148.887 33.2475C148.894 32.7073 148.901 32.167 148.908 31.6104C148.908 31.0894 148.909 30.5685 148.909 30.0317C148.91 29.5568 148.912 29.0818 148.913 28.5924C148.729 27.1115 148.243 26.3151 147.438 25.08C147.219 23.7325 147.219 23.7325 147.438 22.44C148.35 21.3146 149.053 20.7808 150.493 20.527C152.351 20.4508 153.885 20.7401 155.641 21.34C158.253 22.2104 160.896 22.2964 163.625 22C164.992 21.2807 164.992 21.2807 165.238 20.185C165.283 19.9128 165.329 19.6405 165.375 19.36Z" fill="#2E388D"/>
<path d="M144.375 22.44C145.496 23.1 145.496 23.1 146.125 24.2C146.406 26.3922 146.362 27.2825 145.305 29.2325C144.375 30.36 144.375 30.36 143.5 30.8C143.861 31.0722 144.222 31.3445 144.594 31.625C145.723 32.7542 145.869 33.6157 145.906 35.2C145.805 36.9969 145.614 38.2296 144.375 39.6C141.525 41.3104 138.861 41.2602 135.625 40.92C133.918 40.3992 132.877 39.66 131.906 38.115C131.422 35.5578 132.396 33.5162 133.438 31.24C132.86 31.24 132.283 31.24 131.688 31.24C132.453 29.095 132.453 29.095 133.438 28.6C136.499 28.4014 136.499 28.4014 138.031 29.095C138.688 29.92 138.688 29.92 138.852 31.24C138.688 32.56 138.688 32.56 137.812 33.88C137.778 34.9061 137.774 35.934 137.812 36.96C138.534 36.96 139.256 36.96 140 36.96C140.144 35.508 140.289 34.056 140.438 32.56C140.149 32.56 139.86 32.56 139.562 32.56C139.48 31.075 139.48 31.075 139.562 29.48C139.996 29.1896 140.429 28.8992 140.875 28.6C141.084 27.6617 141.084 27.6617 141.039 26.62C141.042 26.2706 141.046 25.9212 141.049 25.5612C140.963 25.1052 140.963 25.1052 140.875 24.64C140.442 24.3496 140.009 24.0592 139.562 23.76C139.562 23.4696 139.562 23.1792 139.562 22.88C141.079 22.1176 142.717 22.2357 144.375 22.44Z" fill="#2F388D"/>
<path d="M170.187 26.4C170.621 26.6904 171.054 26.9808 171.5 27.28C171.429 27.5267 171.358 27.7735 171.284 28.0277C171.049 29.1034 171.014 30.0552 171.016 31.1558C171.01 31.5571 171.003 31.9583 170.997 32.3718C170.986 33.2105 170.984 34.0493 170.99 34.888C170.921 37.8772 170.921 37.8772 170.063 39.045C167.987 40.8416 166.134 41.0075 163.488 41.0575C162.921 41.0739 162.355 41.0904 161.771 41.1073C159.767 40.8793 158.49 40.1554 157.062 38.72C156.905 35.4382 156.905 35.4382 157.937 33.88C157.649 33.5896 157.36 33.2992 157.062 33C156.77 30.3004 156.77 30.3004 157.719 29.0675C159.271 28.404 160.652 28.2818 162.312 28.6C163.406 29.425 163.406 29.425 164.062 30.36C164.062 30.6504 164.062 30.9408 164.062 31.24C163.485 31.3852 162.907 31.5304 162.312 31.68C162.312 31.9704 162.312 32.2608 162.312 32.56C162.89 32.7052 163.467 32.8504 164.062 33C164.062 33.726 164.062 34.452 164.062 35.2C163.196 35.6356 163.196 35.6356 162.312 36.08C162.312 36.3704 162.312 36.6608 162.312 36.96C163.179 36.96 164.045 36.96 164.937 36.96C164.944 36.382 164.95 35.8041 164.956 35.2086C164.977 34.4449 164.998 33.6812 165.02 32.9175C165.022 32.5372 165.025 32.1569 165.027 31.7651C165.095 29.7847 165.178 28.8594 166.406 27.2422C167.807 26.2218 168.493 26.1406 170.187 26.4Z" fill="#2E378D"/>
<path d="M109.32 28.4625C109.901 28.4378 109.901 28.4378 110.493 28.4127C111.562 28.6 111.562 28.6 112.354 29.303C113.046 30.7061 113.004 31.7716 112.957 33.33C112.945 33.845 112.933 34.36 112.921 34.8906C112.906 35.2831 112.891 35.6756 112.875 36.08C113.452 36.08 114.03 36.08 114.625 36.08C114.641 35.6875 114.658 35.295 114.675 34.8906C114.703 34.3756 114.732 33.8606 114.762 33.33C114.787 32.8195 114.812 32.3091 114.839 31.7831C115.074 30.2884 115.275 29.6217 116.375 28.6C117.318 28.3817 117.318 28.3817 118.344 28.4075C118.682 28.4081 119.021 28.4086 119.369 28.4092C120.502 28.6383 120.9 29.0384 121.625 29.92C121.336 30.2104 121.047 30.5008 120.75 30.8C120.663 32.1094 120.628 33.3688 120.641 34.6775C120.637 35.0328 120.634 35.3882 120.63 35.7543C120.632 36.2737 120.632 36.2737 120.634 36.8036C120.635 37.1183 120.636 37.433 120.637 37.7572C120.736 38.9621 120.736 38.9621 121.625 40.92C119.604 40.92 117.583 40.92 115.5 40.92C115.356 40.3392 115.211 39.7584 115.062 39.16C114.885 39.3693 114.708 39.5786 114.526 39.7942C113.177 40.9868 111.559 41.0309 109.812 40.92C108.534 40.1434 107.853 39.6183 107.188 38.28C107.156 37.0843 107.147 35.9002 107.16 34.705C107.162 34.3732 107.164 34.0414 107.166 33.6995C107.171 32.8797 107.179 32.0598 107.188 31.24C106.899 31.0948 106.61 30.9496 106.312 30.8C106.798 28.6369 107.108 28.5238 109.32 28.4625Z" fill="#2F388D"/>
<path d="M94.9375 28.16C96.0357 29.0719 96.4996 29.8992 96.9524 31.2451C97.1237 31.745 97.1237 31.745 97.2985 32.2549C97.4127 32.6006 97.5269 32.9463 97.6445 33.3025C97.7638 33.6533 97.8831 34.0041 98.006 34.3655C98.2991 35.2292 98.5875 36.0944 98.875 36.96C99.6674 36.1631 99.4796 34.9303 99.5586 33.8525C99.5953 33.3664 99.6319 32.8803 99.6697 32.3795C99.7094 31.8154 99.7094 31.8154 99.75 31.24C99.1725 31.24 98.595 31.24 98 31.24C98.2509 29.9784 98.3769 29.5409 99.3125 28.6C100.213 28.4676 100.213 28.4676 101.254 28.4625C101.767 28.4514 101.767 28.4514 102.291 28.4401C103.25 28.6 103.25 28.6 104.021 29.052C104.872 30.4159 104.752 31.8264 104.727 33.385C104.732 33.6964 104.737 34.0077 104.742 34.3286C104.731 36.3121 104.462 37.5869 103.25 39.16C101.199 40.6406 99.5034 40.9804 97.0156 40.9475C96.6254 40.9435 96.2351 40.9395 95.833 40.9354C95.5375 40.9303 95.242 40.9252 94.9375 40.92C94.8228 40.607 94.7081 40.294 94.5899 39.9715C94.0695 38.5545 93.5465 37.1385 93.0234 35.7225C92.843 35.2299 92.6625 34.7373 92.4766 34.2297C92.3017 33.7576 92.1269 33.2854 91.9468 32.7989C91.7864 32.3634 91.626 31.9279 91.4608 31.4792C91.0108 30.2837 91.0108 30.2837 90.125 29.04C91.8738 27.7467 92.8473 27.5202 94.9375 28.16Z" fill="#2F388D"/>
<path d="M24.9375 29.92C25.2784 30.1906 25.2784 30.1906 25.6262 30.4666C28.8091 32.9399 30.96 33.7887 35 33.44C36.2446 33.2463 37.4812 33.0148 38.7187 32.78C46.3457 31.3411 46.3457 31.3411 49.4375 33.44C49.7262 33.8756 50.015 34.3112 50.3125 34.76C50.0536 34.8933 49.7948 35.0266 49.5281 35.164C47.405 36.296 45.8079 37.3822 44.1875 39.16C43.7544 39.3778 43.7544 39.3778 43.3125 39.6C43.5091 37.5439 43.7583 36.3494 45.0625 34.76C44.8014 34.8083 44.5403 34.8565 44.2712 34.9061C43.4461 35.0578 42.6206 35.2077 41.7949 35.3565C40.6809 35.5609 39.57 35.7731 38.459 35.9924C29.1872 37.7863 29.1872 37.7863 26.3525 36.3447C25.375 35.64 25.375 35.64 24.9375 34.76C24.9067 33.9356 24.9006 33.11 24.9101 32.285C24.9141 31.8438 24.918 31.4025 24.9221 30.9479C24.9272 30.6087 24.9323 30.2695 24.9375 29.92Z" fill="#2C368F"/>
<path d="M55.2617 27.72C55.5849 27.729 55.908 27.7381 56.241 27.7475C57.5127 28.237 57.6264 28.605 58.3499 29.7206C59.313 30.925 59.7661 31.211 61.3061 31.4711C63.0069 31.4957 64.6933 31.4453 66.3906 31.35C75.2094 30.9445 75.2094 30.9445 78.6133 33.4125C79.1875 34.32 79.1875 34.32 79.0781 35.31C78.9157 35.6911 78.9157 35.6911 78.75 36.08C78.4928 35.7805 78.4928 35.7805 78.2305 35.475C76.2113 33.6543 73.898 33.7025 71.3193 33.7321C68.8208 33.8826 66.3783 34.4558 63.9433 35.0137C61.6761 35.5226 59.6384 35.8061 57.3125 35.64C56.1238 34.4445 56.1221 33.3501 55.8513 31.7212C55.6166 30.6371 55.6166 30.6371 54.25 29.92C53.3535 29.7213 53.3535 29.7213 52.418 29.645C51.8675 29.5905 51.3171 29.5361 50.75 29.48C52.1122 27.9795 53.2601 27.6087 55.2617 27.72Z" fill="#30398F"/>
<path d="M87.5 28.16C88.4423 28.9683 88.7781 29.609 88.915 30.8474C88.9419 31.9712 88.9267 33.0864 88.8945 34.21C88.8886 34.6008 88.8827 34.9916 88.8766 35.3942C88.8612 36.3564 88.8396 37.3181 88.8125 38.28C89.39 38.28 89.9675 38.28 90.5625 38.28C90.4258 39.105 90.4258 39.105 90.125 40.04C88.7187 40.9829 87.8613 41.0521 86.2029 41.1228C84.8024 40.8038 84.3783 40.3575 83.5625 39.16C83.3071 37.6864 83.2975 36.2258 83.2891 34.7325C83.2779 33.939 83.2632 33.1455 83.2446 32.3521C83.242 32.0015 83.2394 31.6509 83.2367 31.2898C83.1795 30.2274 83.1795 30.2274 82.25 29.04C84.1049 27.6267 85.2646 27.5355 87.5 28.16Z" fill="#2D378D"/>
<path d="M29.2852 21.45C30.1875 22 30.1875 22 30.543 22.935C30.57 23.2072 30.5971 23.4795 30.625 23.76C30.0475 23.6148 29.47 23.4696 28.875 23.32C28.875 23.0296 28.875 22.7392 28.875 22.44C25.4534 22.6964 22.8794 24.099 19.9985 25.8387C16.4211 27.99 13.3588 28.5602 9.18751 28.16C6.82103 27.5605 4.42365 26.802 2.62501 25.08C2.39401 23.8649 2.54364 22.808 2.62501 21.56C4.39107 22.411 6.02351 23.4495 7.6836 24.4904C8.66601 25.0335 9.40675 25.3221 10.5 25.52C10.791 25.575 11.082 25.63 11.3818 25.6867C14.8235 25.9711 17.313 24.4605 20.2412 22.8559C23.2547 21.2249 25.9128 20.584 29.2852 21.45Z" fill="#373A8B"/>
<path d="M55.5625 8.36001C55.1914 8.56817 54.8203 8.77633 54.438 8.9908C51.6401 10.5737 48.9113 12.2089 46.2383 13.9975C44.0446 15.4516 41.953 16.5827 39.375 17.16C38.8785 17.273 38.8785 17.273 38.3719 17.3882C37.1815 17.6011 36.0849 17.6553 34.877 17.6619C27.6305 17.7763 22.7626 18.8252 16.625 22.88C17.5733 20.0093 19.4437 19.2692 22.0134 17.9661C25.0082 16.5544 27.8066 16.2466 31.0823 16.0185C37.5085 15.551 42.5285 14.2985 48.0464 10.957C53.5075 7.6711 53.5075 7.6711 55.5625 8.36001Z" fill="#E83748"/>
<path d="M53.375 15.4C54.25 16.72 54.25 16.72 54.7969 17.82C55.7988 19.2595 56.5433 19.6387 58.1875 20.24C59.6429 20.4654 61.0928 20.5953 62.5625 20.68C61.3497 21.8998 60.2923 22.0614 58.625 22.44C58.0655 22.4037 57.5061 22.3674 56.9297 22.33C54.5465 22.2744 52.94 23.5729 51.1875 25.08C50.3123 25.998 49.4944 26.9343 48.6992 27.9228C48.5097 28.1463 48.3202 28.3698 48.125 28.6C47.9806 28.6 47.8363 28.6 47.6875 28.6C47.7494 25.2363 49.1067 23.2524 51.1875 20.68C51.4261 20.4622 51.6646 20.2444 51.9104 20.02C52.6835 19.1546 52.807 18.4322 53.0195 17.2975C53.0889 16.9419 53.1583 16.5862 53.2297 16.2198C53.2777 15.9493 53.3256 15.6787 53.375 15.4Z" fill="#353A8D"/>
<path d="M101.039 22.7545C102.422 23.625 103.202 24.6122 104.125 25.96C104.125 26.1052 104.125 26.2504 104.125 26.4C102.388 26.4108 100.652 26.4188 98.9153 26.4241C98.3241 26.4263 97.7329 26.4293 97.1418 26.4332C96.2937 26.4385 95.4455 26.4407 94.5974 26.4429C93.831 26.4464 93.831 26.4464 93.0492 26.4499C91.875 26.4 91.875 26.4 91.4375 25.96C91.3008 24.695 91.3008 24.695 91.4375 23.32C94.1619 20.58 97.8835 21.2228 101.039 22.7545Z" fill="#2F388D"/>
<path d="M66.5 13.2C66.8119 13.327 67.1237 13.4541 67.4451 13.585C69.9632 14.5882 72.5121 15.5145 75.0859 16.3625C76.125 16.72 76.125 16.72 76.5625 17.16C76.3787 19.4711 75.9308 21.3116 74.8125 23.32C73.7461 23.8425 73.7461 23.8425 72.625 23.76C72.0417 23.1733 71.4583 22.5867 70.875 22C70.4599 22 70.0448 22 69.6172 22C67.7845 22 67.0371 21.3823 65.625 20.24C64.5859 19.03 64.5859 19.03 63.875 18.04C65.1221 18.5341 66.3301 19.0496 67.5391 19.635C69.2105 20.2726 70.4171 20.349 72.1875 20.24C72.3319 20.8208 72.4763 21.4016 72.625 22C73.3359 21.5067 73.3359 21.5067 73.9375 20.68C73.9638 19.8004 73.9659 18.9195 73.9375 18.04C73.4739 17.8012 73.0103 17.5624 72.5327 17.3164C71.9254 16.9986 71.3181 16.6806 70.7109 16.3625C70.4053 16.2057 70.0996 16.0488 69.7847 15.8873C69.4914 15.7327 69.1981 15.5781 68.896 15.4189C68.4905 15.2081 68.4905 15.2081 68.0768 14.993C67.375 14.52 67.375 14.52 66.5 13.2Z" fill="#373F91"/>
<path d="M28.875 22.44C28.875 22.5852 28.875 22.7304 28.875 22.88C28.117 23.0297 28.117 23.0297 27.3438 23.1825C24.8419 23.8149 22.9671 25.1985 20.8718 26.6595C20.5351 26.8915 20.1985 27.1235 19.8516 27.3625C19.5481 27.5775 19.2447 27.7924 18.9321 28.0139C15.5144 30.0278 11.4467 30.0218 7.66821 29.1156C5.82374 28.5116 4.24329 27.925 2.625 26.84C2.625 26.2592 2.625 25.6784 2.625 25.08C2.8692 25.2059 3.11339 25.3318 3.36499 25.4616C7.55499 27.5293 11.6319 28.6733 16.249 27.3161C18.852 26.279 21.241 24.9343 23.5994 23.4231C25.3676 22.3568 26.8563 22.4017 28.875 22.44Z" fill="#E73B4C"/>
<path d="M53.375 19.36C53.5194 19.7956 53.6638 20.2312 53.8125 20.68C53.5147 20.8797 53.217 21.0793 52.9102 21.285C51.3891 22.652 50.3707 24.1554 49.241 25.8535C48.5625 26.84 48.5625 26.84 47.6875 27.72C47.9067 25.6793 48.3961 24.4473 49.6016 22.7975C49.8666 22.4283 50.1317 22.059 50.4048 21.6786C52.2221 19.36 52.2221 19.36 53.375 19.36Z" fill="#E53A4D"/>
<path d="M21 18.48C21.2888 18.6252 21.5775 18.7704 21.875 18.92C20.3569 20.6376 18.5709 21.721 16.625 22.88C17.0313 21.0923 17.7701 20.3776 19.25 19.415C20.1797 18.8409 20.1797 18.8409 21 18.48Z" fill="#DC4051"/>
<path d="M22.75 18.92C23.625 19.36 23.625 19.36 24.0625 20.24C23.2973 20.5253 22.5316 20.8092 21.7656 21.0925C21.1261 21.3299 21.1261 21.3299 20.4736 21.5721C19.4842 21.9181 18.5203 22.2079 17.5 22.44C18.9382 20.7525 20.6725 19.6572 22.75 18.92Z" fill="#FDEDDC"/>
<path d="M61.25 9.67996C62.2606 9.82516 63.2713 9.97036 64.3125 10.12C64.3125 10.5556 64.3125 10.9912 64.3125 11.44C62.8688 11.44 61.425 11.44 59.9375 11.44C60.3706 10.8592 60.8038 10.2784 61.25 9.67996Z" fill="#373F90"/>
<path d="M60.8125 12.32C61.5344 12.32 62.2563 12.32 63 12.32C63 12.9008 63 13.4816 63 14.08C62.4225 14.08 61.845 14.08 61.25 14.08C61.1056 13.4992 60.9613 12.9184 60.8125 12.32Z" fill="#313A91"/>
</g>
<defs>
<clipPath id="clip0_0_3">
<rect width="175" height="44" fill="white"/>
</clipPath>
</defs>
</svg>
