<svg width="12" height="400" viewBox="0 0 12 400" fill="none" xmlns="http://www.w3.org/2000/svg">
<g clip-path="url(#clip0_35_2)">
<mask id="mask0_35_2" style="mask-type:luminance" maskUnits="userSpaceOnUse" x="0" y="0" width="12" height="400">
<path d="M12 0H0V400H12V0Z" fill="white"/>
</mask>
<g mask="url(#mask0_35_2)">
<mask id="mask1_35_2" style="mask-type:luminance" maskUnits="userSpaceOnUse" x="0" y="0" width="12" height="400">
<path d="M12 400V0H0V400H12Z" fill="white"/>
</mask>
<g mask="url(#mask1_35_2)">
<path d="M12 400V0H0V400H12Z" fill="#FFD201"/>
<path d="M12 34V0H0V34H12Z" fill="#F5333F"/>
<path d="M12 58V34H0V58H12Z" fill="#FFD201"/>
<path d="M12 70V58H0V70H12Z" fill="#F5333F"/>
<path d="M12 80V70H0V80H12Z" fill="#10069F"/>
<path d="M12 105V80H0V105H12Z" fill="white"/>
</g>
</g>
</g>
<defs>
<clipPath id="clip0_35_2">
<rect width="12" height="400" fill="white"/>
</clipPath>
</defs>
</svg>
