<svg width="8" height="400" viewBox="0 0 8 400" fill="none" xmlns="http://www.w3.org/2000/svg">
<g clip-path="url(#clip0_15_5)">
<mask id="mask0_15_5" style="mask-type:luminance" maskUnits="userSpaceOnUse" x="0" y="0" width="8" height="400">
<path d="M8 400L8 0L0 0L0 400H8Z" fill="white"/>
</mask>
<g mask="url(#mask0_15_5)">
<path d="M8 400L8 0L0 0L0 400H8Z" fill="#FFD201"/>
<path d="M8 34L8 0L0 0L0 34H8Z" fill="#F5333F"/>
<path d="M8 58L8 34H0L0 58H8Z" fill="#FFD201"/>
<path d="M8 70L8 58H0L0 70H8Z" fill="#F5333F"/>
<path d="M8 80L8 70H0L0 80H8Z" fill="#000F9F"/>
<path d="M8 105L8 80H0L0 105H8Z" fill="white"/>
</g>
</g>
<defs>
<clipPath id="clip0_15_5">
<rect width="8" height="400" fill="white"/>
</clipPath>
</defs>
</svg>
