<svg width="908" height="590" viewBox="0 0 908 590" fill="none" xmlns="http://www.w3.org/2000/svg">
<path d="M622.091 0C631.805 8.10482 637.261 13.5494 640.014 26.0074C642.299 20.1864 642.8 17.8253 643.425 11.6534C660.115 23.1252 664.191 34.9447 665.851 54.8715C689.156 44.0045 698.812 64.7539 709.356 80.6792C724.378 103.355 752.236 102.173 774.835 111.955C803.622 124.417 805.142 146.401 790.687 171.514C789.027 174.438 786.323 185.672 784.236 190.165C781.557 196.048 776.577 200.573 770.471 202.685C757.356 207.272 746.862 199.445 734.732 197.054C730.607 196.242 721.132 197.895 716.39 197.702C700.522 197.054 687.965 191.122 674.241 184.393C641.165 193.94 617.087 185.559 592.335 207.835C618.845 197.215 639.242 202.769 658.11 222.148C665.062 229.285 685.795 224.928 696.051 224.162C714.541 222.634 733.154 223.691 751.357 227.305C806.358 238.641 859.683 280.121 846.083 342.605C847.612 344.296 849.099 346.033 850.521 347.813C862.872 363.167 866.34 377.81 864.228 397.141C892.99 404.077 925.196 433.227 895.784 459.953L895.899 499.384C895.924 518.828 896.244 535.881 884.764 552.926C858.229 592.332 810.944 589.127 769.502 589.111L691.918 589.053L411.848 589.078L170.759 589.07L103.187 589.119C90.2689 589.135 70.6942 589.752 58.5311 587.656C47.0944 585.651 36.5584 580.153 28.3686 571.918C10.5878 553.912 11.504 530.482 11.5287 507.397L11.615 473.817C-14.4666 451.94 8.12652 423.727 32.7757 414.671C52.5896 407.389 68.6932 408.055 87.8299 416.109C82.8195 352.256 147.508 343.948 195.447 355.711C194.88 352.814 194.356 349.908 193.875 346.996C187.735 309.146 198.066 278.137 220.014 247.808C209.746 242.536 191.354 232.07 191.181 219.5C190.977 204.693 186.796 163.182 195.938 151.951C217.268 125.744 258.262 172.021 284.759 165.04C299.275 161.215 308.011 148.074 317.769 138.451C322.733 133.599 328.063 129.137 333.714 125.106C353.147 111.239 378.372 101.205 401.783 96.7696C394.264 89.0881 392.891 84.5294 389.353 74.6339C404.842 77.8094 412.3 76.9013 426.873 72.2958C425.718 71.1863 424.584 70.0563 423.469 68.9058C409.597 54.6463 406.112 41.0813 406.419 21.9303C432.782 35.266 450.151 43.7037 480.146 48.1744C503.147 51.6023 516.493 34.1837 539.198 28.8493C552.61 24.104 566.005 27.1456 579.655 26.2951C607.332 24.57 620.669 34.2577 622.091 0Z" fill="#FED300"/>
<path d="M419.057 41.8036C440.438 52.5506 460.547 63.3288 485.422 61.7896C507.659 60.3325 523.306 45.2545 545.001 41.2719C570.574 36.5793 598.359 45.3292 623.357 38.2747C628.46 36.8332 631.156 30.912 633.005 26.3706C638.009 34.86 639.053 37.4628 641.124 47.097C643.877 43.1095 644.937 40.6177 646.967 36.1807C657.896 51.9901 661.446 64.4687 651.774 81.6267C654.872 81.4443 655.825 81.3983 658.8 80.5592C671.201 69.896 691.532 69.8853 690.406 89.9584C693.52 91.2889 696.627 94.4661 699.256 96.8305C714.911 104.728 728.372 111.623 745.079 117.884C757.2 122.425 788.362 122.863 784.45 141.074C782.831 148.623 777.711 156.27 776.586 164.31C774.424 175.089 768.919 180.11 758.572 182.429C750.034 183.528 746.599 180.986 740.238 175.952L739.499 176.19C721.264 181.917 699.454 182.631 685.097 168.041C682.41 165.308 680.027 160.145 676.879 158.867C657.321 171.409 642.998 172.264 620.768 168.442C594.825 181.394 576.844 199.204 559.784 222.285L558.461 224.123C562.472 227.226 579.63 226.983 583.788 225.092C612.937 202.653 639.02 212.491 654.65 243.866C678.868 241.263 818.209 227.843 804.501 278.357C803.359 281 803.269 281.558 801.329 283.582C799.069 282.978 794.583 278.351 792.462 276.554C782.741 268.301 767.867 268.73 756.091 270.057C719.579 274.172 683.963 283.411 648.388 292.235C637.615 294.906 624.245 299.222 613.438 300.256L612.74 299.938C601.358 294.918 590.396 275.593 581.537 265.861C561.905 272.262 536.06 288.218 529.181 308.472C517.101 303.581 514.825 295.828 514.151 283.92C502.161 288.691 489.999 293.021 477.697 296.902C444.662 307.041 393.096 316.482 368.506 285.191C360.844 276.142 358.955 264.77 353.936 254.437C350.656 247.683 342.952 244.362 335.73 244.215C300.382 243.495 262.543 242.856 230.183 226.821C222.019 222.776 213.648 215.296 210.929 206.369L211.047 190.925C210.963 185.594 209.614 168.81 213.565 165.455C218.003 165.57 230.478 179.691 238.303 184.774C246.704 190.115 255.819 194.241 265.375 197.03C299.626 206.798 324.694 191.028 352.247 174.341C373.169 161.67 412.694 153.585 426.905 180.633L427.797 180.599C415.889 137.839 364.069 153.5 335.7 167.417C330.31 170.295 324.916 173.258 319.379 175.835C318.845 176.302 318.402 176.392 317.702 176.689C317.873 173.879 322.803 166.942 324.694 164.469C325.703 162.772 326.819 161.141 328.036 159.587C362.172 115.201 405.111 109.562 455.994 103.112C437.479 99.9254 427.04 98.968 411.774 87.3565C468.403 92.635 506.048 83.1454 557.746 64.1359C529.239 66.5824 503.139 78.8037 473.358 75.2715C448.129 72.2801 430.791 65.2157 419.057 41.8036Z" fill="#F2F2F1"/>
<path d="M419.057 41.8036C440.438 52.5506 460.546 63.3288 485.422 61.7896C507.659 60.3325 523.306 45.2545 545.001 41.2719C570.574 36.5793 598.359 45.3292 623.357 38.2747C628.46 36.8332 631.156 30.912 633.005 26.3706C638.009 34.86 639.053 37.4628 641.124 47.097C643.877 43.1095 644.937 40.6177 646.967 36.1807C657.896 51.9901 661.446 64.4687 651.774 81.6267C649.136 79.8376 651.601 77.4494 649.021 74.1826C632.865 76.8231 630.638 81.2282 624.023 94.4759L622.79 93.8291C615.903 82.1297 622.658 74.7604 630.975 67.0542C635.125 63.2154 634.434 58.1826 634.196 52.9747C630.531 53.4719 629.298 54.9709 626.069 56.382C610.307 63.2688 593.379 67.2727 578.283 75.7572C556.407 88.0567 536.339 103.38 512.532 112.073C493.689 119.02 471.772 122.858 451.704 123.949C429.118 125.177 405.905 124.287 383.909 130.187C366.768 134.963 350.738 143.079 336.742 154.067C333.919 156.301 326.976 163.62 324.694 164.469C325.703 162.772 326.819 161.141 328.036 159.587C362.171 115.201 405.111 109.562 455.994 103.112C437.479 99.9254 427.04 98.968 411.774 87.3565C468.403 92.635 506.048 83.1454 557.746 64.1359C529.239 66.5824 503.139 78.8037 473.358 75.2715C448.129 72.2801 430.791 65.2157 419.057 41.8036Z" fill="#2C338E"/>
<path d="M546.792 262.018C538.451 264.291 529.979 266.273 521.564 268.283C493.541 274.978 418.928 294.17 395.006 279.112C387.893 274.635 384.785 269.418 383.102 261.287C381.641 254.225 379.866 236.903 383.925 230.648L384.699 230.357C387.377 229.351 395.501 240.445 398.989 243.369C409.505 252.237 422.41 257.794 436.082 259.34C481.042 264.358 549.118 224.109 581.537 265.862C561.905 272.262 536.06 288.218 529.181 308.472C520.52 291.085 532.69 272.213 546.792 262.018Z" fill="#2C338E"/>
<path d="M583.788 225.091C612.937 202.652 639.02 212.491 654.65 243.866C678.868 241.263 818.208 227.843 804.501 278.357C802.685 276.227 800.187 271.958 797.902 269.967C775.057 250.133 723.424 260.163 696.865 265.251C679.353 268.605 662.95 274.246 645.257 275.199C617.629 276.686 634.106 246.207 618.64 232.518C608.967 223.961 595.786 224.565 583.788 225.091Z" fill="#2C338E"/>
<path d="M211.047 190.925C210.963 185.594 209.614 168.81 213.565 165.456C218.003 165.571 230.478 179.691 238.303 184.774C246.704 190.115 255.819 194.242 265.375 197.031C299.626 206.798 324.694 191.028 352.247 174.341C373.169 161.67 412.694 153.585 426.905 180.633C426.669 180.615 426.431 180.597 426.195 180.579C392.898 159.448 362.386 189.02 334.305 204.261C295.465 225.342 244.479 219.268 211.047 190.925Z" fill="#2C338E"/>
<path d="M324.695 164.469C326.976 163.62 333.919 156.301 336.742 154.067C350.738 143.078 366.768 134.963 383.91 130.187C405.905 124.287 429.118 125.177 451.704 123.949C471.772 122.858 493.689 119.02 512.532 112.073C536.339 103.38 556.407 88.0566 578.283 75.7572C593.379 67.2727 610.308 63.2688 626.069 56.3819C629.299 54.9708 630.531 53.4718 634.197 52.9746C625.412 62.4815 596.962 74.0305 584.635 81.8157C562.842 95.5837 540.465 115.074 516.674 124.469C484.198 137.291 447.357 133.242 413.632 134.455C389.684 135.316 351.937 151.905 332.417 165.846C327.776 169.04 323.498 171.917 319.379 175.835C318.845 176.302 318.402 176.392 317.702 176.689C317.873 173.879 322.803 166.942 324.695 164.469Z" fill="#F03843"/>
<path d="M605.738 117.671C616.61 156.185 641.518 159.036 676.879 158.866C657.321 171.409 642.997 172.264 620.768 168.441C594.825 181.393 576.844 199.204 559.784 222.285L558.461 224.123C558.634 221.859 558.864 219.599 559.143 217.346C562.66 190.438 579.95 163.485 601.226 146.939C597.766 133.954 599.106 129.115 605.738 117.671Z" fill="#2C338E"/>
<path d="M558.461 224.123C558.634 221.859 558.864 219.599 559.143 217.346C562.66 190.438 579.95 163.485 601.226 146.939C602.927 150.262 604.612 153.638 606.445 156.89C592.244 169.451 559.85 202.529 559.784 222.285L558.461 224.123Z" fill="#F03843"/>
<path d="M699.256 96.8306C714.911 104.728 728.372 111.623 745.079 117.884C757.2 122.425 788.362 122.863 784.45 141.074C782.831 148.623 777.711 156.271 776.586 164.31C774.424 175.09 768.919 180.11 758.572 182.429C748.013 179.536 745.818 176.141 742.967 166.04C716.703 174.746 699.298 157.009 685.007 137.041C702.404 148.338 730.057 164.568 750.527 154.691C751.25 160.08 751.226 165.468 756.756 167.724C766.642 165.311 766.404 148.104 767.3 139.783C765.894 136.575 728.323 119.198 721.14 114.093C713.251 108.486 707.17 104.863 699.256 96.8306Z" fill="#2C338E"/>
<path d="M211.046 190.925C244.479 219.268 295.464 225.342 334.305 204.261C362.386 189.02 392.897 159.448 426.194 180.579C426.431 180.597 426.668 180.615 426.905 180.633L427.797 180.599L429.097 184.542L428.322 185.005C417.652 177.825 410.117 174.857 396.961 177.51C374.491 182.042 360.887 198.661 343.31 210.37C304.653 236.121 249.782 228.731 210.929 206.369L211.046 190.925Z" fill="#F03843"/>
<path d="M658.8 80.5592C671.2 69.896 691.531 69.8853 690.405 89.9584C688.852 89.6346 689.049 89.5688 687.726 88.6623C676.854 81.238 668.431 84.591 656.893 86.9135C656.376 84.5195 657.633 82.8898 658.8 80.5592Z" fill="#2C338E"/>
<path d="M666.097 92.5219C685.992 90.5282 686.674 107.84 670.888 109.289C663.895 106.017 664.207 103.063 665.497 96.3097L664.437 96.0238L660.024 98.7744L659.712 97.8951C661.544 95.3918 663.541 94.2946 666.097 92.5219Z" fill="#2C338E"/>
<path d="M356.997 312.954C392.137 310.604 398.624 344.525 408.733 370.005C411.479 376.927 414.715 383.308 418.175 389.902C437.471 372.977 472.24 350.792 495.858 381.244C513.633 404.166 479.874 426.275 478.255 443.262C475.626 470.793 476.595 511.794 478.411 540.525C478.847 546.064 483.638 554.249 486.399 558.539L432.392 558.564L416.914 558.58C435.589 530.728 420.696 476.439 427.708 443.796C431.645 425.461 449.994 418.772 458.59 404.326C459.667 402.512 458.64 400.808 457.859 399.312C447.011 392.091 431.988 420.793 413.792 422.338C362.918 426.645 371.655 330.489 324.267 338.692C330.594 321.183 338.665 314.929 356.997 312.954Z" fill="#2C338E"/>
<path d="M819.45 357.267C827.906 361.328 835.179 372.693 836.707 381.929C838.301 391.81 835.877 401.917 829.985 410.003C823.222 419.256 812.605 424.779 801.56 427.113C752.582 437.484 704.828 392.484 691.138 395.7C688.927 396.219 688.327 396.967 687.053 398.762C688.746 408.03 709.061 412.197 711.592 430.335C712.89 439.638 712.611 445.382 712.561 455.318L712.413 504.142C712.381 523.414 710.145 542.185 722.069 558.547L702.758 558.564L652.555 558.572C654.856 555.054 660.148 545.102 660.452 540.155C662.581 506.008 661.841 468.673 660.904 434.394C659.844 429.315 655.415 421.081 652.292 417.333C641.124 403.91 643.507 384.535 659.253 375.233C687.727 358.413 722.053 378.368 750.938 384.649C779.38 390.832 811.865 391.85 819.45 357.267Z" fill="#2C338E"/>
<path d="M592.433 385.151C648.372 380.346 645.413 445.062 602.632 467.012C622.478 472.872 628.016 482.233 629.644 502.458C633.481 550.378 599.451 562.968 557.393 561.612C535.887 560.922 506.985 553.148 500.32 528.025C497.009 515.541 499.203 503.83 505.761 492.661C509.031 487.846 518.786 481.715 515.721 474.376C512.055 465.369 490.13 472.132 501.865 456.041C522.204 428.165 581.594 446.023 558.626 485.117C554.18 492.686 547.647 507.561 549.808 516.429C554.508 535.741 581.948 531.953 579.671 510.224C578.989 502.729 581.101 492.867 578.874 485.01C577.773 481.148 575.119 480.4 571.922 478.526C570.747 474.023 571.363 459.468 571.429 454.019C587.297 447.65 593.37 435.043 589.672 417.925C587.281 406.854 579.827 400.427 570.467 394.692C578.488 388.693 582.753 387.377 592.433 385.151Z" fill="#2C338E"/>
<path d="M846.354 423.858C847.669 423.768 848.984 423.719 850.299 423.694C862.79 423.546 871.04 428.625 879.562 437.041C864.902 443.886 868.608 454.554 867.991 467.341C867.161 484.665 870.58 511.514 866.183 527.515C854.457 565.508 798.305 565.656 766.683 557.355C746.705 552.104 730.179 534.525 736.655 512.837C739.071 504.734 745.818 500.888 752.951 497.239C746.04 493.598 743.698 492.242 739.071 486.046C723.654 455.753 761.119 433.367 787.071 445.859C793.571 448.982 807.27 459.032 802.11 467.21C794.459 467.16 776.938 469.848 786.479 480.975C790.761 485.964 797.319 485.766 803.383 486.087L803.359 507.947C769.649 510.503 788.106 534.689 808.454 527.794C821.668 523.307 817.345 500.025 817.953 489.029C819.457 461.432 808.544 428.707 846.354 423.858Z" fill="#2C338E"/>
<path d="M281.187 441.947C283.058 441.832 284.931 441.766 286.806 441.75C295.165 441.766 303.873 443.796 309.884 450.091C323.315 464.169 313.976 486.293 314.072 503.436C314.101 508.572 314.45 514.867 318.358 518.746C320.105 520.48 323.232 521.228 325.652 521.023C353.972 518.681 328.719 467.58 348.332 450.494C356.35 443.509 362.541 441.774 372.495 441.627C385.389 441.437 393.212 446.705 401.706 455.088C387.297 461.556 390.365 479.085 390.479 492.547L390.61 526.578C390.696 539.719 392.459 547.855 400.016 558.556L343.318 558.572L343.308 538.618C337.868 545.193 333 550.543 325.192 554.372C314.045 559.838 300.569 561.432 288.733 557.249C242.953 541.067 278.279 488.643 269.24 471.927C266.992 467.777 263.167 467.884 259.225 466.602C256.803 465.821 256.393 465.632 255.154 463.413C255.483 449.475 269.47 443.755 281.187 441.947Z" fill="#2C338E"/>
<path d="M127.452 437.78C160.018 436.342 161.863 457.569 169.902 483.72C174.37 498.595 179 513.421 183.79 528.197C197.875 515.771 194.763 504.791 195.086 486.876C195.379 470.678 194.315 466.84 177.701 466.363C181.601 449.565 192.154 441.223 209.317 441.478C233.631 441.848 241.469 454.866 241.145 476.471L241.222 493.253C241.136 560.289 204.053 558.695 149.5 558.596L125.823 494.141C121.213 481.616 114.83 457.241 103.748 450.863C111.576 442.76 116.509 439.859 127.452 437.78Z" fill="#2C338E"/>
<path d="M55.0474 437.805C58.5284 437.542 62.0284 437.657 65.4856 438.142C91.4324 441.717 90.0592 466.018 89.9466 485.422L89.7322 516.478C89.5127 545.801 99.0166 530.219 105.716 539.292C106.267 553.164 91.9386 559.098 80.7312 561.3C41.1774 565.582 38.9948 540.278 39.2808 509.057L39.538 481.156C39.6399 468.755 41.2654 457.225 28.209 451.086C37.1614 442.325 42.9656 439.777 55.0474 437.805Z" fill="#2C338E"/>
<path d="M148.332 379.525C188.067 376.075 221.368 388.869 237.712 426.883C225.395 423.341 219.409 421.919 206.76 420.407C178.561 416.084 147.947 418.936 119.987 423.571C106.445 396.871 122.502 383.627 148.332 379.525Z" fill="#2C338E"/>
</svg>
