<svg width="48" height="48" viewBox="0 0 48 48" fill="none" xmlns="http://www.w3.org/2000/svg">
<rect width="48" height="48" rx="24" fill="#00A76D"/>
<path d="M14.5051 37.1396C13.1551 36.1046 12.3676 34.1021 12.3676 34.1021C11.2201 33.6746 9.6001 32.5721 9.6001 32.5721C9.6001 32.5721 10.6576 31.9871 11.6026 31.8296C11.2651 29.8721 11.7151 27.2171 11.7151 27.2171C11.7151 27.2171 12.0301 29.6246 13.2001 31.4696C14.6401 31.1771 15.8551 31.0646 15.8551 31.0646C15.8551 31.0646 15.0901 32.1446 14.6851 33.3371C15.5851 34.2371 17.2276 35.1596 17.8576 35.3846C16.4851 35.3171 14.9326 35.0471 14.3476 34.8221C14.3251 35.6546 14.3476 36.5321 14.5051 37.1396ZM18.1726 25.7771C17.3851 24.1121 16.8676 21.9296 16.8676 21.9296C16.8676 21.9296 14.9326 23.1221 12.0076 25.9796C13.7176 22.6046 15.7426 20.4671 15.7426 20.4671C15.7426 20.4671 14.9776 19.7021 12.2326 19.4546C14.8876 18.5096 17.8126 18.8246 17.8126 18.8246C17.8126 18.8246 19.1176 17.7221 21.2776 17.0921C21.2776 17.0921 20.7151 17.8571 20.2876 19.0496C23.3701 19.3871 26.2276 21.1871 26.2276 21.1871C26.2276 21.1871 21.4801 20.4446 19.4551 21.0746C18.7351 22.8071 18.3301 24.6746 18.1726 25.7771ZM25.0576 35.3621C25.0801 35.9021 25.2826 36.4421 25.2826 36.4421C25.2826 36.4421 24.8551 36.4871 23.6851 36.5321C22.0201 37.4996 19.9726 37.8596 19.9726 37.8596C19.9726 37.8596 21.2776 37.0046 21.9301 36.3296C20.8951 36.1721 19.9726 35.6996 19.9726 35.6996C19.9726 35.6996 21.7276 35.5871 23.0101 35.2721C23.6176 34.6646 24.7426 33.0671 24.7426 33.0671C24.7426 33.0671 24.8101 33.9671 24.9226 34.5521C26.4076 33.8321 27.6451 32.9096 27.6451 32.9096C27.6451 32.9096 26.5426 34.2596 25.0576 35.3621ZM36.7801 14.1671C36.9151 16.7096 36.3751 19.7471 35.4751 22.1321C35.4751 20.5571 35.3176 17.6771 34.3726 15.7196C33.6301 16.2371 31.7176 17.1821 29.0401 18.5546C29.4451 18.1496 31.2226 16.0346 31.7401 15.1346C29.8726 15.1571 26.6551 15.3821 23.9776 15.9896C25.7551 14.9996 29.2426 13.8521 32.0776 13.3571C30.8401 12.2996 28.5226 11.0171 26.7451 10.1396C28.1851 10.1846 33.6751 11.2196 35.5426 12.6596C36.7801 12.3671 38.4001 12.3221 38.4001 12.3221C38.0176 13.1096 37.5001 13.6946 36.7801 14.1671ZM14.5051 37.1396C13.1551 36.1046 12.3676 34.1021 12.3676 34.1021C11.2201 33.6746 9.6001 32.5721 9.6001 32.5721C9.6001 32.5721 10.6576 31.9871 11.6026 31.8296C11.2651 29.8721 11.7151 27.2171 11.7151 27.2171C11.7151 27.2171 12.0301 29.6246 13.2001 31.4696C14.6401 31.1771 15.8551 31.0646 15.8551 31.0646C15.8551 31.0646 15.0901 32.1446 14.6851 33.3371C15.5851 34.2371 17.2276 35.1596 17.8576 35.3846C16.4851 35.3171 14.9326 35.0471 14.3476 34.8221C14.3251 35.6546 14.3476 36.5321 14.5051 37.1396ZM18.1726 25.7771C17.3851 24.1121 16.8676 21.9296 16.8676 21.9296C16.8676 21.9296 14.9326 23.1221 12.0076 25.9796C13.7176 22.6046 15.7426 20.4671 15.7426 20.4671C15.7426 20.4671 14.9776 19.7021 12.2326 19.4546C14.8876 18.5096 17.8126 18.8246 17.8126 18.8246C17.8126 18.8246 19.1176 17.7221 21.2776 17.0921C21.2776 17.0921 20.7151 17.8571 20.2876 19.0496C23.3701 19.3871 26.2276 21.1871 26.2276 21.1871C26.2276 21.1871 21.4801 20.4446 19.4551 21.0746C18.7351 22.8071 18.3301 24.6746 18.1726 25.7771ZM25.0576 35.3621C25.0801 35.9021 25.2826 36.4421 25.2826 36.4421C25.2826 36.4421 24.8551 36.4871 23.6851 36.5321C22.0201 37.4996 19.9726 37.8596 19.9726 37.8596C19.9726 37.8596 21.2776 37.0046 21.9301 36.3296C20.8951 36.1721 19.9726 35.6996 19.9726 35.6996C19.9726 35.6996 21.7276 35.5871 23.0101 35.2721C23.6176 34.6646 24.7426 33.0671 24.7426 33.0671C24.7426 33.0671 24.8101 33.9671 24.9226 34.5521C26.4076 33.8321 27.6451 32.9096 27.6451 32.9096C27.6451 32.9096 26.5426 34.2596 25.0576 35.3621ZM36.7801 14.1671C36.9151 16.7096 36.3751 19.7471 35.4751 22.1321C35.4751 20.5571 35.3176 17.6771 34.3726 15.7196C33.6301 16.2371 31.7176 17.1821 29.0401 18.5546C29.4451 18.1496 31.2226 16.0346 31.7401 15.1346C29.8726 15.1571 26.6551 15.3821 23.9776 15.9896C25.7551 14.9996 29.2426 13.8521 32.0776 13.3571C30.8401 12.2996 28.5226 11.0171 26.7451 10.1396C28.1851 10.1846 33.6751 11.2196 35.5426 12.6596C36.7801 12.3671 38.4001 12.3221 38.4001 12.3221C38.0176 13.1096 37.5001 13.6946 36.7801 14.1671Z" fill="white"/>
</svg>
