<svg width="48" height="48" viewBox="0 0 48 48" fill="none" xmlns="http://www.w3.org/2000/svg">
<rect width="48" height="48" rx="24" fill="#0067B1"/>
<path d="M38.4004 23.7764L34.1827 27.9951L29.9648 23.7764L34.1827 19.5593L38.4004 23.7764Z" fill="white"/>
<path d="M9.60059 28.3984L10.5313 21.8682C10.7392 20.4272 12.26 19.1701 13.8911 19.1701C15.5461 19.1701 16.3315 20.3203 16.1721 21.424L16.0371 22.3746C15.9265 23.1716 15.3377 23.9383 14.2957 24.5052L15.3625 26.3139C15.4852 26.513 15.5345 26.8193 15.4852 27.1423C15.3749 27.8316 14.8597 28.3984 14.2957 28.3984C13.9894 28.3984 13.7439 28.2306 13.5972 27.9698L12.027 25.2556L11.7574 27.1568C11.659 27.8468 11.1439 28.3984 10.592 28.3984H9.60059ZM13.327 20.5194C12.9709 20.5194 12.6401 20.8722 12.5792 21.3166L12.3103 23.2849C12.2494 23.7296 12.4823 24.0827 12.8379 24.0827C13.1933 24.0827 13.5243 23.7296 13.5858 23.2849L13.8544 21.3166C13.9158 20.8722 13.6821 20.5194 13.327 20.5194Z" fill="white"/>
<path d="M17.2113 20.6113C17.3216 19.8141 17.9468 19.1553 18.5846 19.1553C19.2222 19.1553 19.6514 19.8141 19.5409 20.6113L19.0877 23.9073H20.351L20.8166 20.6113C20.9269 19.8141 21.5526 19.1553 22.1905 19.1553C22.8281 19.1553 23.2573 19.8141 23.1468 20.6113L22.2638 26.9424C22.1533 27.7394 21.5281 28.3989 20.89 28.3989C20.2526 28.3989 19.8234 27.7394 19.9337 26.9424L20.216 24.8884H18.9408L18.6585 26.9424C18.5477 27.7394 17.9225 28.3989 17.2852 28.3989H16.1318L17.2113 20.6113Z" fill="white"/>
<path d="M29.619 21.807C29.5206 22.4203 29.1893 23.0179 28.6005 23.5698C29.0054 23.9993 29.1769 24.5661 29.0912 25.1182L29.0054 25.6853C28.7849 27.1418 27.276 28.3984 25.6576 28.3984H23.0942L24.0384 21.8535C24.2476 20.4122 25.7681 19.1554 27.3986 19.1554C29.054 19.1554 29.8515 20.3048 29.6795 21.4088L29.619 21.807ZM26.4669 23.8766C26.062 23.8766 25.6821 24.2903 25.6082 24.7965L25.4244 26.1148C25.351 26.6204 25.6206 27.0341 26.0253 27.0341C26.43 27.0341 26.8228 26.6204 26.8961 26.1148L27.0802 24.7965C27.1541 24.2903 26.8711 23.8766 26.4669 23.8766ZM26.9576 20.5194C26.5529 20.5194 26.1846 20.9334 26.0989 21.4393L25.952 22.3436C25.8655 22.8495 26.1482 23.2633 26.5529 23.2633C26.9576 23.2633 27.3377 22.8495 27.424 22.3436L27.5706 21.4393C27.6566 20.9334 27.362 20.5194 26.9576 20.5194Z" fill="white"/>
</svg>
