<svg width="48" height="48" viewBox="0 0 48 48" fill="none" xmlns="http://www.w3.org/2000/svg">
<rect width="48" height="48" rx="24" fill="#534D77"/>
<path d="M20.3314 14.9306C20.2522 15.0962 20.3818 15.2906 20.3746 15.5066V15.6074L20.389 16.0682H25.2922C27.517 16.0682 30.0514 15.6938 32.2402 14.6426C32.3266 14.6066 32.413 14.6858 32.3986 14.765V14.7866L31.3474 17.3426C30.793 18.545 29.5042 18.9338 25.105 18.9482H20.389V23.333L28.9498 20.9714C29.1298 20.921 30.0442 20.7338 30.6274 21.3674C31.2898 22.0802 31.909 22.7354 32.341 23.333C32.4562 23.477 32.413 23.6066 32.2186 23.549C31.7794 23.4338 31.621 23.5994 31.189 23.7146V29.7482H33.6082C35.041 29.7482 35.113 29.5034 35.3218 29.3594C35.3794 29.3162 35.4874 29.3162 35.5018 29.4026C35.5234 29.489 35.4874 29.5682 35.2858 29.9786C35.0698 30.3818 34.3498 31.6346 33.9106 32.1746C33.6026 32.5397 33.2191 32.8336 32.7865 33.0362C32.354 33.2388 31.8826 33.3453 31.405 33.3482H16.717C16.2155 33.3646 15.7168 33.2676 15.258 33.0644C14.7992 32.8612 14.3922 32.557 14.0674 32.1746C13.5588 31.4767 13.1016 30.7427 12.6994 29.9786C12.4834 29.5682 12.4546 29.489 12.4762 29.4026C12.4906 29.3162 12.5986 29.3162 12.6562 29.3594C12.8578 29.5034 12.937 29.741 14.2402 29.7482H16.789V17.5802C16.789 17.1482 17.2498 16.6874 17.797 16.2482C18.481 15.7082 19.5394 15.0242 20.2306 14.6498C20.3314 14.5922 20.4898 14.6354 20.3314 14.9378V14.9306ZM27.589 24.5426L20.389 26.5586V29.7482H27.589V24.5426Z" fill="white"/>
</svg>
