<svg width="48" height="48" viewBox="0 0 48 48" fill="none" xmlns="http://www.w3.org/2000/svg">
<rect width="48" height="48" rx="24" fill="#1E3F99"/>
<path d="M29.1302 16.3046L24.0002 9.59961L18.8702 16.3046C15.0002 21.3671 13.4702 23.6396 13.4702 27.0371C13.4702 29.9171 14.2127 31.3121 16.9127 33.2696L24.0002 38.3996L31.0877 33.2696C33.7877 31.3121 34.5302 29.9171 34.5302 27.0371C34.5302 23.6396 33.0002 21.3671 29.1302 16.3046ZM22.4252 32.9546L22.3802 34.3496C22.3802 34.5296 22.2677 34.5521 22.1552 34.4621C20.3102 33.1346 18.1502 31.5596 18.1502 31.5596C15.9002 29.9396 15.7652 28.1846 15.7652 26.9921C15.7652 26.1821 15.8777 25.3046 16.2602 24.4046C16.2827 24.3371 16.3277 24.2246 16.3952 24.2246C16.4402 24.2246 16.4627 24.2471 16.4852 24.2921C17.2727 25.4396 18.5327 27.3071 19.7927 28.8371C22.2227 31.7621 22.4702 31.5146 22.4252 32.9546ZM24.0002 30.3221C23.9777 30.3221 23.9552 30.2996 23.9327 30.2996L18.9602 24.4046C18.3977 23.7296 18.0827 22.9871 18.0827 22.2446C18.0827 21.7496 18.2627 21.2321 18.6227 20.7596L23.9327 13.4696C23.9552 13.4471 23.9777 13.4246 24.0002 13.4246C24.0227 13.4246 24.0452 13.4471 24.0677 13.4696L29.3777 20.7596C29.7152 21.2321 29.9177 21.7496 29.9177 22.2446C29.9177 22.9871 29.6252 23.7296 29.0402 24.4046L24.0677 30.2996C24.0452 30.3221 24.0227 30.3221 24.0002 30.3221ZM29.8502 31.5596C29.8502 31.5596 27.6677 33.1346 25.8452 34.4621C25.7327 34.5521 25.6427 34.5296 25.6202 34.3496L25.5752 32.9546C25.5302 31.5146 25.7777 31.7621 28.2077 28.8371C29.4677 27.3071 30.7277 25.4621 31.5152 24.2921C31.5377 24.2471 31.5827 24.2246 31.6052 24.2246C31.6502 24.2246 31.7177 24.3371 31.7402 24.4046C32.1002 25.3046 32.2352 26.1821 32.2352 26.9921C32.2352 28.1846 32.1002 29.9396 29.8502 31.5596Z" fill="white"/>
</svg>
