<svg width="48" height="48" viewBox="0 0 48 48" fill="none" xmlns="http://www.w3.org/2000/svg">
<rect width="48" height="48" rx="24" fill="#154314"/>
<path d="M34.6883 14.363C32.8658 12.338 30.4583 10.853 27.8258 10.133C26.1158 9.66053 24.3158 9.52553 22.5383 9.70553C19.5683 9.97553 16.7108 11.213 14.4833 13.193C12.6158 14.8355 11.1983 16.973 10.3658 19.3355C9.42077 22.103 9.33077 25.1405 10.1408 27.953C10.8158 30.383 12.1658 32.633 13.9883 34.388C15.8108 36.1655 18.1283 37.448 20.6033 38.033C24.0458 38.888 27.8033 38.4155 30.9308 36.683C33.4283 35.3105 35.5208 33.1955 36.8033 30.6755C38.3333 27.7505 38.7833 24.308 38.1083 21.068C37.5683 18.548 36.3758 16.2305 34.6883 14.363ZM24.2933 34.433C22.8758 34.973 21.2333 35.0855 19.8383 34.388C18.7808 33.8705 18.0608 32.8355 17.7908 31.733C17.3858 30.1355 17.6558 28.448 18.1958 26.918C18.4433 26.2205 18.7583 25.568 19.0958 24.9155C17.8808 26.1305 16.6883 27.368 15.4958 28.6055C17.2733 26.1755 19.1858 23.813 21.3008 21.653C22.4258 20.573 23.5508 19.5155 24.7208 18.503C25.1258 18.143 25.5308 17.8055 25.9808 17.513C25.1708 18.548 24.4958 19.6505 23.8883 20.798C23.1233 22.238 22.4258 23.7455 21.9758 25.3205C21.5258 26.918 21.2558 28.673 21.8633 30.2705C22.2233 31.1255 22.8533 32.003 23.8208 32.228C25.5533 32.6555 27.4433 32.2055 28.8383 31.1255C27.6008 32.5205 26.0708 33.7355 24.2933 34.433ZM29.0633 17.5355C28.7033 17.3555 28.3658 17.198 28.0058 17.018C27.6683 17.2205 27.3083 17.4005 26.9708 17.5805C27.0383 17.198 27.0833 16.8155 27.1508 16.4105C26.8583 16.1405 26.5658 15.8705 26.2733 15.6005C26.6558 15.533 27.0383 15.4655 27.4433 15.398C27.6008 15.038 27.7808 14.678 27.9383 14.318C28.1183 14.6555 28.2983 15.0155 28.4783 15.3755C28.8608 15.4205 29.2658 15.488 29.6708 15.533C29.3783 15.803 29.1308 16.0955 28.8383 16.388C28.9283 16.748 28.9958 17.1305 29.0633 17.5355Z" fill="white"/>
</svg>
