<svg width="48" height="48" viewBox="0 0 48 48" fill="none" xmlns="http://www.w3.org/2000/svg">
<rect width="48" height="48" rx="24" fill="#123274"/>
<path d="M22.8675 12.4573V22.7623H25.095V12.4573C25.095 11.7598 25.6575 11.1748 26.3325 11.1748C27.0075 11.1748 27.57 11.7598 27.57 12.4573V22.7623H29.7975V12.4573C29.7975 11.7598 30.36 11.1748 31.035 11.1748C31.71 11.1748 32.2725 11.7598 32.2725 12.4573V22.7623H35.5125C36.2325 22.7623 36.795 23.3023 36.795 23.9998C36.795 24.6748 36.21 25.2373 35.5125 25.2373H32.2725V35.5423C32.2725 36.2398 31.71 36.8248 31.035 36.8248C30.36 36.8248 29.7975 36.2398 29.7975 35.5423V25.2373H27.57V35.5423C27.57 36.2398 27.0075 36.8248 26.3325 36.8248C25.6575 36.8248 25.095 36.2398 25.095 35.5423V25.2373H22.8675V35.5423C22.8675 36.2398 22.305 36.8248 21.63 36.8248C20.955 36.8248 20.3925 36.2398 20.3925 35.5423V25.2373H18.165V35.5423C18.165 36.2398 17.6025 36.8248 16.9275 36.8248C16.2525 36.8248 15.69 36.2398 15.69 35.5423V25.2373H12.45C11.73 25.2373 11.1675 24.6748 11.1675 23.9998C11.1675 23.3248 11.73 22.7623 12.45 22.7623H15.69V12.4573C15.69 11.7598 16.2525 11.1748 16.9275 11.1748C17.6025 11.1748 18.165 11.7598 18.165 12.4573V22.7623H20.415V12.4573C20.415 11.7598 20.9775 11.1748 21.6525 11.1748C22.3275 11.1748 22.8675 11.7598 22.8675 12.4573Z" fill="white"/>
</svg>
