<svg width="48" height="48" viewBox="0 0 48 48" fill="none" xmlns="http://www.w3.org/2000/svg">
<rect width="48" height="48" rx="24" fill="#009BC9"/>
<path d="M24.0006 9.6001C16.0581 9.6001 9.60059 16.0576 9.60059 24.0001C9.60059 31.9426 16.0581 38.4001 24.0006 38.4001C31.9431 38.4001 38.4006 31.9426 38.4006 24.0001C38.4006 16.0576 31.9431 9.6001 24.0006 9.6001ZM20.7381 17.9476C20.7381 17.7001 21.0306 17.3626 21.2556 17.2501C23.6631 16.1026 26.1156 15.0001 28.5231 13.8751C29.4681 13.4476 30.3681 13.5601 31.1331 14.2576C32.0106 15.0901 32.8656 15.9451 33.6981 16.8451C33.8781 17.0251 33.9006 17.3851 33.9906 17.6551C33.7431 17.7226 33.4956 17.7901 33.2256 17.8576C32.7306 17.9701 32.2131 18.0151 31.7631 18.2401C28.4331 19.8151 25.1031 21.4576 21.7506 23.0551C21.4581 23.1901 21.1881 23.3026 20.7156 23.5276C20.7156 21.5251 20.6931 19.7476 20.7381 17.9476ZM32.2356 28.7476C31.1106 28.7926 29.9856 28.7926 28.8831 28.7476C28.6356 28.7251 28.2756 28.5001 28.1631 28.2526C27.1281 26.2726 26.1381 24.2701 25.0806 22.1551C26.7456 21.3451 28.2981 20.6026 29.9406 19.7926C31.1556 22.1326 32.3931 24.3826 33.5181 26.7001C33.9906 27.6676 33.3381 28.6801 32.2356 28.7476ZM16.0356 14.9101C17.2956 13.8751 18.6006 12.9526 20.1981 12.5926C20.1981 18.0601 20.1981 23.3476 20.1981 28.7026C18.3981 28.7026 16.7331 28.7026 14.9331 28.7026C14.9331 28.3651 14.9331 28.0501 14.9331 27.7126C14.9331 24.2476 14.9556 20.8051 14.9331 17.3401C14.9331 16.3276 15.2706 15.5401 16.0356 14.9101ZM28.0506 34.3951C26.7006 34.3951 25.3731 34.3951 24.0231 34.3951C22.7181 34.3951 21.3906 34.3051 20.0856 34.4176C18.1731 34.5751 16.6656 33.7876 15.4281 32.3251C14.7981 31.5601 14.1906 30.7726 13.6056 29.9626C13.4706 29.7826 13.4706 29.4451 13.5381 29.2426C13.5606 29.1526 13.9206 29.1301 14.1231 29.1526C14.6856 29.1976 15.2481 29.3326 15.8331 29.3326C21.2331 29.3551 26.6556 29.3551 32.0556 29.3326C32.6856 29.3326 33.3156 29.1976 33.9456 29.1301C34.1256 29.1076 34.4181 29.1301 34.4631 29.2201C34.5531 29.4001 34.5531 29.6926 34.4856 29.8726C33.5406 32.3026 30.5481 34.3951 28.0506 34.3951Z" fill="white"/>
</svg>
