<svg width="48" height="48" viewBox="0 0 48 48" fill="none" xmlns="http://www.w3.org/2000/svg">
<rect width="48" height="48" rx="24" fill="#F37021"/>
<path d="M31.2535 22.4518C30.781 22.1368 30.2635 21.8893 29.746 21.7093C27.946 21.0793 27.4735 21.2368 26.5285 22.9243C25.831 24.1618 25.2235 25.4218 24.526 26.6593C24.2335 27.1993 23.896 27.7393 23.446 28.1668C21.106 30.4843 18.1585 30.8893 15.031 30.6868C15.976 30.1468 16.606 29.3368 17.146 28.4143C17.8435 27.1993 18.541 25.9618 19.1935 24.7018C19.9135 23.3293 20.926 22.2718 22.3435 21.6193C22.591 21.5068 22.816 21.4168 23.0635 21.3268C23.041 21.3043 23.041 21.2818 23.0185 21.2593C22.951 21.2593 22.8835 21.2593 22.816 21.2593C19.4185 21.7543 16.2235 22.7893 13.3435 24.7018C12.0835 25.5118 10.981 26.5018 10.1935 27.8068C9.09102 29.6518 9.58602 31.5193 11.4985 32.4868C12.151 32.8243 12.871 33.0718 13.5685 33.2518C15.841 33.7918 18.136 33.6568 20.4085 33.2518C23.5585 32.6893 26.551 31.6318 29.206 29.8093C30.466 28.9543 31.6135 27.9418 32.311 26.5243C33.0985 24.9718 32.716 23.4418 31.2535 22.4518Z" fill="white"/>
<path opacity="0.7" d="M37.6891 14.4192C32.9416 14.4192 28.1716 14.3967 23.4241 14.4417C22.0966 14.4417 20.7466 14.5542 19.4191 14.7567C17.2816 15.0717 15.2791 15.8367 13.6366 17.2992C12.8041 18.0192 12.1516 18.8967 11.7466 19.9992C11.9941 20.0217 12.1516 20.0442 12.3316 20.0442C17.4841 20.0442 22.6591 20.0667 27.8116 20.0217C30.1741 19.9992 32.4916 19.5717 34.6066 18.4692C36.3166 17.5917 37.5991 16.3317 38.4316 14.4192C38.0941 14.4192 37.8916 14.4192 37.6891 14.4192Z" fill="white"/>
</svg>
