<svg width="48" height="48" viewBox="0 0 48 48" fill="none" xmlns="http://www.w3.org/2000/svg">
<rect width="48" height="48" rx="24" fill="#0F6DB6"/>
<path d="M20.2878 16.1377C19.4778 16.1377 18.7803 16.7902 18.7803 17.6452C18.7803 18.4777 19.4553 19.1527 20.2878 19.1527C21.1203 19.1527 21.7953 18.4777 21.7953 17.6452C21.7728 16.8127 21.0978 16.1377 20.2878 16.1377ZM27.6903 16.1377C26.8803 16.1377 26.1828 16.7902 26.1828 17.6452C26.1828 18.4777 26.8353 19.1527 27.6903 19.1527C28.5453 19.1527 29.1978 18.4777 29.1978 17.6452C29.1978 16.8127 28.5228 16.1377 27.6903 16.1377ZM18.8253 20.3902V29.8627H20.8953V23.2252H20.9178L23.1678 29.8627H24.7878L27.0603 23.2027V29.8627H29.1528V20.3902H26.1378L24.0453 26.8927H24.0228L21.8178 20.3902H18.8253Z" fill="white"/>
<path d="M9.60059 22.1451V20.3901H17.4306V22.1451H14.5506V29.8401H12.4581V22.1451H9.60059Z" fill="white"/>
<path d="M35.048 20.3901C35.4755 20.3901 35.8805 20.4351 36.263 20.5026C36.623 20.5926 36.938 20.7051 37.1855 20.8851C37.433 21.0651 37.6355 21.3126 37.7705 21.6051C37.9055 21.8976 37.973 22.2801 37.973 22.7301C37.973 23.2026 37.8605 23.6076 37.658 23.9226C37.4555 24.2376 37.1405 24.5076 36.7355 24.6876C37.298 24.8451 37.703 25.1376 37.9955 25.5651C38.2655 25.9701 38.4005 26.4876 38.4005 27.0951C38.4005 27.5676 38.3105 27.9726 38.1305 28.3551C37.9505 28.6926 37.703 28.9851 37.4105 29.2101C37.118 29.4351 36.758 29.5926 36.3755 29.7051C35.993 29.8176 35.588 29.8626 35.1605 29.8626H30.7505V20.3901H35.048ZM34.8005 24.2376C35.1605 24.2376 35.453 24.1476 35.678 23.9676C35.903 23.7876 36.0155 23.5176 36.0155 23.1126C36.0155 22.8876 35.9705 22.7076 35.903 22.5726C35.8355 22.4376 35.723 22.3251 35.588 22.2351C35.453 22.1451 35.318 22.1001 35.138 22.0776C34.9805 22.0551 34.8005 22.0326 34.6205 22.0326H32.708V24.2376H34.8005ZM34.913 28.2426C35.1155 28.2426 35.2955 28.2201 35.4755 28.1751C35.6555 28.1301 35.813 28.0626 35.948 27.9726C36.083 27.8826 36.1955 27.7476 36.2855 27.5901C36.3755 27.4326 36.398 27.2301 36.398 26.9826C36.398 26.5101 36.263 26.1501 35.993 25.9476C35.723 25.7451 35.3855 25.6326 34.958 25.6326H32.753V28.2426H34.913Z" fill="white"/>
</svg>
