<svg width="48" height="48" viewBox="0 0 48 48" fill="none" xmlns="http://www.w3.org/2000/svg">
<rect width="48" height="48" rx="24" fill="#0950A1"/>
<path fill-rule="evenodd" clip-rule="evenodd" d="M9.6001 17.4924C11.3326 17.4924 13.0876 17.4699 14.7976 17.5149C14.7976 18.5274 14.7976 19.5174 14.7976 20.5299C14.4826 20.5299 14.1451 20.5299 13.8301 20.5299C13.8301 23.8149 13.8301 27.1224 13.8301 30.4074C12.7501 30.4074 11.6251 30.4299 10.5676 30.3849C10.5676 27.0999 10.5676 23.8149 10.5676 20.5074C10.2526 20.5074 9.9376 20.5074 9.6001 20.5074C9.6001 19.5174 9.6001 18.5049 9.6001 17.4924Z" fill="white"/>
<path fill-rule="evenodd" clip-rule="evenodd" d="M15.5401 17.5146C16.6201 17.5146 17.7001 17.5146 18.7801 17.5146C18.7801 21.8121 18.7801 26.1096 18.7801 30.4071C17.7001 30.4071 16.5976 30.4071 15.5176 30.4071C15.5176 26.1321 15.5176 21.8346 15.5176 17.5596C15.5401 17.5371 15.5176 17.5146 15.5401 17.5146Z" fill="white"/>
<path fill-rule="evenodd" clip-rule="evenodd" d="M24.6753 17.8748C24.6753 18.7748 24.6753 19.6748 24.6753 20.5523C24.6078 20.5748 24.5628 20.4623 24.4953 20.4173C24.0003 20.0573 23.2578 20.4173 23.1903 21.0023C23.1678 21.2723 23.2578 21.5873 23.3028 21.8798C23.4828 22.7123 23.7078 23.4998 23.9328 24.2423C24.2478 25.2323 24.6978 26.2898 24.6078 27.5498C24.5178 28.7423 23.9778 29.5973 23.1228 30.0698C22.6953 30.3173 22.1328 30.4523 21.5028 30.4073C20.8953 30.3623 20.4228 30.2273 19.9053 30.0023C19.9053 29.0123 19.9053 28.0448 19.9053 27.0548C19.9503 27.0323 20.0403 27.0998 20.1078 27.1448C20.1753 27.1898 20.2428 27.2348 20.3328 27.2573C20.8503 27.4373 21.4803 27.1898 21.5253 26.6498C21.5703 26.1773 21.4128 25.6373 21.2778 25.2098C20.8728 23.9273 20.3103 22.8248 20.0628 21.3398C19.8828 20.2373 20.0403 19.3148 20.5803 18.6173C20.8278 18.3023 21.1428 18.0323 21.5028 17.8523C21.8628 17.6498 22.2678 17.4923 22.7853 17.4473C23.5728 17.4473 24.1128 17.6948 24.6753 17.8748Z" fill="white"/>
<path fill-rule="evenodd" clip-rule="evenodd" d="M29.895 17.5148C29.895 18.4373 29.895 19.3598 29.895 20.2823C29.0625 20.1923 28.5225 20.3948 28.3425 20.9798C28.23 21.3398 28.2975 21.9473 28.2975 22.4198C28.2975 23.4323 28.2975 24.3773 28.2975 25.3898C28.2975 25.8848 28.23 26.4473 28.3425 26.8298C28.5 27.4598 29.085 27.6848 29.9175 27.5948C29.9175 28.5173 29.9175 29.4398 29.9175 30.3623C28.14 30.4523 26.9925 29.8223 26.2725 28.8098C25.89 28.2923 25.6425 27.6848 25.5525 26.9423C25.5075 26.5598 25.53 26.1098 25.53 25.6598C25.53 24.3773 25.53 23.0723 25.53 21.7673C25.53 21.3173 25.53 20.9123 25.5975 20.5298C25.8 19.5173 26.4075 18.6848 27.1275 18.1673C27.8025 17.7173 28.68 17.4248 29.895 17.5148Z" fill="white"/>
<path fill-rule="evenodd" clip-rule="evenodd" d="M34.4177 17.5146C36.0377 17.4021 37.1402 18.2796 37.7702 19.2471C38.1302 19.8096 38.3552 20.4171 38.3777 21.1821C38.4227 22.1046 38.3777 22.8696 38.3777 23.7246C38.3777 24.5571 38.3777 25.4121 38.3777 26.2671C38.3777 27.0996 38.2427 27.8196 37.9277 28.3596C37.3427 29.4396 36.3077 30.2496 34.8452 30.3621C34.0352 30.4296 33.3377 30.1821 32.7977 29.8896C32.2802 29.5971 31.8077 29.1696 31.4927 28.6521C31.1552 28.1346 30.9077 27.4821 30.8852 26.7171C30.8402 25.0296 30.8852 23.2971 30.8852 21.6321C30.8852 20.7096 31.0202 20.1471 31.3352 19.5396C31.7627 18.7296 32.4152 18.0771 33.3602 17.7396C33.6752 17.6271 34.0352 17.5596 34.4177 17.5146ZM33.7427 20.9121C33.5852 21.2946 33.6527 21.9246 33.6527 22.3521C33.6527 23.3646 33.6527 24.4221 33.6527 25.4346C33.6527 25.9746 33.5852 26.5596 33.6977 26.9196C33.8777 27.4596 34.4627 27.7971 35.0027 27.5496C35.2052 27.4596 35.4527 27.2121 35.5427 26.9196C35.6552 26.5596 35.5877 25.9071 35.5877 25.4796C35.5877 24.4221 35.5877 23.4771 35.5877 22.4871C35.5877 21.9696 35.6552 21.3846 35.5427 21.0246C35.4077 20.5971 35.0252 20.2371 34.4852 20.3271C34.1027 20.3496 33.8777 20.6196 33.7427 20.9121Z" fill="white"/>
</svg>
