<svg width="48" height="48" viewBox="0 0 48 48" fill="none" xmlns="http://www.w3.org/2000/svg">
<rect width="48" height="48" rx="24" fill="#E60000"/>
<path d="M24.0005 19.7251C21.6605 19.7251 19.748 21.6376 19.748 23.9776C19.748 26.3176 21.6605 28.2526 24.0005 28.2526C26.3405 28.2526 28.253 26.3401 28.253 24.0001C28.253 21.6601 26.3405 19.7251 24.0005 19.7251Z" fill="white"/>
<path d="M28.1631 13.7627C26.6781 13.7627 25.2606 14.0777 24.0006 14.6627C22.7406 14.0777 21.3006 13.7627 19.8381 13.7627C14.1681 13.7627 9.60059 18.3302 9.60059 24.0002C9.60059 29.6702 14.1681 34.2377 19.8381 34.2377C21.3231 34.2377 22.7406 33.9227 24.0006 33.3377C25.2606 33.9227 26.7006 34.2377 28.1631 34.2377C33.7881 34.2377 38.4006 29.6702 38.4006 24.0002C38.4006 18.3302 33.8331 13.7627 28.1631 13.7627ZM24.0006 33.2252C18.8931 33.2252 14.7531 29.0852 14.7531 23.9777C14.7531 18.8702 18.8931 14.7302 24.0006 14.7302C29.1081 14.7302 33.2481 18.8702 33.2481 23.9777C33.2481 29.0852 29.1081 33.2252 24.0006 33.2252Z" fill="white"/>
</svg>
