<svg width="48" height="48" viewBox="0 0 48 48" fill="none" xmlns="http://www.w3.org/2000/svg">
<rect width="48" height="48" rx="24" fill="#EE2A24"/>
<path opacity="0.7" d="M19.6356 19.8748C18.5331 20.3473 13.7406 22.4848 11.9406 23.5198C11.1531 23.2048 10.5006 22.9798 9.60059 22.6423C13.3356 20.5048 17.3856 19.2673 17.4531 19.1548C18.2181 19.3798 18.8481 19.6948 19.6356 19.8748Z" fill="white"/>
<path opacity="0.7" d="M23.2355 21.3827C22.133 21.8552 17.2955 24.1727 15.518 25.2302C14.6855 24.8027 13.8755 24.3977 13.0205 24.0602C16.7555 21.8777 20.6255 20.4377 20.693 20.3477C21.3905 20.6177 22.4705 21.0677 23.2355 21.3827Z" fill="white"/>
<path d="M34.8457 20.5502C33.7432 21.0227 26.1607 23.4752 18.9832 28.2452C18.0832 27.6827 16.5982 26.8502 15.7207 26.5577C19.4557 24.3752 24.3832 21.1127 31.9207 19.1777C33.0682 19.6727 33.8332 20.1002 34.8457 20.5502Z" fill="white"/>
<path d="M38.4007 22.5298C37.2982 23.0023 28.0957 27.3898 23.6407 31.2823C22.8307 30.8098 21.0532 29.4598 20.2207 29.0323C23.7982 26.7148 28.3432 23.3848 35.7907 21.1348C36.9382 21.6298 37.4782 22.0123 38.4007 22.5298Z" fill="white"/>
<path d="M19.6806 17.5576C21.6381 18.1876 24.5181 19.2001 26.3856 20.1451C25.8006 20.4601 24.9906 20.6851 24.2706 20.9776C19.5006 18.9751 17.5656 18.3901 17.4756 18.3226C17.9256 18.1426 19.3206 17.6926 19.6806 17.5576Z" fill="white"/>
<path d="M23.1681 16.6802C25.1256 17.3102 28.1181 18.1652 30.0081 19.1327C29.3781 19.2902 28.4556 19.4702 27.7131 19.7852C22.9431 17.7827 21.1881 17.2652 21.0981 17.1977C21.5256 17.0177 22.8081 16.7927 23.1681 16.6802Z" fill="white"/>
</svg>
