<svg width="48" height="48" viewBox="0 0 48 48" fill="none" xmlns="http://www.w3.org/2000/svg">
<rect width="48" height="48" rx="24" fill="#00A950"/>
<path d="M38.2685 24.0969C38.2683 26.8989 37.4372 29.638 35.8803 31.9677C34.3234 34.2975 32.1107 36.1132 29.5219 37.1854C26.933 38.2576 24.0844 38.538 21.3362 37.9912C18.588 37.4445 16.0637 36.095 14.0824 34.1136C12.1011 32.1322 10.7519 29.6078 10.2053 26.8595C9.65869 24.1113 9.93931 21.2627 11.0117 18.6739C12.084 16.0852 13.8999 13.8726 16.2297 12.3158C18.5596 10.7591 21.2987 9.92822 24.1008 9.92822C27.8584 9.92848 31.462 11.4214 34.1189 14.0785C36.7758 16.7356 38.2685 20.3393 38.2685 24.0969Z" fill="white"/>
<path d="M31.2421 31.4302C30.5196 31.0007 29.6979 30.7662 28.8575 30.7495C28.0265 30.7916 27.2158 31.0213 26.4863 31.4215C25.7006 31.85 24.8261 32.0902 23.9318 32.1233C23.1186 32.0869 22.3251 31.8625 21.6134 31.4676C20.8244 31.0363 19.9458 30.7947 19.0473 30.762C18.2174 30.8021 17.4066 31.0253 16.6732 31.4158C15.8821 31.838 15.0052 32.0744 14.109 32.107H13.9478C14.0534 32.2375 14.1599 32.3662 14.2703 32.491C15.165 32.4331 16.0375 32.1881 16.8316 31.7719C17.5146 31.4022 18.2716 31.1897 19.0473 31.1498C19.8888 31.1834 20.7107 31.4136 21.4473 31.8218C22.2102 32.2393 23.059 32.4755 23.9279 32.5121C24.8785 32.4803 25.8088 32.2286 26.6457 31.7767C27.3241 31.4007 28.0791 31.1841 28.8537 31.1431C29.6326 31.1608 30.3935 31.3808 31.0617 31.7815C31.8628 32.2542 32.7744 32.5075 33.7046 32.5159C33.8178 32.3863 33.9302 32.2519 34.0396 32.1166C33.933 32.1242 33.8313 32.129 33.7218 32.129C32.8471 32.1204 31.99 31.882 31.2364 31.4378" fill="#887369"/>
<path d="M28.8574 31.4839C28.0266 31.5256 27.2162 31.7554 26.4871 32.1559C25.7009 32.5831 24.8267 32.8229 23.9326 32.8567C23.1194 32.8205 22.3256 32.5967 21.6132 32.2029C20.8248 31.7698 19.946 31.5272 19.0471 31.4944C18.2169 31.5348 17.406 31.7591 16.673 32.1511C16.0117 32.4905 15.2976 32.7152 14.561 32.8154C14.6714 32.9325 14.7828 33.0506 14.897 33.162C15.5669 33.0308 16.216 32.8096 16.8266 32.5044C17.5096 32.1344 18.2666 31.9219 19.0423 31.8823C19.8839 31.9152 20.706 32.1454 21.4423 32.5543C22.2057 32.972 23.0554 33.2076 23.9249 33.2426C24.8749 33.2114 25.8047 32.9597 26.6407 32.5072C27.3194 32.1322 28.0744 31.9159 28.8487 31.8746C29.6279 31.8913 30.3892 32.1117 31.0567 32.514C31.6719 32.8647 32.3466 33.0991 33.0468 33.2052C33.1639 33.088 33.282 32.969 33.3933 32.849C32.6312 32.7848 31.8929 32.5523 31.2314 32.1684C30.5085 31.7399 29.687 31.5057 28.8468 31.4887" fill="#887369"/>
<path d="M28.8575 32.2168C28.0273 32.2574 27.217 32.4851 26.4873 32.883C25.7014 33.3112 24.827 33.5514 23.9327 33.5848C23.1192 33.5492 22.3251 33.3247 21.6133 32.9291C20.8244 32.4975 19.9459 32.2553 19.0473 32.2216C18.217 32.262 17.4062 32.4863 16.6732 32.8782C16.198 33.11 15.7021 33.2964 15.1919 33.435C15.3023 33.5406 15.4175 33.6414 15.5327 33.7461C15.9769 33.604 16.4112 33.4325 16.8325 33.2325C17.5155 32.8625 18.2725 32.65 19.0482 32.6104C19.8898 32.6433 20.7119 32.8735 21.4482 33.2824C22.2111 33.7017 23.0609 33.9383 23.9308 33.9736C24.8809 33.9421 25.8107 33.69 26.6466 33.2373C27.3253 32.8622 28.0803 32.6459 28.8546 32.6046C29.6337 32.622 30.3948 32.8424 31.0626 33.244C31.4884 33.4747 31.936 33.6625 32.3989 33.8046L32.7522 33.4898C32.2228 33.3618 31.7132 33.1625 31.2373 32.8974C30.5147 32.4683 29.693 32.2341 28.8527 32.2178" fill="#887369"/>
<path d="M28.8579 32.9512C28.027 32.9923 27.2165 33.2221 26.4876 33.6232C25.7013 34.0497 24.8271 34.2889 23.9331 34.3221C23.1198 34.2864 22.3259 34.0627 21.6137 33.6683C20.8251 33.2362 19.9463 32.9945 19.0477 32.9627C18.2174 33.0021 17.4064 33.2261 16.6736 33.6184C16.3923 33.7451 16.1053 33.8737 15.8096 33.9841C15.9248 34.0801 16.0419 34.1713 16.1609 34.2635C16.3904 34.1675 16.6131 34.0715 16.8329 33.9755C17.5161 33.6061 18.273 33.3936 19.0486 33.3534C19.8902 33.3863 20.7123 33.6165 21.4486 34.0254C22.2116 34.4444 23.0614 34.6806 23.9312 34.7157C24.8812 34.6845 25.811 34.4327 26.647 33.9803C27.3252 33.604 28.0804 33.3876 28.855 33.3477C29.634 33.3647 30.3951 33.5847 31.063 33.9861C31.2896 34.1022 31.519 34.2155 31.7686 34.3211C31.8848 34.2328 32.0019 34.1397 32.1181 34.0465C31.8172 33.9278 31.523 33.7929 31.2368 33.6424C30.5138 33.2139 29.6923 32.9797 28.8521 32.9627" fill="#887369"/>
<path d="M28.8573 33.6836C28.0266 33.7253 27.2161 33.9551 26.4871 34.3556C25.7005 34.7816 24.8264 35.0207 23.9325 35.0545C23.1192 35.0189 22.3253 34.7951 21.6131 34.4007C20.8245 33.9686 19.9458 33.727 19.0471 33.6951C18.2169 33.7352 17.406 33.9591 16.673 34.3508C16.5904 34.3873 16.5079 34.4257 16.4263 34.4602C16.5482 34.5495 16.6701 34.6369 16.793 34.7175C16.8063 34.7143 16.8192 34.7095 16.8314 34.7031C17.5146 34.3338 18.2715 34.1213 19.0471 34.081C19.8885 34.1148 20.7104 34.3449 21.4471 34.753C22.21 35.1723 23.0598 35.4089 23.9296 35.4442C24.8797 35.4122 25.8093 35.1601 26.6455 34.7079C27.3242 34.3331 28.0792 34.1172 28.8535 34.0762C29.6323 34.0927 30.3934 34.312 31.0615 34.7127L31.1469 34.755C31.2698 34.6734 31.3888 34.5898 31.5098 34.5044L31.2362 34.3681C30.5133 33.9396 29.6918 33.7054 28.8515 33.6884" fill="#887369"/>
<path d="M26.49 35.0832C25.7035 35.5095 24.8293 35.7483 23.9354 35.7811C23.1232 35.7466 22.3302 35.5238 21.6189 35.1303C20.8298 34.6975 19.9504 34.4552 19.0509 34.4227C18.3673 34.4413 17.6952 34.6032 17.0781 34.8979C17.2125 34.9863 17.3479 35.0679 17.4861 35.1475C17.9803 34.9337 18.5116 34.8188 19.05 34.8096C19.8914 34.8433 20.7133 35.0734 21.45 35.4816C22.2135 35.899 23.0631 36.1345 23.9325 36.1699C24.8826 36.1387 25.8124 35.887 26.6484 35.4346C27.3271 35.0595 28.082 34.8432 28.8564 34.8019C29.4223 34.7999 29.9817 34.9235 30.4941 35.1639C30.6285 35.0842 30.761 35.0055 30.8935 34.921C30.2647 34.5919 29.566 34.4187 28.8564 34.416C28.0259 34.4577 27.2158 34.6875 26.4871 35.088" fill="#887369"/>
<path d="M24.0006 8.64014C20.9627 8.64014 17.993 9.54098 15.4671 11.2288C12.9411 12.9165 10.9724 15.3154 9.80984 18.1221C8.64728 20.9288 8.3431 24.0172 8.93577 26.9967C9.52844 29.9763 10.9913 32.7132 13.1395 34.8613C15.2876 37.0094 18.0245 38.4723 21.004 39.065C23.9836 39.6577 27.072 39.3535 29.8786 38.1909C32.6853 37.0284 35.0842 35.0596 36.772 32.5337C38.4598 30.0078 39.3606 27.0381 39.3606 24.0001C39.3606 19.9264 37.7423 16.0195 34.8618 13.139C31.9812 10.2584 28.0744 8.64014 24.0006 8.64014ZM24.0006 36.9121C21.4473 36.9123 18.9512 36.1554 16.8281 34.737C14.705 33.3186 13.0501 31.3025 12.0728 28.9436C11.0954 26.5848 10.8395 23.989 11.3374 21.4847C11.8353 18.9804 13.0646 16.6799 14.8698 14.8743C16.6751 13.0686 18.9753 11.8388 21.4795 11.3403C23.9837 10.8419 26.5795 11.0972 28.9386 12.0741C31.2977 13.0509 33.3142 14.7053 34.733 16.8281C36.1519 18.9509 36.9094 21.4468 36.9097 24.0001C36.9101 25.6956 36.5765 27.3746 35.9279 28.9411C35.2794 30.5077 34.3285 31.9311 33.1298 33.1301C31.931 34.3291 30.5078 35.2803 28.9414 35.9292C27.375 36.5781 25.6961 36.9121 24.0006 36.9121Z" fill="#E71618"/>
<path d="M31.2695 20.1937C31.1123 20.6697 30.8144 21.0868 30.4151 21.3899C29.8161 21.8699 25.8436 24.3025 25.3924 24.8622C25.0058 25.4605 24.8227 26.1675 24.8702 26.8782V31.5486H25.4894V30.338C25.5336 29.7451 25.7899 29.1879 26.2113 28.7684C27.4712 27.7375 28.7965 26.7893 30.179 25.9297C30.5785 25.613 30.8899 25.1989 31.0834 24.7272C31.2768 24.2555 31.3459 23.742 31.2839 23.236V20.0449L31.2695 20.1937Z" fill="#009B3B"/>
<path d="M24.8751 24.5762C25.3138 24.0232 29.413 21.5224 30.0005 21.0443C30.3555 20.8028 30.6534 20.4867 30.8736 20.1181C31.0938 19.7495 31.2309 19.3373 31.2754 18.9102V13.6792C31.1967 14.4318 30.8639 15.1351 30.3317 15.6731C29.7298 16.4622 26.9717 17.9541 25.6095 18.9112C25.0575 19.2172 24.5968 19.6645 24.2746 20.2071C23.9524 20.7498 23.7803 21.3684 23.7759 21.9995V31.5544H24.3874V26.5672C24.3276 25.8694 24.4993 25.1713 24.876 24.581" fill="#009B3B"/>
<path d="M21.7624 19.1673C20.3362 18.1027 18.9694 16.9608 17.668 15.7468C17.1407 15.1913 16.8044 14.482 16.708 13.7222V18.5807C16.7302 19.1397 16.8811 19.686 17.149 20.177C17.417 20.6681 17.7946 21.0906 18.2526 21.4118C19.4642 22.2969 21.172 23.5833 21.6837 24.0998C22.3683 24.854 22.7259 25.849 22.6782 26.8665V31.5542H23.283V22.2076C23.3562 21.6075 23.251 20.9991 22.9806 20.4585C22.7101 19.9178 22.2865 19.4687 21.7624 19.1673Z" fill="#009B3B"/>
</svg>
