<svg width="48" height="48" viewBox="0 0 48 48" fill="none" xmlns="http://www.w3.org/2000/svg">
<rect width="48" height="48" rx="24" fill="#1B3281"/>
<path d="M11.7832 27.3075C11.7832 27.3075 24.0007 23.325 38.4007 28.32C38.4007 28.32 26.7457 25.9125 11.7832 27.3075Z" fill="white"/>
<path d="M9.60059 24.6302H10.2531L10.6131 20.8952L12.2781 24.6752H12.4131L14.1006 20.8277L14.4381 24.6527H15.9231L15.4056 19.7027H13.8981L12.8181 22.3352L11.6481 19.6802H9.66809V19.8602C9.66809 19.8602 10.1406 19.7927 10.0731 20.4227L9.60059 24.6302Z" fill="white"/>
<path d="M16.3506 20.1523V20.3098C16.3506 20.3098 16.7781 20.2648 16.7781 20.8723C16.7781 21.4573 16.7781 24.6973 16.7781 24.6973H18.0831V20.1523H16.3506Z" fill="white"/>
<path d="M18.803 20.1299V21.0749H18.938C18.938 21.0749 18.893 20.6924 19.4105 20.6924H20.918L18.668 24.5174V24.6749H22.8755V24.0899H20.4455L22.7405 20.2874V20.1299H18.803Z" fill="white"/>
<path d="M22.9429 20.1299H24.6754V23.3699C24.6754 23.3699 24.5629 24.2474 25.5529 24.2474H26.3404V20.8499C26.3404 20.8499 26.4304 20.3549 25.9354 20.3549V20.1524H27.6904V22.0874H29.3554V20.7149C29.3554 20.7149 29.4229 20.2874 28.9279 20.2874V20.1299H30.6604V24.6299H29.3104C29.3104 24.6299 29.3779 24.2024 29.3779 23.9324V22.6049H27.6004V24.0449C27.6004 24.0449 27.5779 24.3374 27.6454 24.6299C27.6454 24.6299 26.3629 24.7424 25.5529 24.7424C24.7429 24.7424 23.3029 24.7649 23.3029 23.0099C23.3029 21.2549 23.3029 20.9624 23.3029 20.9624C23.3029 20.9624 23.3479 20.3099 22.9204 20.3099V20.1299H22.9429Z" fill="white"/>
<path d="M33.7654 20.04C32.3029 20.04 31.1104 21.075 31.1104 22.3575C31.1104 23.64 32.3029 24.675 33.7654 24.675C35.2279 24.675 36.4204 23.64 36.4204 22.3575C36.4204 21.075 35.2279 20.04 33.7654 20.04ZM33.7654 24.225C33.0229 24.225 32.4154 23.415 32.4154 22.425C32.4154 21.435 33.0229 20.625 33.7654 20.625C34.5079 20.625 35.0929 21.435 35.0929 22.425C35.0929 23.415 34.5079 24.225 33.7654 24.225Z" fill="white"/>
</svg>
