<svg width="48" height="48" viewBox="0 0 48 48" fill="none" xmlns="http://www.w3.org/2000/svg">
<rect width="48" height="48" rx="24" fill="#00A4E4"/>
<path d="M29.5304 32.2564C29.5304 32.2564 29.6991 31.9752 29.7835 32.3689C29.7835 32.3689 29.9522 34.6471 28.6304 36.0533C27.7304 36.9814 25.6491 38.3033 23.3147 37.7127C23.3147 37.7127 27.0554 37.4596 28.0116 33.7471L28.1241 33.3252C28.0679 33.3252 28.996 33.0721 29.5304 32.2564ZM38.0522 20.7814C38.0522 20.7252 38.0522 20.6971 38.0241 20.6408C38.0241 20.6408 37.9679 20.4158 37.8272 20.0221C37.7991 19.9658 37.771 19.9096 37.771 19.8533C37.771 19.8252 37.7429 19.7971 37.7429 19.7971C37.4897 19.2064 37.0116 18.3627 36.196 17.5471C36.196 17.5471 37.0679 17.4908 36.1116 16.4221C36.1116 16.4221 34.5366 14.5658 31.471 13.1314C29.8397 12.3721 27.9835 12.6814 28.1522 14.5096C28.2647 15.7752 27.0835 16.2815 26.1554 16.1689C25.0585 16.0283 24.3835 15.1283 24.5804 14.3971C24.7772 13.6096 25.171 12.9908 25.7897 12.5127C26.2116 12.1752 26.4929 11.9502 27.2522 11.8096C27.7022 11.7252 28.321 11.5564 28.4897 12.0908C28.7991 11.9221 29.3616 10.8533 27.5335 10.8533C27.5335 10.8533 27.2522 10.2627 26.6335 10.3752C26.6335 10.3752 24.8054 8.5752 22.7522 10.7971C22.7522 10.7971 21.9647 11.1064 21.9085 10.7971C22.0772 10.9377 22.3866 10.5158 21.9929 10.3471C21.796 10.2627 21.571 10.4877 21.5429 10.6564C21.5147 10.7971 21.571 11.1346 21.9647 11.1908C22.0772 11.2189 22.2741 11.1908 22.2741 11.1908L22.1335 11.3596C21.5147 11.6127 20.9522 11.4158 20.8397 10.9939C20.9804 11.0783 21.1491 10.9658 21.1772 10.8252C21.2335 10.6565 21.121 10.4314 20.8679 10.4033C20.5304 10.3471 20.3897 10.7408 20.446 11.0783C20.5585 11.6127 21.0647 11.9783 21.7397 11.8658L21.6272 12.0346C21.6272 12.0346 20.9522 12.8783 20.4179 13.8346C19.8554 14.7908 17.5772 15.8596 17.971 13.5533C18.0835 12.8221 16.8741 11.9502 14.7085 13.4127C13.5835 14.2002 12.1772 15.3815 11.1085 17.2939C11.1085 17.2939 10.6585 18.0252 11.4179 18.0533C11.4179 18.0533 9.871 18.7846 9.78662 22.3002C9.78662 22.3002 9.78662 22.4408 9.78662 22.6377C9.78662 22.7502 9.78662 22.8908 9.78662 23.0033C9.78662 23.3971 9.81474 23.8471 9.84287 24.1002C9.84287 24.1002 10.0116 26.2096 10.3772 26.5752C10.3772 26.5752 10.4054 26.5752 10.4335 26.5752C10.546 26.6596 10.6866 26.6877 10.8835 26.4908C10.8835 26.5189 11.3616 28.8814 12.3179 30.8783C13.1054 32.4533 14.5397 34.7596 13.9772 35.3221C13.4147 35.8846 12.6272 34.7596 12.7397 35.2096C12.9929 36.1377 13.9772 36.2783 14.4835 35.8846C15.8335 34.8158 13.8647 32.2564 13.246 29.0221C14.5397 28.4596 14.4835 26.4346 14.4835 26.4346C14.4835 26.4346 16.3116 26.3783 16.8741 24.2127C16.8741 24.2127 19.096 24.8596 20.1647 22.919C20.1647 22.919 20.1647 22.9189 20.1647 22.8908L20.1929 22.8627C20.4179 23.5377 20.8397 24.1283 21.4304 24.6627C21.4304 24.6627 21.3179 25.5908 20.2772 25.9283C20.2772 25.9283 19.0116 25.3939 17.6054 25.9283C16.3397 26.4346 16.846 27.7846 17.7741 27.4471C17.4929 27.3064 17.4085 26.8564 17.8585 26.7439C17.971 26.8283 18.0835 26.8846 18.2241 26.9127C18.2522 26.9127 19.3491 27.1096 20.1366 26.8002C20.1929 26.7721 20.2491 26.7721 20.3054 26.7158H20.3335C20.4179 26.6596 20.4741 26.6033 20.5304 26.5471C20.8116 26.5752 21.0085 26.9971 20.6147 27.1939C21.3741 27.3627 21.6554 26.5471 21.346 26.1252C21.346 26.1252 21.5147 26.0127 21.7397 25.8439C21.7397 25.8439 21.9929 25.6189 22.1616 25.3377C22.1616 25.3377 22.921 25.9283 24.2991 26.2658C24.2991 26.2658 23.5679 27.4752 22.4991 27.7002C22.4991 27.7002 20.9804 27.1939 19.9397 27.8408C19.9397 27.8408 19.3772 28.1502 19.4616 28.7408C19.5179 29.1908 19.9116 29.5283 20.446 29.4439C20.221 29.3314 19.7147 28.7689 20.3616 28.5158C20.4741 28.6846 20.6147 28.7971 20.8116 28.8252C20.8116 28.8252 21.7679 29.0502 22.9491 28.5439C23.0054 28.5158 23.0335 28.5158 23.0897 28.4877C23.0897 28.4877 23.1179 28.4877 23.146 28.4596C23.2304 28.4033 23.2866 28.3471 23.3147 28.2908C23.6241 28.2346 24.046 28.3752 23.8772 28.9658C24.2429 28.9096 24.8335 28.2627 23.9616 27.7283C23.9616 27.7283 24.4679 27.4752 24.8897 27.1096L25.5085 26.4908C26.7179 26.6596 27.6179 27.8127 27.6179 29.2189C27.6179 30.3721 26.6335 31.7221 25.5929 32.0033C25.621 32.0033 25.6772 31.9752 25.7054 31.9752L25.5647 32.0033H25.5929C25.4241 32.0314 25.2554 32.0596 25.0304 32.0596C23.9616 32.0314 24.6085 30.7939 24.6085 30.7939C24.4397 30.7658 24.271 30.8221 24.1304 30.9908C23.9616 31.1877 23.9054 31.5533 23.9616 31.9471C23.9054 31.9189 23.8491 31.9189 23.821 31.8908C22.8929 31.4971 22.9491 30.7939 22.9491 30.7939C22.696 30.9064 22.5272 31.2158 22.6116 31.7502C22.7522 32.4533 23.6522 32.7627 24.3835 32.8471C24.8054 33.2689 25.4804 33.6908 27.0272 33.4377C27.0272 33.4377 26.3522 37.0377 21.796 36.8689C21.796 36.8689 20.4179 36.3627 20.4741 35.2096C20.5304 33.6627 21.5991 33.1283 21.5991 33.1283C21.2054 33.0721 20.2491 33.1846 19.8272 34.4502C19.6304 35.0127 19.6866 35.9689 20.1929 36.6158C18.4772 36.1658 17.1835 34.8721 17.7179 33.0721C17.8022 32.7908 17.971 32.5096 18.196 32.2564C19.4897 31.0471 21.4022 31.7783 21.4022 31.7783C21.3179 31.3564 20.7835 30.7939 19.8272 30.7377C18.8429 30.6814 16.9585 31.2721 16.8179 33.5502C16.6772 35.6314 17.9991 37.1502 21.2897 37.6283L21.346 37.6564C21.346 37.6564 23.3429 39.0627 26.1554 38.3033C26.1554 38.3033 31.8366 37.1502 30.6272 30.6533C30.6272 30.6533 31.9491 26.3221 29.1647 23.8752C30.8804 25.2814 32.9897 24.4658 32.9897 24.4658C32.8491 28.4033 34.5085 28.9096 34.5085 28.9096L34.5647 28.8814C34.5647 28.8814 31.4429 35.6033 33.271 36.4752C33.8897 36.7564 34.621 36.6158 34.9866 35.8283C35.296 35.1814 34.3116 36.4471 33.7491 35.9127C33.0741 35.2377 33.9179 33.6346 34.7335 31.9189C35.8866 29.6127 36.646 27.8971 36.7866 26.7439C36.7866 26.7439 36.9554 26.8564 37.1522 26.7721L37.1804 26.8002C37.6304 26.6877 37.9116 24.8314 37.9679 24.5221C38.3335 22.8627 38.221 21.5971 38.0522 20.7814Z" fill="white"/>
</svg>
