<svg width="48" height="48" viewBox="0 0 48 48" fill="none" xmlns="http://www.w3.org/2000/svg">
<rect width="48" height="48" rx="24" fill="#0A784B"/>
<path d="M9 18C9 13.0294 13.0294 9 18 9H30C34.9706 9 39 13.0294 39 18V30C39 34.9706 34.9706 39 30 39H18C13.0294 39 9 34.9706 9 30V18Z" fill="#130177"/>
<path fill-rule="evenodd" clip-rule="evenodd" d="M30 10.05H18C13.6093 10.05 10.05 13.6093 10.05 18V30C10.05 34.3907 13.6093 37.95 18 37.95H30C34.3907 37.95 37.95 34.3907 37.95 30V18C37.95 13.6093 34.3907 10.05 30 10.05ZM18 9C13.0294 9 9 13.0294 9 18V30C9 34.9706 13.0294 39 18 39H30C34.9706 39 39 34.9706 39 30V18C39 13.0294 34.9706 9 30 9H18Z" fill="#9B8441"/>
<path fill-rule="evenodd" clip-rule="evenodd" d="M19.201 12H28.799V18.1198C27.9898 18.5989 27.1356 19.2087 26.3264 20.0581V14.3521H21.6736V20.0581C20.9543 19.2958 20.1001 18.6642 19.201 18.1198V12ZM35.25 24.5445H32.6876V19.5572C31.5862 19.6878 29.4058 20.8203 28.282 22.127H32.0357V24.5662H12.75V19.775H15.2675V22.127H19.6956C18.2795 20.5372 15.2675 19.1652 12.75 19.2523V14.9837H18.8639V17.4229H16.8184C20.4813 18.6204 23.1108 21.6028 23.9881 24.5205C23.9876 24.5249 23.9868 24.529 23.9853 24.5326C23.9823 24.5398 23.9767 24.5445 23.9663 24.5445H24.0112C24.0112 24.5352 24.0112 24.5299 24.0095 24.5252C24.0087 24.523 24.0076 24.5209 24.0059 24.5187C24.0034 24.5153 23.9996 24.5116 23.9942 24.5062C25.099 21.1819 27.793 18.5535 31.1816 17.4229H29.1136V14.9837H32.6876V14.2868H35.25V24.5445ZM23.9942 24.5062L23.9888 24.5009C23.9888 24.5051 23.9888 24.5094 23.9886 24.5134C23.9885 24.5158 23.9884 24.5182 23.9881 24.5205L23.9888 24.5227L23.9942 24.5062Z" fill="#FEFEFF"/>
<path fill-rule="evenodd" clip-rule="evenodd" d="M20.6171 31.8185V35.9782H19.4933V33.8874C19.4933 33.8874 19.6281 32.8638 18.4818 32.8638H12.75V31.8838H19.246C19.5382 31.8838 19.5382 31.47 19.246 31.47H12.75V30.5117H19.6281C20.6382 30.5117 20.6315 30.8988 20.6198 31.5779C20.6185 31.6544 20.6171 31.7347 20.6171 31.8185ZM22.1906 29.0526V35.9782H21.0667V31.1215C21.0667 31.1215 21.2015 30.0979 20.0552 30.0979H12.75V29.1179H20.8419C21.1116 29.1179 21.1116 28.7041 20.8419 28.7041H12.75V27.7241H21.2015C22.2112 27.7436 22.205 28.1148 22.1933 28.8059C22.192 28.884 22.1906 28.9663 22.1906 29.0526ZM23.764 35.9782H22.6626V28.3339C22.6626 28.3339 22.7975 27.3103 21.6511 27.3103H12.75V26.352H22.4378C22.7075 26.352 22.7075 25.9382 22.4378 25.9382H12.75V24.98H22.6401C23.3369 25.1107 23.764 25.7858 23.764 26.4827V35.9782ZM35.25 31.4918H28.7315C28.4393 31.4918 28.4393 31.9056 28.7315 31.9056H35.25V32.8856H29.5182C28.3494 32.8856 28.5067 33.9092 28.5067 33.9092V35.9999H27.3829V31.8185C27.3829 31.7332 27.3815 31.6519 27.3801 31.5746V31.5717C27.3685 30.8809 27.3622 30.5117 28.3719 30.5117H35.25V31.4918ZM35.25 28.7259H27.1581C26.8884 28.7259 26.8884 29.1397 27.1581 29.1397H35.25V30.1197H27.9448C26.776 30.1197 26.9333 31.1433 26.9333 31.1433V35.9999H25.8094V29.0526C25.8094 28.9975 25.8089 28.944 25.8081 28.8922L25.8067 28.8059C25.795 28.115 25.7888 27.7459 26.7985 27.7459H35.25V28.7259ZM35.25 25.9382H25.5622C25.2925 25.9382 25.2925 26.352 25.5622 26.352H35.25V27.3103H26.3714C25.225 27.3103 25.3599 28.3339 25.3599 28.3339V35.9782H24.236V26.4827C24.236 25.764 24.6631 25.1107 25.3599 24.98H35.25V25.9382Z" fill="#9B8441"/>
</svg>
