<svg width="48" height="48" viewBox="0 0 48 48" fill="none" xmlns="http://www.w3.org/2000/svg">
<rect width="48" height="48" rx="24" fill="url(#paint0_linear_4461_7122)"/>
<path opacity="0.7" d="M20.3106 37.4102C19.5456 37.8602 18.8706 38.1302 18.1506 38.1302C16.2831 38.1302 14.7306 36.6002 14.6406 34.7777L18.2631 32.6177L23.8881 35.1377L20.3106 37.4102Z" fill="white"/>
<path opacity="0.7" d="M22.4707 28.1399L19.7707 26.9474C18.5782 26.4074 17.4307 25.9574 17.4307 24.6299C17.4307 23.9324 17.6332 23.5949 17.9707 23.2349L23.6632 25.7549L22.2457 26.5649C21.8632 26.8124 21.5932 27.0149 21.5932 27.3074C21.5932 27.6449 21.9757 27.9149 22.4707 28.1399Z" fill="white"/>
<path opacity="0.7" d="M25.1255 15.7201L22.358 17.3851C22.1105 17.5426 21.7955 17.7676 21.7955 18.1501C21.7955 18.5776 22.4255 18.8926 22.988 19.1626L19.5455 17.6326C18.533 17.1826 17.5205 16.6876 17.5205 15.4501C17.5205 14.9326 17.678 14.5276 17.903 14.1676L25.373 9.6001C26.273 10.1176 27.128 11.1301 27.128 12.5026C27.128 13.9876 26.3855 14.9551 25.1255 15.7201Z" fill="white"/>
<path opacity="0.7" d="M30.9979 21.12L30.3229 21.5025L24.6079 18.9825L31.2454 15C32.1454 15.5175 33.0229 16.53 33.0229 17.9025C33.0229 19.365 32.2804 20.3775 30.9979 21.12Z" fill="white"/>
<path opacity="0.7" d="M26.1829 25.9575L29.5579 27.4425C30.8179 28.005 31.2004 28.68 31.2004 29.5125C31.2004 29.985 30.9304 30.4575 30.5479 30.795L24.8779 28.275L25.8454 27.735C26.6554 27.285 26.9254 27.015 26.9254 26.7225C26.9254 26.4075 26.7454 26.205 26.1829 25.9575Z" fill="white"/>
<path d="M32.1907 38.3999C30.7507 37.2974 29.2207 36.5549 27.3757 35.6999L18.7807 31.8974C16.6207 30.9299 15.1807 29.6474 15.1807 27.4874C15.1807 25.3949 16.1932 24.3824 17.5207 23.5274L17.9932 23.2349C17.6557 23.5949 17.4532 23.9549 17.4532 24.6299C17.4532 25.9574 18.5782 26.4074 19.7932 26.9474L29.8057 31.3574C31.5382 32.0999 33.1357 33.3824 33.1357 35.5874C33.1357 36.7799 32.6857 37.8599 32.1907 38.3999Z" fill="white"/>
<path d="M31.1779 30.39L30.5479 30.795C30.9304 30.4575 31.2004 29.985 31.2004 29.5125C31.2004 28.68 30.8179 28.005 29.5579 27.4425L18.8704 22.7175C16.7104 21.7725 15.3604 20.535 15.3604 18.375C15.3604 16.395 16.3504 15.1125 17.9029 14.145C17.6554 14.505 17.5204 14.91 17.5204 15.4275C17.5204 16.6425 18.5329 17.16 19.5454 17.61L29.9404 22.2C31.8304 23.0325 33.3604 24.2925 33.3604 26.61C33.3604 28.4325 32.5279 29.5575 31.1779 30.39Z" fill="white"/>
<defs>
<linearGradient id="paint0_linear_4461_7122" x1="0" y1="24" x2="48" y2="24" gradientUnits="userSpaceOnUse">
<stop stop-color="#233285"/>
<stop offset="1" stop-color="#0951C9"/>
</linearGradient>
</defs>
</svg>
