<svg width="48" height="48" viewBox="0 0 48 48" fill="none" xmlns="http://www.w3.org/2000/svg">
<rect width="48" height="48" rx="24" fill="#15366F"/>
<path d="M25.7132 19.5676C25.7132 19.5676 27.7157 20.2876 28.4582 22.3801C28.7057 23.1001 29.4932 23.6176 30.3032 23.6176H34.2182C35.2982 23.6176 36.1757 22.7176 36.1757 21.6601C36.1757 20.6026 35.2757 19.7026 34.2182 19.7026H31.1132L35.5457 15.2701C36.3332 14.4826 36.3332 13.2451 35.5457 12.4801C34.7582 11.6926 33.5432 11.6926 32.7782 12.4801L28.2782 16.9351L28.3232 13.8076C28.3232 12.6601 27.4457 11.8726 26.3882 11.8726C25.3082 11.8726 24.4307 12.7501 24.4307 13.8076V17.7226C24.4307 18.5776 24.9932 19.2526 25.7132 19.5676Z" fill="white"/>
<path d="M11.853 21.6374C11.853 22.7174 12.753 23.6174 13.8105 23.6174H17.7255C18.558 23.6174 19.278 23.0774 19.5705 22.3349C19.5705 22.3349 20.268 20.3324 22.338 19.5899C23.058 19.3424 23.5755 18.5549 23.5755 17.7449V13.8299C23.5755 12.7499 22.698 11.8724 21.6405 11.8724C20.538 11.8724 19.683 12.7724 19.683 13.8299V16.9124L15.183 12.4349C14.418 11.6474 13.1805 11.6474 12.4155 12.4349C11.6505 13.2224 11.6505 14.4374 12.4155 15.2024L16.938 19.7249L13.8105 19.7024C12.573 19.7024 11.853 20.5349 11.853 21.6374Z" fill="white"/>
<path d="M26.3657 36.1277C27.4457 36.1277 28.3232 35.3177 28.3232 34.1702V31.1102L32.7782 35.5652C33.5657 36.3527 34.7807 36.3527 35.5457 35.5652C36.3332 34.7777 36.3332 33.5627 35.5457 32.7977L31.0457 28.2752L34.1732 28.3202C35.3432 28.3202 36.1307 27.4427 36.1307 26.3852C36.1307 25.3277 35.2307 24.4277 34.1732 24.4277H30.2582C29.4257 24.4277 28.7057 24.9677 28.4132 25.7102C28.4132 25.7102 27.7157 27.7127 25.6457 28.4552C24.9257 28.7027 24.3857 29.4902 24.3857 30.3002V34.2152C24.4082 35.2502 25.2857 36.1277 26.3657 36.1277Z" fill="white"/>
<path d="M22.2932 28.4323C22.2932 28.4323 20.2907 27.7348 19.5932 25.6423C19.3232 24.9223 18.5582 24.4048 17.7482 24.4048H13.8557C12.7532 24.4048 11.8982 25.3048 11.8982 26.3623C11.8982 27.4198 12.7757 28.3198 13.8557 28.3198H16.8932L12.4607 32.7973C11.6732 33.5173 11.6732 34.7998 12.4607 35.5648C13.1807 36.3523 14.4632 36.3523 15.2282 35.5648L19.7507 31.0423L19.7057 34.1698C19.6607 35.4073 20.5382 36.1048 21.5957 36.1048C22.6982 36.1048 23.5532 35.2273 23.5532 34.1698V30.2773C23.5757 29.3998 23.0582 28.7023 22.2932 28.4323Z" fill="white"/>
</svg>
