<svg width="48" height="48" viewBox="0 0 48 48" fill="none" xmlns="http://www.w3.org/2000/svg">
<rect width="48" height="48" rx="24" fill="url(#paint0_linear_4461_7108)"/>
<path d="M18.1051 29.5049C17.4526 30.3374 16.4401 30.8549 15.3151 30.8549C13.3576 30.8549 11.7601 29.2574 11.7601 27.2999C11.7601 25.3424 13.3576 23.7449 15.3151 23.7449C16.3726 23.7449 17.3401 24.2174 17.9926 24.9599L19.3201 23.2724C18.2851 22.2374 16.8676 21.6074 15.3151 21.6074C12.1426 21.6074 9.6001 24.1499 9.6001 27.2999C9.6001 30.4499 12.1426 32.9924 15.2926 32.9924C16.8676 32.9924 18.2851 32.3624 19.3201 31.3274L18.1051 29.5049Z" fill="white"/>
<path d="M22.8748 21.8325H20.4673V32.88H22.8748V21.8325Z" fill="white"/>
<path d="M35.9925 21.8774H33.585V32.9249H35.9925V21.8774Z" fill="white"/>
<path d="M29.4677 32.9925C27.3977 32.9925 26.9027 31.2375 26.8577 30.225H26.8352V23.925H24.7202V21.9H26.8352V19.7625L28.9727 18.4575L28.9052 20.1V21.9H31.0652V23.925H28.9052V29.5275C28.8827 29.595 28.8827 29.685 28.8827 29.775C28.8827 29.865 28.8827 29.9325 28.9052 30.0225V30.1575C28.9952 30.6525 29.3102 31.0575 29.7602 31.2375C29.9402 31.305 30.1202 31.35 30.3227 31.35C30.7727 31.35 31.1777 31.1475 31.4477 30.8325C31.5152 30.765 31.5602 30.675 31.6052 30.6075C31.6277 30.54 31.6727 32.9925 29.4677 32.9925Z" fill="white"/>
<path d="M28.9273 29.5049V29.9774C28.9048 29.9099 28.9048 29.8199 28.9048 29.7299C28.9048 29.6624 28.9048 29.5724 28.9273 29.5049Z" fill="white"/>
<path d="M28.6127 14.9702C24.5402 14.9702 20.9177 17.0402 18.8252 20.1902H22.2227C23.8652 18.5927 26.1152 17.5802 28.5902 17.5802C31.0652 17.5802 33.3152 18.5702 34.9577 20.1902H38.4002C36.3077 17.0852 32.7077 14.9702 28.6127 14.9702Z" fill="white"/>
<defs>
<linearGradient id="paint0_linear_4461_7108" x1="24" y1="0" x2="24" y2="48" gradientUnits="userSpaceOnUse">
<stop stop-color="#027AD1"/>
<stop offset="1" stop-color="#002A66"/>
</linearGradient>
</defs>
</svg>
