<svg width="48" height="48" viewBox="0 0 48 48" fill="none" xmlns="http://www.w3.org/2000/svg">
<rect width="48" height="48" rx="24" fill="#013CC8"/>
<path d="M24.0041 10.4409C26.2469 12.5611 28.4903 14.6801 30.7337 16.7991C30.5298 17.009 30.3216 17.2148 30.1153 17.4217C28.0824 15.5019 26.049 13.582 24.0179 11.6598C22.0346 13.6502 20.0293 15.6179 18.0448 17.6071C17.8331 17.4032 17.616 17.204 17.4043 16.9989C19.113 15.2943 20.8319 13.6006 22.5382 11.8931C23.04 11.423 23.5191 10.9284 24.0041 10.4409Z" fill="white"/>
<path d="M18.519 17.9806C20.3623 16.1469 22.2242 14.3323 24.0692 12.501C25.9508 14.2695 27.8258 16.0452 29.7067 17.8137C29.4998 18.0207 29.2923 18.2276 29.0859 18.4357C27.4215 16.8616 25.757 15.2874 24.0836 13.7235C22.4454 15.3431 20.8001 16.9543 19.1656 18.5775C18.9461 18.3825 18.7338 18.1798 18.519 17.9806Z" fill="white"/>
<path d="M19.582 18.9949C21.0671 17.5248 22.5694 16.072 24.0503 14.5972C25.5682 16.0027 27.0724 17.4219 28.5867 18.8304C28.3792 19.0373 28.1717 19.2443 27.9647 19.4524C26.6693 18.2401 25.3679 17.0349 24.0736 15.8214C22.7854 17.075 21.5061 18.3388 20.2232 19.5983C20.0079 19.3992 19.7979 19.1934 19.582 18.9949Z" fill="white"/>
<path d="M28.7581 19.3091C29.5302 18.5741 30.2713 17.8067 31.0284 17.0562C33.267 19.1811 35.5122 21.2983 37.7562 23.4173C37.5505 23.6225 37.3442 23.827 37.1414 24.0352C35.1056 22.1255 33.0787 20.2056 31.0536 18.2846C29.044 20.2511 27.0632 22.2469 25.0632 24.2236C24.8544 24.0166 24.6385 23.8181 24.4238 23.6177C25.8706 22.1835 27.3179 20.7499 28.7581 19.3091Z" fill="white"/>
<path d="M13.7845 20.3069C14.7863 19.2913 15.8102 18.2997 16.8173 17.2896C19.0571 19.4121 21.3059 21.527 23.5451 23.6507C23.3394 23.8571 23.1337 24.0628 22.9273 24.2686C20.8956 22.3505 18.8622 20.4331 16.8353 18.5096C15.6427 19.6902 14.4465 20.8667 13.2635 22.0569C12.4448 22.8409 11.6667 23.6663 10.8443 24.4468C10.6356 24.244 10.4209 24.0491 10.2109 23.8481C10.9035 23.1454 11.6158 22.4624 12.3108 21.762C12.8 21.2752 13.2815 20.7794 13.7845 20.3069Z" fill="white"/>
<path d="M25.5405 24.5905C27.3892 22.7699 29.2361 20.947 31.0877 19.1294C31.2719 19.2538 31.4167 19.4284 31.5823 19.5756C33.2988 21.1916 35.0087 22.8148 36.7318 24.4236C36.5243 24.6329 36.3155 24.8411 36.1068 25.0498C34.4471 23.4739 32.7743 21.9117 31.1146 20.3357C29.4711 21.9541 27.8246 23.5701 26.1865 25.1951C25.9664 24.999 25.7552 24.7926 25.5405 24.5905Z" fill="white"/>
<path d="M16.8824 19.3428C18.7574 21.1197 20.6419 22.8864 22.5193 24.6603C22.3106 24.8655 22.1078 25.0766 21.8937 25.2751C20.2281 23.7046 18.5612 22.1358 16.8956 20.5658C15.2568 22.1878 13.6079 23.7991 11.9686 25.4211C11.7646 25.2153 11.5314 25.0383 11.3472 24.814C12.6809 23.4552 14.0613 22.143 15.4057 20.7949C15.9057 20.3182 16.3824 19.8188 16.8824 19.3428Z" fill="white"/>
<path d="M28.4242 23.8247C29.3088 22.9551 30.1957 22.0867 31.0815 21.2183C32.5976 22.6267 34.1048 24.0448 35.6185 25.4557C35.4062 25.659 35.1903 25.8588 34.9828 26.0669C33.6921 24.8528 32.3889 23.6519 31.0983 22.4377C29.8112 23.6919 28.5331 24.9551 27.2478 26.211C27.0295 26.0119 26.8166 25.8073 26.6055 25.601C27.2257 25.0233 27.8136 24.412 28.4242 23.8247Z" fill="white"/>
<path d="M12.3926 25.8394C13.8764 24.3681 15.3812 22.9189 16.8608 21.4429C18.3806 22.8454 19.8805 24.2694 21.3991 25.6737C21.1939 25.8854 20.984 26.0924 20.7759 26.3011C19.4768 25.0876 18.1784 23.8729 16.8746 22.6648C15.6073 23.9345 14.3082 25.1725 13.0415 26.4428C12.8232 26.2437 12.6049 26.0451 12.3926 25.8394Z" fill="white"/>
<path d="M9.60059 24.4492C12.0402 26.5975 14.4851 28.7399 16.9211 30.8923C19.1639 28.8242 21.4055 26.7548 23.6429 24.6807C23.6196 25.0802 23.6776 25.4785 23.6662 25.878C21.4211 27.939 19.1812 30.0054 16.9408 32.0718C14.5473 29.9593 12.1652 27.8338 9.77283 25.7195C9.71422 25.6615 9.63049 25.6065 9.64185 25.512C9.63228 25.1579 9.60776 24.8039 9.60059 24.4492Z" fill="white"/>
<path d="M24.3364 24.5542C26.7622 26.6798 29.2138 28.7766 31.651 30.8891C33.8214 28.7868 35.9942 26.6864 38.1581 24.5781C38.1533 24.9747 38.1928 25.37 38.2023 25.7659C36.0391 27.8795 33.8513 29.968 31.6832 32.0763C29.2538 29.9483 26.8149 27.8311 24.3831 25.7055C24.3687 25.3215 24.3621 24.9376 24.3364 24.5542Z" fill="white"/>
<path d="M31.7545 33.1772C33.9393 30.9984 36.0924 28.7891 38.2562 26.5894C38.273 26.9685 38.2724 27.3489 38.2891 27.7287C36.1259 29.9398 33.9566 32.1449 31.7969 34.359C29.3586 32.2293 26.9274 30.0911 24.4872 27.9631C24.4818 27.5469 24.4465 27.1324 24.4346 26.7162C26.8723 28.8728 29.3161 31.0217 31.7545 33.1772Z" fill="white"/>
<path d="M9.66895 26.6074C12.1103 28.7982 14.5481 30.9937 16.9948 33.1779C19.2454 31.0344 21.4667 28.8598 23.6999 26.6983C23.6838 27.0661 23.7549 27.434 23.7179 27.8018C23.5642 28.0183 23.3482 28.184 23.1616 28.3718C21.118 30.3759 19.0552 32.3598 17.0152 34.3675C14.7592 32.361 12.5068 30.3508 10.2527 28.3419C10.0709 28.172 9.86751 28.0231 9.70483 27.8341C9.69945 27.4256 9.67493 27.0165 9.66895 26.6074Z" fill="white"/>
<path d="M31.8608 35.1851C34.0259 32.9818 36.1837 30.7719 38.3398 28.5596C38.3727 28.9579 38.3919 29.3568 38.4008 29.7563C36.2322 31.9591 34.06 34.1588 31.8895 36.3603C29.4613 34.2605 27.0211 32.1744 24.5911 30.0763C24.5505 29.6768 24.5612 29.2755 24.5415 28.8754C26.9757 30.9848 29.4272 33.0745 31.8608 35.1851Z" fill="white"/>
<path d="M17.0564 35.181C19.3058 33.0225 21.5288 30.8377 23.7561 28.6577C23.783 29.0596 23.7973 29.4621 23.7944 29.8652C21.5521 32.0315 19.3081 34.1965 17.0725 36.3694C14.6425 34.2336 12.2059 32.1045 9.77175 29.9741C9.75381 29.571 9.76039 29.1679 9.74902 28.7654C10.7155 29.6439 11.7119 30.489 12.6904 31.3545C14.1467 32.629 15.6012 33.9053 17.0564 35.181Z" fill="white"/>
</svg>
