<svg width="48" height="48" viewBox="0 0 48 48" fill="none" xmlns="http://www.w3.org/2000/svg">
<rect width="48" height="48" rx="24" fill="#FFD229"/>
<path d="M19.0939 21.0153C19.5664 22.0278 20.1289 23.0178 20.8714 23.8503C21.1414 23.3553 21.3439 22.8378 21.5689 22.3203C22.4464 20.0253 22.9189 17.5953 23.2339 15.1878C23.4589 13.3653 23.6164 11.4978 23.5939 9.67529C21.5014 9.72029 19.3639 10.2603 17.4739 11.2053C17.4289 11.2278 17.3614 11.2728 17.3164 11.3178C17.2714 11.6778 17.3164 12.0603 17.2939 12.4203C17.3614 15.3453 17.8789 18.3153 19.0939 21.0153Z" fill="white"/>
<path d="M25.9338 20.9028C26.2488 21.8928 26.6088 22.9053 27.1038 23.8278C27.6438 23.1978 28.0938 22.5003 28.4988 21.7803C29.6913 19.5528 30.3213 17.0328 30.5688 14.5128C30.6588 13.4553 30.7263 12.3753 30.6813 11.3178C30.2088 11.0253 29.6688 10.8228 29.1738 10.5978C27.6438 10.0128 26.0238 9.69783 24.3813 9.65283C24.3588 10.5528 24.4038 11.4528 24.4713 12.3303C24.6738 15.2328 25.0788 18.1128 25.9338 20.9028Z" fill="white"/>
<path d="M13.8293 22.3206C14.9093 20.7231 15.5618 18.8781 15.9893 17.0106C16.3718 15.2781 16.5743 13.5006 16.5743 11.7231C16.4618 11.7681 16.3493 11.8356 16.2593 11.9031C14.4368 13.0731 12.8618 14.6481 11.7143 16.5156C10.0268 19.2381 9.30685 22.5906 9.71185 25.7631C11.3993 25.0656 12.8168 23.8056 13.8293 22.3206Z" fill="white"/>
<path d="M36.7118 17.3031C35.6993 15.3681 34.2143 13.6581 32.4368 12.3756C32.0993 12.1506 31.7843 11.9031 31.4243 11.7231C31.4243 13.1406 31.5593 14.5806 31.8068 15.9981C32.1893 18.1356 32.8643 20.2731 34.0343 22.0956C35.0468 23.6931 36.5093 25.0431 38.2868 25.7631C38.6468 22.8831 38.0843 19.8681 36.7118 17.3031Z" fill="white"/>
<path d="M19.6791 26.4605C19.5891 26.2805 19.4091 26.1455 19.2741 25.988C18.6666 25.2905 18.1716 24.503 17.7441 23.693C17.4066 23.0405 17.1591 22.343 16.9341 21.668C16.7991 21.8705 16.7316 22.0955 16.6641 22.3205C16.2591 23.468 15.6741 24.5705 14.9316 25.538C13.7841 27.023 12.2541 28.283 10.4766 28.9355C10.4991 29.0705 10.5441 29.2055 10.5891 29.318C11.0391 30.443 11.6241 31.523 12.3441 32.4905C12.6366 32.8505 12.9066 33.2555 13.2441 33.5705C13.4691 33.503 13.6491 33.368 13.8516 33.2555C16.0116 31.8605 17.7216 29.8355 19.0266 27.653C19.2741 27.2705 19.5216 26.888 19.6791 26.4605Z" fill="white"/>
<path d="M24.1786 22.4104C24.1111 22.1629 24.1336 21.8929 23.9761 21.6904C23.8186 21.8929 23.8411 22.1854 23.7736 22.4104C23.3011 24.8404 22.5811 27.2479 21.6136 29.5204C20.5111 32.0854 19.0711 34.5604 17.0461 36.5179C16.9561 36.6304 17.1586 36.6754 17.2261 36.7204C19.2511 37.7779 21.5461 38.3629 23.8411 38.3854C26.2936 38.4079 28.7911 37.8004 30.9286 36.5854C28.9036 34.5829 27.3961 32.0854 26.2936 29.4754C25.3936 27.2029 24.6511 24.8404 24.1786 22.4104Z" fill="white"/>
<path d="M31.3114 22.2979C31.2439 22.0954 31.1989 21.8704 31.0639 21.6904C30.9289 21.9154 30.8614 22.1854 30.7714 22.4329C30.2314 23.8954 29.4214 25.2454 28.3639 26.3929C28.2514 26.4829 28.3414 26.5954 28.3864 26.6854C28.8589 27.5854 29.3989 28.4404 29.9839 29.2504C31.1314 30.8029 32.5039 32.2204 34.1464 33.3004C34.3264 33.4129 34.5064 33.5479 34.7089 33.5929C34.8664 33.4804 34.9789 33.3004 35.0914 33.1654C35.8564 32.2429 36.4864 31.2304 37.0039 30.1504C37.1839 29.7679 37.3639 29.3629 37.4764 28.9579C36.5089 28.5979 35.6314 28.0804 34.8439 27.4279C33.2239 26.0779 32.0089 24.2779 31.3114 22.2979Z" fill="white"/>
</svg>
