<svg width="48" height="48" viewBox="0 0 48 48" fill="none" xmlns="http://www.w3.org/2000/svg">
<rect width="48" height="48" rx="24" fill="#E4E6E8"/>
<path d="M24.7698 20.8549C24.3266 20.8549 23.9672 21.2182 23.9672 21.6665C23.9672 22.1147 24.3266 22.4781 24.7698 22.4781H25.9738C26.4171 22.4781 26.7764 22.1147 26.7764 21.6665C26.7764 21.2182 26.4171 20.8549 25.9738 20.8549H24.7698Z" fill="#25272A"/>
<path d="M22.5625 24.3042C22.5625 23.856 22.9218 23.4927 23.3651 23.4927H27.3782C27.8215 23.4927 28.1809 23.856 28.1809 24.3042C28.1809 24.7525 27.8215 25.1158 27.3782 25.1158H23.3651C22.9218 25.1158 22.5625 24.7525 22.5625 24.3042Z" fill="#25272A"/>
<path fill-rule="evenodd" clip-rule="evenodd" d="M31.9934 17H17.6168C16.6683 17 15.8494 17.6715 15.6535 18.6099L14.044 26.3201C13.7807 27.5815 14.7324 28.7681 16.0073 28.7681H16.9441V28.971C16.9441 30.0916 17.8425 31 18.9507 31H31.9934C33.1017 31 34 30.0916 34 28.971V19.029C34 18.1886 33.4947 17.4675 32.7744 17.1595C32.5344 17.0568 32.2705 17 31.9934 17ZM16.9441 20.2865V27.1449H16.0073C15.7523 27.1449 15.562 26.9076 15.6147 26.6553L16.9441 20.2865ZM18.9507 29.3768C18.7291 29.3768 18.5494 29.1951 18.5494 28.971V28.3623H32.3947V28.971C32.3947 29.1951 32.2152 29.3768 31.9934 29.3768H18.9507ZM32.3947 19.029V26.7391H18.5494V19.029C18.5494 18.8049 18.7291 18.6232 18.9507 18.6232H31.9934C32.2152 18.6232 32.3947 18.8049 32.3947 19.029Z" fill="#25272A"/>
</svg>
