<svg width="48" height="48" viewBox="0 0 48 48" fill="none" xmlns="http://www.w3.org/2000/svg">
<rect width="48" height="48" rx="24" fill="#0050F0"/>
<path d="M15.4491 28.258C13.8311 28.258 12.5277 26.9546 12.5277 25.3366V22.5276H15.3367V19.831H12.5277V17.022H9.83105V25.3366C9.83105 28.4377 12.3479 30.9546 15.4491 30.9546C17.1569 30.9546 18.685 30.1905 19.7187 28.977C18.8873 27.9883 18.3704 26.7298 18.3704 25.3366C18.3704 26.9321 17.0445 28.258 15.4491 28.258Z" fill="white"/>
<path d="M26.9095 25.3366C26.9095 26.9546 25.6061 28.258 23.9881 28.258C22.3701 28.258 21.0667 26.9546 21.0667 25.3366V22.5276H23.8758V19.831H21.0667V17.022H18.3701V25.3366C18.3701 26.7298 18.887 28.0107 19.7184 28.977C20.7522 30.1905 22.2802 30.9546 23.9881 30.9546C25.696 30.9546 27.2241 30.1905 28.2578 28.977C27.4038 27.9883 26.9095 26.7298 26.9095 25.3366Z" fill="white"/>
<path d="M32.5276 19.7186C31.449 19.7186 30.4602 20.0108 29.6063 20.5276V17.022H26.9097V25.3366C26.9097 26.7298 27.4265 28.0107 28.258 28.977C29.2917 30.1905 30.8198 30.9546 32.5276 30.9546C35.6287 30.9546 38.1456 28.4377 38.1456 25.3366C38.1456 22.2355 35.6287 19.7186 32.5276 19.7186ZM32.5276 28.258C30.9096 28.258 29.6063 26.9546 29.6063 25.3366C29.6063 23.7186 30.9096 22.4152 32.5276 22.4152C34.1456 22.4152 35.449 23.7186 35.449 25.3366C35.449 26.9546 34.1232 28.258 32.5276 28.258Z" fill="white"/>
</svg>
