<svg width="48" height="48" viewBox="0 0 48 48" fill="none" xmlns="http://www.w3.org/2000/svg">
<rect width="48" height="48" rx="24" fill="#007858"/>
<path d="M31.7403 19.4326L31.6728 19.4776L31.5378 19.5226L31.3803 19.5676H31.2453L31.1328 19.5451L30.9978 19.5001L30.9078 19.4551L30.8628 19.4326L30.9078 19.6126L31.0203 19.9501L31.1553 20.2876L31.3353 20.6476L31.5378 20.9626L31.7628 21.2326L31.9878 21.4126L32.1678 21.5251L32.3478 21.5701H32.5278L32.7078 21.5476L32.8203 21.5026L32.9328 21.4576L32.9778 21.4126L38.4003 18.4426V15.8101L31.7403 19.4326Z" fill="white"/>
<path d="M34.0806 22.1777L32.1006 23.2802L31.7856 23.4377L29.0406 17.5652H25.0131L19.2756 28.1177L19.4781 28.0952L19.7031 28.0502L20.1981 27.9827L20.7381 27.8702L21.3006 27.7577L21.8406 27.6002L22.4256 27.4202L22.9881 27.2177L23.4156 27.0827L23.5956 26.9927L23.7756 26.9027L23.9106 26.7677L24.0681 26.6102L24.1581 26.4302L26.9031 20.6927L28.6806 25.1027L28.6581 25.1252L27.1956 25.8677L25.8681 26.5202L24.6756 27.0602L23.5731 27.5327L22.4931 27.9152L21.4356 28.2752L20.4231 28.5677L19.3881 28.8152L18.3981 29.0177L17.4531 29.1752L16.5756 29.3102L15.7881 29.3777L15.0681 29.4227L14.4831 29.4677L13.9656 29.4452L13.1781 29.3552L12.6381 29.2202L12.2556 29.0627L11.9406 28.8602L11.6706 28.6127L11.4906 28.3202L11.3556 28.0052L11.3331 27.6452L11.3556 27.1952L11.5131 26.7002L11.7831 26.1377L12.1206 25.5752L12.5256 25.0352L13.0206 24.4952L13.4931 24.0002L13.9881 23.5502L14.5281 23.1452L15.1356 22.6727L15.7656 22.2677L16.3506 21.9077L16.9806 21.5477L17.6331 21.2327L18.2631 20.9402L18.9156 20.6702L19.5456 20.4677L20.1306 20.2877L20.6481 20.1752L21.1206 20.0852L21.5931 20.0627L22.0881 20.1077L22.3581 20.1527L22.2231 19.6577L21.9756 18.8252L21.7956 18.2627L21.6381 17.9027L21.5256 17.7227L21.4131 17.6102L21.2781 17.5202L21.0756 17.4527L20.7606 17.4077L20.3106 17.4302L19.7481 17.4977L19.0956 17.6327L18.4206 17.8352L17.7231 18.0827L17.0481 18.3752L16.4181 18.6677L15.7881 19.0052L15.1806 19.3427L14.5506 19.7252L13.9206 20.1752L13.2681 20.6252L12.7056 21.0752L12.2106 21.4802L11.7831 21.9077L11.3331 22.3577L10.9506 22.8302L10.5681 23.3477L10.2531 23.8652L9.98309 24.4277L9.78059 24.9902L9.64559 25.5527L9.60059 26.0927L9.64559 26.7002L9.75809 27.3077L9.91559 27.9377L10.1406 28.5227L10.3881 29.0627L10.6806 29.5352L11.0406 30.0077L11.4456 30.4352L11.8731 30.7952L12.3456 31.1102L12.8631 31.3802L13.4706 31.5827L14.1906 31.7852L14.9781 31.9427L15.7881 32.0102L16.5756 32.0327L17.3406 31.9877L18.0156 31.9427L18.6681 31.8527L19.3206 31.7402L19.9731 31.6052L20.6031 31.4477L21.1881 31.3127L21.8406 31.1102L22.4931 30.9302L23.1456 30.7277L23.7981 30.4802L24.4731 30.2327L25.1256 29.9627L25.8006 29.6927L26.4756 29.3552L27.1956 29.0177L27.6006 28.7927L28.1406 28.5002L28.8831 28.1177L29.6931 27.6677L31.2906 31.6052L31.3356 31.7402L31.4031 31.8527L31.4931 31.9427L31.6056 32.0327L31.7406 32.1002L31.8531 32.1452L32.0106 32.1902H32.1456H35.8581L32.9331 25.8902L33.4281 25.6202L35.7906 24.2927L38.4006 22.8527V19.7252L36.1956 20.9852L34.0806 22.1777Z" fill="white"/>
</svg>
