<svg width="48" height="48" viewBox="0 0 48 48" fill="none" xmlns="http://www.w3.org/2000/svg">
<rect width="48" height="48" rx="24" fill="#F37D32"/>
<path d="M11.0473 30.7865C11.0473 29.414 11.0698 28.064 11.0473 26.6915C11.0473 26.2415 11.2048 26.129 11.6098 26.129C12.3748 26.1515 13.1398 26.129 13.9048 26.1515C14.3548 26.174 14.4673 25.994 14.4673 25.5665C14.4448 24.7115 14.4448 23.8565 14.4673 23.0015C14.4673 22.619 14.3548 22.439 13.9498 22.4615C13.1398 22.484 12.3523 22.4615 11.5423 22.484C11.1823 22.484 11.0698 22.3715 11.0698 22.0115C11.0923 20.414 11.0923 18.8165 11.0698 17.1965C11.0698 16.814 11.2723 16.6565 11.5423 16.4765C14.8498 14.5415 18.1798 12.629 21.4873 10.694C21.5548 10.649 21.6223 10.6265 21.6673 10.5815C22.6348 9.68152 23.4673 9.92902 24.5248 10.6265C28.4173 13.169 32.3998 15.6215 36.3373 18.074C36.7198 18.3215 36.8773 18.569 36.8773 19.0415C36.8548 21.4715 36.8548 23.924 36.8773 26.354C36.8773 26.804 36.7423 26.9615 36.2923 26.939C35.4823 26.9165 34.6948 26.939 33.8848 26.9165C33.5248 26.9165 33.3448 27.0065 33.3673 27.4115C33.3898 28.3115 33.3898 29.189 33.3673 30.089C33.3673 30.4715 33.5023 30.6065 33.8848 30.6065C34.6948 30.584 35.4823 30.6065 36.2923 30.6065C36.6298 30.6065 36.7873 30.6965 36.7648 31.079C36.7423 32.339 36.7423 33.599 36.7648 34.859C36.7648 35.2865 36.5848 35.4215 36.2248 35.534C32.9398 36.569 29.6548 37.604 26.3698 38.684C25.6498 38.909 25.0873 38.864 24.4123 38.594C21.8923 37.5815 19.3723 36.614 16.8523 35.624C16.5823 35.5115 16.2898 35.4665 15.9973 35.4665C14.5348 35.444 13.0723 35.444 11.6323 35.4665C11.1148 35.489 10.9798 35.2865 11.0023 34.814C11.0698 33.464 11.0473 32.114 11.0473 30.7865ZM13.0723 19.1765C13.3198 19.109 13.5223 19.064 13.7248 18.9965C16.2223 18.164 18.7198 17.354 21.2173 16.4765C21.8023 16.274 22.2523 16.3415 22.7473 16.679C24.1873 17.714 25.6723 18.704 27.1573 19.694C27.6523 20.0315 27.7648 20.459 27.4498 20.999C27.0898 21.629 26.6848 21.764 26.0998 21.4265C25.4923 21.0665 24.9073 20.6615 24.2998 20.279C23.6248 19.8515 23.1523 19.9865 22.6573 20.7065C22.2073 21.359 22.2748 21.8315 22.9273 22.2815C24.4573 23.3615 26.0098 24.419 27.5623 25.454C27.7648 25.589 28.0573 25.679 28.3273 25.679C30.3298 25.7015 32.3323 25.679 34.3348 25.7015C34.7623 25.7015 34.9423 25.6115 34.9423 25.139C34.9198 23.384 34.9198 21.6065 34.9423 19.8515C34.9423 19.514 34.8298 19.334 34.5598 19.154C30.8023 16.9265 27.0223 14.6765 23.2648 12.4265C22.9048 12.2015 22.6123 12.224 22.2748 12.4265C19.4398 14.0915 16.6048 15.7565 13.7698 17.4215C12.8698 17.894 12.8023 18.074 13.0723 19.1765ZM28.3948 32.069C26.3698 32.069 24.3448 32.069 22.3198 32.069C21.6673 32.069 21.3298 31.664 21.3298 30.9665C21.3523 30.314 21.5998 30.0665 22.2748 30.0665C23.2423 30.0665 24.2098 30.089 25.1773 30.044C25.8973 30.0215 26.2348 29.6165 26.2348 28.874C26.2348 28.2215 25.7398 27.704 25.1098 27.704C21.2398 27.704 17.3473 27.704 13.4773 27.704C13.0948 27.704 12.9598 27.8165 12.9598 28.199C12.9823 29.8865 12.9823 31.5965 12.9598 33.284C12.9598 33.689 13.0948 33.824 13.4998 33.824C14.7823 33.8015 16.0873 33.8015 17.3698 33.824C17.6623 33.824 17.9548 33.869 18.2248 33.9815C20.4298 34.8365 22.6348 35.6915 24.8173 36.569C25.2673 36.749 25.6273 36.749 26.0773 36.614C28.8223 35.6915 31.5898 34.7915 34.3573 33.8915C34.8523 33.734 35.0998 33.509 35.0098 32.969C34.9873 32.8565 34.9873 32.744 35.0098 32.6315C35.0548 32.204 34.8973 32.069 34.4698 32.069C32.4223 32.0915 30.3973 32.069 28.3948 32.069Z" fill="white"/>
</svg>
