<svg width="48" height="48" viewBox="0 0 48 48" fill="none" xmlns="http://www.w3.org/2000/svg">
<rect width="48" height="48" rx="24" fill="#C3282B"/>
<path d="M23.3228 9.59961H24.6953C28.2503 9.80211 31.7378 11.3096 34.2353 13.8746C36.5078 16.1696 37.9703 19.2296 38.3078 22.4246C38.6453 25.5071 37.9703 28.6796 36.3728 31.3571C34.7078 34.1696 32.0753 36.3746 29.0153 37.4996C25.8428 38.6921 22.2653 38.6921 19.0928 37.5446C15.8978 36.3971 13.1303 34.0571 11.4653 31.0646C9.89026 28.3421 9.30526 25.0796 9.73276 21.9521C10.2278 18.3746 12.1628 15.0221 14.9978 12.7496C17.3378 10.8596 20.3078 9.75711 23.3228 9.59961ZM22.3778 11.9396C18.5303 12.4121 15.0203 14.8871 13.2203 18.3296C11.7803 21.0296 11.4428 24.2696 12.2528 27.1946C13.0628 30.1646 15.0428 32.7971 17.6753 34.3946C20.1278 35.9021 23.1203 36.4646 25.9553 35.9921C29.3978 35.4746 32.5253 33.3596 34.3478 30.4121C35.8553 27.9821 36.4628 25.0346 36.0353 22.1996C35.5853 19.0496 33.8078 16.1246 31.2653 14.2571C28.7453 12.3446 25.4828 11.5121 22.3778 11.9396ZM16.2803 22.8971C17.7428 22.8971 19.2278 22.8971 20.6903 22.8971C20.6903 23.6396 20.6903 24.3596 20.6903 25.1021C19.2278 25.1021 17.7428 25.1021 16.2803 25.1021C16.2803 27.3296 16.2803 29.5346 16.2803 31.7621C18.6878 31.7621 21.0728 31.7621 23.4803 31.7621C23.4803 31.0196 23.4803 30.2771 23.4803 29.5346C21.8153 29.5346 20.1728 29.5346 18.5078 29.5346C18.5078 28.7921 18.5078 28.0496 18.5078 27.3071C19.9703 27.3071 21.4553 27.3071 22.9178 27.3071C22.9178 25.1021 22.9178 22.8746 22.9178 20.6696C21.4553 20.6696 19.9703 20.6696 18.5078 20.6696C18.5078 19.9271 18.5078 19.1846 18.5078 18.4646C20.1728 18.4646 21.8153 18.4646 23.4803 18.4646C23.4803 17.7221 23.4803 16.9796 23.4803 16.2371C21.0728 16.2371 18.6878 16.2371 16.2803 16.2371C16.2803 18.4646 16.2803 20.6696 16.2803 22.8971ZM24.5828 16.2596C24.5828 17.0021 24.5828 17.7221 24.5828 18.4646C26.2478 18.4646 27.8903 18.4646 29.5553 18.4646C29.5553 19.2071 29.5553 19.9496 29.5553 20.6921C28.0928 20.6921 26.6078 20.6921 25.1453 20.6921C25.1453 22.9196 25.1453 25.1246 25.1453 27.3521C26.6078 27.3521 28.0928 27.3521 29.5553 27.3521C29.5553 28.0946 29.5553 28.8146 29.5553 29.5571C27.8903 29.5571 26.2478 29.5571 24.5828 29.5571C24.5828 30.2996 24.5828 31.0421 24.5828 31.7846C26.9678 31.7846 29.3753 31.7846 31.7603 31.7846C31.7603 29.5796 31.7603 27.3521 31.7603 25.1471C30.2978 25.1471 28.8128 25.1471 27.3503 25.1471C27.3503 24.4046 27.3503 23.6621 27.3503 22.9196C28.8128 22.9196 30.2978 22.9196 31.7603 22.9196C31.7603 20.7146 31.7603 18.4871 31.7603 16.2821C29.3753 16.2596 26.9678 16.2596 24.5828 16.2596Z" fill="white"/>
</svg>
