<svg width="48" height="48" viewBox="0 0 48 48" fill="none" xmlns="http://www.w3.org/2000/svg">
<rect width="48" height="48" rx="24" fill="#0047B6"/>
<path d="M38.4016 24.0475C38.6041 31.6075 32.0116 38.7175 23.4391 38.4025C15.8341 38.11 9.60156 31.675 9.60156 24.0025C9.60156 16.42 15.8116 9.46752 24.2716 9.60252C32.3941 9.73752 38.5816 16.5325 38.4016 24.0475ZM36.1291 23.125C36.1066 21.3475 35.4766 18.8275 34.0366 16.5325C31.7191 12.8875 28.4566 10.7725 24.1141 10.66C20.8966 10.57 18.1291 11.875 15.8791 14.1475C11.2891 18.805 10.6141 26.41 14.2366 31.8325C17.4541 36.625 22.9891 38.5375 28.0516 36.5575C32.8441 34.7125 36.1066 29.6275 36.1291 23.125Z" fill="white"/>
<path opacity="0.7" d="M28.4791 28.0973C27.7591 28.8848 27.1066 29.5823 26.3416 30.4148C25.4416 29.4698 24.5416 28.5473 23.6866 27.6248C22.8541 26.7248 22.8766 26.7248 23.7541 25.8473C24.1591 25.4423 24.4966 24.9698 24.7666 24.6323C26.1391 25.9148 27.3316 27.0398 28.4791 28.0973Z" fill="white"/>
<path opacity="0.7" d="M27.8492 23.6651C26.5892 22.3376 25.5542 21.2576 24.5642 20.1326C24.4517 20.0201 24.4292 19.6376 24.5417 19.5251C25.1042 18.8501 25.7117 18.2426 26.4317 17.4551C27.6242 18.6926 28.6817 19.7726 29.7167 20.8751C29.8292 20.9876 29.8292 21.3701 29.7167 21.5051C29.1542 22.2026 28.5917 22.8101 27.8492 23.6651Z" fill="white"/>
<path opacity="0.7" d="M25.779 22.7423C24.6315 23.8673 23.484 25.0148 22.4265 26.0723C21.5715 25.3748 20.784 24.7223 20.0415 24.0923C21.3015 22.7873 22.4265 21.6398 23.5965 20.4248C24.3165 21.1898 24.9915 21.9098 25.779 22.7423Z" fill="white"/>
<path opacity="0.7" d="M23.6188 28.7949C24.3613 29.5824 25.0138 30.2799 25.8013 31.0899C24.7663 32.1024 23.6863 33.1599 22.5613 34.1949C22.4488 34.3074 22.1113 34.3524 22.0438 34.2624C21.5713 33.7674 21.0088 33.2724 20.7838 32.6649C20.6488 32.3049 20.9188 31.6299 21.2113 31.2699C21.9088 30.4374 22.7638 29.6724 23.6188 28.7949Z" fill="white"/>
<path opacity="0.7" d="M27.2866 25.2848C28.3216 24.2273 29.4466 23.0798 30.6616 21.8423C31.1566 22.3823 31.7641 22.8548 32.1016 23.4623C32.3716 23.9798 32.2366 24.6323 31.7416 25.1048C30.9316 25.8923 30.1441 26.7023 29.3116 27.5348C28.6141 26.7698 27.9391 26.0048 27.2866 25.2848Z" fill="white"/>
<path opacity="0.7" d="M17.9712 17.5225C19.2762 18.8275 20.4012 19.9525 21.5712 21.145C20.8287 21.865 20.1087 22.54 19.4562 23.17C18.5787 22.3375 17.5887 21.505 16.7112 20.56C16.2612 20.0875 16.3512 19.435 16.7562 18.895C17.1387 18.4675 17.5212 18.04 17.9712 17.5225Z" fill="white"/>
<path opacity="0.7" d="M23.5062 19.1196C22.7637 18.3771 21.9537 17.5896 21.1662 16.7796C20.4687 16.0371 20.4687 15.2271 21.1662 14.5071C21.5037 14.1696 21.8412 13.8546 22.2237 13.4946C23.4162 14.6871 24.5637 15.8346 25.7562 17.0271C25.0362 17.7021 24.3162 18.3771 23.5062 19.1196Z" fill="white"/>
<path opacity="0.7" d="M21.5036 26.9047C20.3786 27.9847 19.2311 29.0872 17.9936 30.2572C17.6561 29.9422 17.2061 29.5822 16.8461 29.1547C16.2836 28.4797 16.3061 27.7597 16.9361 27.1297C17.7461 26.3197 18.6011 25.5322 19.4561 24.7222C20.0636 25.3747 20.7386 26.1172 21.5036 26.9047Z" fill="white"/>
</svg>
