<svg width="48" height="48" viewBox="0 0 48 48" fill="none" xmlns="http://www.w3.org/2000/svg">
<rect width="48" height="48" rx="24" fill="#ED1C24"/>
<path d="M23.9975 9.6001C21.4991 9.6001 19.1591 10.2409 17.1071 11.3569L19.8287 14.5465L21.7583 16.7497C22.5359 16.4833 23.3711 16.3393 24.2351 16.3393C28.4687 16.3393 31.9031 19.7737 31.9031 24.0073C31.9031 26.9953 30.1967 29.5801 27.7055 30.8401C27.5543 30.9265 24.7463 32.5105 19.9367 32.5105L12.3623 32.4889C14.9831 36.0745 19.2167 38.4001 23.9903 38.4001C31.9463 38.4001 38.3903 31.9561 38.3903 24.0001C38.3903 16.0441 31.9535 9.6001 23.9975 9.6001Z" fill="white"/>
<path d="M12.6284 15.1726L18.4172 19.0246C19.0148 18.319 19.742 17.7286 20.5556 17.2822L15.5372 12.3574C14.4356 13.1566 13.4564 14.107 12.6284 15.1798V15.1726Z" fill="white"/>
<path d="M17.9424 23.107L25.0344 25.843V24.1654L18.9936 20.731C18.5184 21.3574 18.144 22.135 17.9424 23.107Z" fill="white"/>
<path d="M19.7568 19.9172L25.0344 23.4308V21.6812L21.9816 18.686C21.2112 18.9452 20.4336 19.334 19.7568 19.9172Z" fill="white"/>
<path d="M25.0345 28.4853V26.5557L17.7841 24.2733C17.7121 25.3893 17.8345 26.6997 18.2089 28.2549C18.2089 28.2549 16.5529 26.5341 16.5457 23.8845L9.77766 21.7461C9.66246 22.4805 9.59766 23.2293 9.59766 23.9997C9.59766 25.5621 9.84966 27.0741 10.3105 28.4853H25.0345Z" fill="white"/>
<path d="M10.1592 20.0257L16.596 22.6177C16.7544 21.6673 17.1 20.7817 17.5896 19.9969L11.7 16.5049C11.0376 17.5921 10.512 18.7729 10.1592 20.0257Z" fill="white"/>
<path d="M16.4596 29.3638H10.6348C10.9444 30.127 11.3116 30.8614 11.7436 31.5598H22.1404L23.4724 30.1558H17.2156L16.4668 29.3638H16.4596Z" fill="white"/>
</svg>
